G04 #@! TF.FileFunction,Copper,L1,Top,Signal*
%FSLAX46Y46*%
G04 Gerber Fmt 4.6, Leading zero omitted, Abs format (unit mm)*
G04 Created by KiCad (PCBNEW 4.0.4-stable) date 01/29/17 20:31:17*
%MOMM*%
%LPD*%
G01*
G04 APERTURE LIST*
%ADD10C,0.100000*%
%ADD11O,0.950000X1.250000*%
%ADD12O,1.550000X1.000000*%
%ADD13C,2.500000*%
%ADD14C,0.600000*%
%ADD15C,0.890000*%
%ADD16C,0.200000*%
%ADD17C,0.400000*%
%ADD18C,0.600000*%
%ADD19C,0.254000*%
G04 APERTURE END LIST*
D10*
D11*
X105062540Y-139000900D03*
X105062540Y-134000900D03*
D12*
X102362540Y-140000900D03*
X102362540Y-133000900D03*
D13*
X122475000Y-97000000D03*
D14*
X125750000Y-143550000D03*
X133700000Y-127550000D03*
X132900000Y-130000000D03*
X121700000Y-133300000D03*
X112600000Y-125300000D03*
X108500000Y-144000000D03*
X121300000Y-136450000D03*
X142500000Y-119800000D03*
X142600000Y-110200000D03*
X102400000Y-110300000D03*
X102300000Y-119800000D03*
X108800000Y-131100000D03*
X107600000Y-128700000D03*
X106400000Y-129400000D03*
X105900000Y-126600000D03*
X103500000Y-126600000D03*
X133000000Y-133400000D03*
X132540380Y-131740380D03*
X121000000Y-142050000D03*
X120600000Y-139200000D03*
X110800000Y-120200000D03*
X112200000Y-121600000D03*
X112600000Y-124000000D03*
D15*
X107200000Y-135000000D03*
X103400000Y-135200000D03*
D14*
X125400000Y-142000000D03*
X132400000Y-128200000D03*
X112400000Y-131600000D03*
X133200000Y-112000000D03*
X138400000Y-113600000D03*
X137400000Y-138000000D03*
X132600000Y-123000000D03*
X137000000Y-134600000D03*
X111749999Y-114000000D03*
D15*
X102400000Y-123800000D03*
X111800000Y-143200000D03*
D14*
X120000000Y-142200000D03*
X124800000Y-141400000D03*
X136600000Y-133600000D03*
X112000000Y-116000000D03*
X137800000Y-137000000D03*
X133169999Y-122240001D03*
X137800000Y-136000000D03*
X135000000Y-121800000D03*
D16*
X132900000Y-130000000D02*
X132900000Y-130424264D01*
X132900000Y-130424264D02*
X132950000Y-130474264D01*
X132950000Y-130474264D02*
X132950000Y-131330760D01*
X132950000Y-131330760D02*
X132540380Y-131740380D01*
X112600000Y-124000000D02*
X112600000Y-122000000D01*
X112600000Y-122000000D02*
X112200000Y-121600000D01*
D17*
X131000000Y-136400000D02*
X125400000Y-142000000D01*
X131000000Y-134200000D02*
X131000000Y-136400000D01*
X133600000Y-131600000D02*
X133600000Y-129400000D01*
X133600000Y-129400000D02*
X132400000Y-128200000D01*
X131000000Y-134200000D02*
X133600000Y-131600000D01*
X115000000Y-134200000D02*
X131000000Y-134200000D01*
X112400000Y-131600000D02*
X115000000Y-134200000D01*
D16*
X138400000Y-113600000D02*
X134800000Y-113600000D01*
X134800000Y-113600000D02*
X133200000Y-112000000D01*
X132950001Y-127700001D02*
X132600000Y-127350000D01*
X132600000Y-127350000D02*
X132600000Y-126014002D01*
X134064001Y-129300000D02*
X134064001Y-134664001D01*
X134064001Y-129300000D02*
X134064001Y-129227591D01*
X134064001Y-129227591D02*
X132950001Y-128113591D01*
X132950001Y-128113591D02*
X132950001Y-127700001D01*
X132600000Y-123000000D02*
X132600000Y-126014002D01*
X134064001Y-134664001D02*
X137400000Y-138000000D01*
X111749999Y-114000000D02*
X111749999Y-113155013D01*
X111749999Y-113155013D02*
X115655022Y-109249990D01*
X115655022Y-109249990D02*
X129344978Y-109249990D01*
X129344978Y-109249990D02*
X137150001Y-117055013D01*
X137150001Y-117055013D02*
X137150001Y-134449999D01*
X137150001Y-134449999D02*
X137000000Y-134600000D01*
D18*
X103200000Y-143200000D02*
X101137530Y-141137530D01*
X101137530Y-141137530D02*
X101137530Y-125062470D01*
X101137530Y-125062470D02*
X102400000Y-123800000D01*
X111170675Y-143200000D02*
X103200000Y-143200000D01*
X111800000Y-143200000D02*
X111170675Y-143200000D01*
D16*
X121300000Y-143000000D02*
X120800000Y-143000000D01*
X120800000Y-143000000D02*
X120400000Y-142600000D01*
X121700000Y-142600000D02*
X121300000Y-143000000D01*
X123600000Y-142600000D02*
X121700000Y-142600000D01*
X124800000Y-141400000D02*
X123600000Y-142600000D01*
X120400000Y-142600000D02*
X120000000Y-142200000D01*
X113000000Y-112400000D02*
X115800000Y-109600000D01*
X112299999Y-115000001D02*
X112400000Y-114900000D01*
X112400000Y-114900000D02*
X112400000Y-113000000D01*
X112400000Y-113000000D02*
X113000000Y-112400000D01*
X112299999Y-115700001D02*
X112299999Y-115000001D01*
X136000000Y-116400000D02*
X136000000Y-133000000D01*
X136000000Y-133000000D02*
X136600000Y-133600000D01*
X129200000Y-109600000D02*
X136000000Y-116400000D01*
X115800000Y-109600000D02*
X129200000Y-109600000D01*
X112000000Y-116000000D02*
X112299999Y-115700001D01*
X133169999Y-122240001D02*
X134649990Y-123719992D01*
X134649990Y-123719992D02*
X134649990Y-133849990D01*
X134649990Y-133849990D02*
X137800000Y-137000000D01*
X135000000Y-121800000D02*
X135000000Y-133414002D01*
X135000000Y-133414002D02*
X137585998Y-136000000D01*
X137585998Y-136000000D02*
X137800000Y-136000000D01*
D19*
G36*
X123520462Y-94536389D02*
X124385566Y-95114434D01*
X124963612Y-95979539D01*
X125179283Y-97063794D01*
X125407644Y-98211845D01*
X125456470Y-98329721D01*
X125456471Y-98329722D01*
X126106789Y-99302991D01*
X126197008Y-99393210D01*
X127170278Y-100043529D01*
X127170279Y-100043530D01*
X127219104Y-100063754D01*
X127288154Y-100092356D01*
X127288156Y-100092356D01*
X128436206Y-100320717D01*
X128468413Y-100320717D01*
X128500000Y-100327000D01*
X141967793Y-100327000D01*
X143020462Y-100536389D01*
X143885566Y-101114434D01*
X144463612Y-101979539D01*
X144673000Y-103032208D01*
X144673000Y-141967792D01*
X144463612Y-143020461D01*
X143885566Y-143885566D01*
X143020462Y-144463611D01*
X141967793Y-144673000D01*
X103032208Y-144673000D01*
X101979539Y-144463612D01*
X101114434Y-143885566D01*
X100536389Y-143020462D01*
X100327000Y-141967793D01*
X100327000Y-125062470D01*
X100560529Y-125062470D01*
X100560530Y-125062475D01*
X100560530Y-141137525D01*
X100560529Y-141137530D01*
X100604452Y-141358338D01*
X100729529Y-141545531D01*
X102791999Y-143608001D01*
X102979192Y-143733078D01*
X103200000Y-143777001D01*
X103200005Y-143777000D01*
X111355821Y-143777000D01*
X111390486Y-143811725D01*
X111655755Y-143921875D01*
X111942985Y-143922125D01*
X112208446Y-143812439D01*
X112411725Y-143609514D01*
X112521875Y-143344245D01*
X112522125Y-143057015D01*
X112412439Y-142791554D01*
X112209514Y-142588275D01*
X111944245Y-142478125D01*
X111657015Y-142477875D01*
X111391554Y-142587561D01*
X111356053Y-142623000D01*
X103439002Y-142623000D01*
X101714530Y-140898528D01*
X101714530Y-140681968D01*
X101769585Y-140718754D01*
X102066930Y-140777900D01*
X102658150Y-140777900D01*
X102955495Y-140718754D01*
X103207572Y-140550322D01*
X103376004Y-140298245D01*
X103435150Y-140000900D01*
X103376004Y-139703555D01*
X103207572Y-139451478D01*
X102955495Y-139283046D01*
X102658150Y-139223900D01*
X102066930Y-139223900D01*
X101769585Y-139283046D01*
X101714530Y-139319832D01*
X101714530Y-138833229D01*
X104310540Y-138833229D01*
X104310540Y-139168571D01*
X104367783Y-139456349D01*
X104530796Y-139700315D01*
X104774762Y-139863328D01*
X105062540Y-139920571D01*
X105350318Y-139863328D01*
X105594284Y-139700315D01*
X105757297Y-139456349D01*
X105814540Y-139168571D01*
X105814540Y-138833229D01*
X105757297Y-138545451D01*
X105594284Y-138301485D01*
X105350318Y-138138472D01*
X105062540Y-138081229D01*
X104774762Y-138138472D01*
X104530796Y-138301485D01*
X104367783Y-138545451D01*
X104310540Y-138833229D01*
X101714530Y-138833229D01*
X101714530Y-133833229D01*
X104310540Y-133833229D01*
X104310540Y-134168571D01*
X104367783Y-134456349D01*
X104530796Y-134700315D01*
X104774762Y-134863328D01*
X105062540Y-134920571D01*
X105350318Y-134863328D01*
X105594284Y-134700315D01*
X105757297Y-134456349D01*
X105814540Y-134168571D01*
X105814540Y-133833229D01*
X105757297Y-133545451D01*
X105594284Y-133301485D01*
X105350318Y-133138472D01*
X105062540Y-133081229D01*
X104774762Y-133138472D01*
X104530796Y-133301485D01*
X104367783Y-133545451D01*
X104310540Y-133833229D01*
X101714530Y-133833229D01*
X101714530Y-133681968D01*
X101769585Y-133718754D01*
X102066930Y-133777900D01*
X102658150Y-133777900D01*
X102955495Y-133718754D01*
X103207572Y-133550322D01*
X103376004Y-133298245D01*
X103435150Y-133000900D01*
X103376004Y-132703555D01*
X103207572Y-132451478D01*
X102955495Y-132283046D01*
X102658150Y-132223900D01*
X102066930Y-132223900D01*
X101769585Y-132283046D01*
X101714530Y-132319832D01*
X101714530Y-125301472D01*
X102493919Y-124522082D01*
X102542985Y-124522125D01*
X102808446Y-124412439D01*
X103011725Y-124209514D01*
X103121875Y-123944245D01*
X103122125Y-123657015D01*
X103012439Y-123391554D01*
X102809514Y-123188275D01*
X102544245Y-123078125D01*
X102257015Y-123077875D01*
X101991554Y-123187561D01*
X101788275Y-123390486D01*
X101678125Y-123655755D01*
X101678081Y-123705917D01*
X100729529Y-124654469D01*
X100604452Y-124841662D01*
X100560529Y-125062470D01*
X100327000Y-125062470D01*
X100327000Y-114114269D01*
X111172899Y-114114269D01*
X111260557Y-114326417D01*
X111422728Y-114488871D01*
X111634723Y-114576900D01*
X111864268Y-114577100D01*
X112023000Y-114511513D01*
X112023000Y-114749016D01*
X111951696Y-114855729D01*
X111922999Y-115000001D01*
X111922999Y-115422932D01*
X111885731Y-115422900D01*
X111673583Y-115510558D01*
X111511129Y-115672729D01*
X111423100Y-115884724D01*
X111422900Y-116114269D01*
X111510558Y-116326417D01*
X111672729Y-116488871D01*
X111884724Y-116576900D01*
X112114269Y-116577100D01*
X112326417Y-116489442D01*
X112488871Y-116327271D01*
X112576900Y-116115276D01*
X112577043Y-115950919D01*
X112621273Y-115884724D01*
X112648302Y-115844273D01*
X112676999Y-115700001D01*
X112676999Y-115150985D01*
X112748303Y-115044272D01*
X112777000Y-114900000D01*
X112777000Y-113156158D01*
X115956158Y-109977000D01*
X129043842Y-109977000D01*
X135623000Y-116556158D01*
X135623000Y-133000000D01*
X135651697Y-133144272D01*
X135733421Y-133266579D01*
X136023038Y-133556196D01*
X136022900Y-133714269D01*
X136110558Y-133926417D01*
X136272729Y-134088871D01*
X136484724Y-134176900D01*
X136607018Y-134177007D01*
X136511129Y-134272729D01*
X136476142Y-134356986D01*
X135377000Y-133257844D01*
X135377000Y-122238947D01*
X135488871Y-122127271D01*
X135576900Y-121915276D01*
X135577100Y-121685731D01*
X135489442Y-121473583D01*
X135327271Y-121311129D01*
X135115276Y-121223100D01*
X134885731Y-121222900D01*
X134673583Y-121310558D01*
X134511129Y-121472729D01*
X134423100Y-121684724D01*
X134422900Y-121914269D01*
X134510558Y-122126417D01*
X134623000Y-122239055D01*
X134623000Y-123159843D01*
X133746961Y-122283805D01*
X133747099Y-122125732D01*
X133659441Y-121913584D01*
X133497270Y-121751130D01*
X133285275Y-121663101D01*
X133055730Y-121662901D01*
X132843582Y-121750559D01*
X132681128Y-121912730D01*
X132593099Y-122124725D01*
X132592899Y-122354270D01*
X132621305Y-122423018D01*
X132485731Y-122422900D01*
X132273583Y-122510558D01*
X132111129Y-122672729D01*
X132023100Y-122884724D01*
X132022900Y-123114269D01*
X132110558Y-123326417D01*
X132223000Y-123439055D01*
X132223000Y-127350000D01*
X132251697Y-127494272D01*
X132333421Y-127616579D01*
X132339789Y-127622947D01*
X132285731Y-127622900D01*
X132073583Y-127710558D01*
X131911129Y-127872729D01*
X131823100Y-128084724D01*
X131822900Y-128314269D01*
X131910558Y-128526417D01*
X132072729Y-128688871D01*
X132284724Y-128776900D01*
X132302335Y-128776915D01*
X133123000Y-129597580D01*
X133123000Y-131402420D01*
X130802420Y-133723000D01*
X115197580Y-133723000D01*
X112977085Y-131502505D01*
X112977100Y-131485731D01*
X112889442Y-131273583D01*
X112727271Y-131111129D01*
X112515276Y-131023100D01*
X112285731Y-131022900D01*
X112073583Y-131110558D01*
X111911129Y-131272729D01*
X111823100Y-131484724D01*
X111822900Y-131714269D01*
X111910558Y-131926417D01*
X112072729Y-132088871D01*
X112284724Y-132176900D01*
X112302335Y-132176915D01*
X114662710Y-134537290D01*
X114817459Y-134640691D01*
X115000000Y-134677000D01*
X130523000Y-134677000D01*
X130523000Y-136202420D01*
X125377045Y-141348375D01*
X125377100Y-141285731D01*
X125289442Y-141073583D01*
X125127271Y-140911129D01*
X124915276Y-140823100D01*
X124685731Y-140822900D01*
X124473583Y-140910558D01*
X124311129Y-141072729D01*
X124223100Y-141284724D01*
X124222961Y-141443881D01*
X123443842Y-142223000D01*
X121700000Y-142223000D01*
X121555728Y-142251697D01*
X121433420Y-142333421D01*
X121143842Y-142623000D01*
X120956159Y-142623000D01*
X120666581Y-142333423D01*
X120666579Y-142333420D01*
X120576962Y-142243803D01*
X120577100Y-142085731D01*
X120489442Y-141873583D01*
X120327271Y-141711129D01*
X120115276Y-141623100D01*
X119885731Y-141622900D01*
X119673583Y-141710558D01*
X119511129Y-141872729D01*
X119423100Y-142084724D01*
X119422900Y-142314269D01*
X119510558Y-142526417D01*
X119672729Y-142688871D01*
X119884724Y-142776900D01*
X120043880Y-142777039D01*
X120133420Y-142866579D01*
X120133423Y-142866581D01*
X120533420Y-143266579D01*
X120627918Y-143329721D01*
X120655728Y-143348303D01*
X120800000Y-143377000D01*
X121300000Y-143377000D01*
X121444272Y-143348303D01*
X121566579Y-143266579D01*
X121856159Y-142977000D01*
X123600000Y-142977000D01*
X123744272Y-142948303D01*
X123866579Y-142866579D01*
X124756196Y-141976962D01*
X124823020Y-141977020D01*
X124822900Y-142114269D01*
X124910558Y-142326417D01*
X125072729Y-142488871D01*
X125284724Y-142576900D01*
X125514269Y-142577100D01*
X125726417Y-142489442D01*
X125888871Y-142327271D01*
X125976900Y-142115276D01*
X125976915Y-142097665D01*
X131337290Y-136737290D01*
X131440691Y-136582540D01*
X131477000Y-136400000D01*
X131477000Y-134397580D01*
X133687001Y-132187579D01*
X133687001Y-134664001D01*
X133715698Y-134808273D01*
X133797422Y-134930580D01*
X136823038Y-137956196D01*
X136822900Y-138114269D01*
X136910558Y-138326417D01*
X137072729Y-138488871D01*
X137284724Y-138576900D01*
X137514269Y-138577100D01*
X137726417Y-138489442D01*
X137888871Y-138327271D01*
X137976900Y-138115276D01*
X137977100Y-137885731D01*
X137889442Y-137673583D01*
X137793022Y-137576994D01*
X137914269Y-137577100D01*
X138126417Y-137489442D01*
X138288871Y-137327271D01*
X138376900Y-137115276D01*
X138377100Y-136885731D01*
X138289442Y-136673583D01*
X138127271Y-136511129D01*
X138100667Y-136500082D01*
X138126417Y-136489442D01*
X138288871Y-136327271D01*
X138376900Y-136115276D01*
X138377100Y-135885731D01*
X138289442Y-135673583D01*
X138127271Y-135511129D01*
X137915276Y-135423100D01*
X137685731Y-135422900D01*
X137584065Y-135464908D01*
X137243047Y-135123890D01*
X137326417Y-135089442D01*
X137488871Y-134927271D01*
X137576900Y-134715276D01*
X137577100Y-134485731D01*
X137527001Y-134364482D01*
X137527001Y-117055013D01*
X137498304Y-116910741D01*
X137416580Y-116788433D01*
X133205151Y-112577005D01*
X133243881Y-112577039D01*
X134533421Y-113866579D01*
X134655728Y-113948303D01*
X134800000Y-113977000D01*
X137961053Y-113977000D01*
X138072729Y-114088871D01*
X138284724Y-114176900D01*
X138514269Y-114177100D01*
X138726417Y-114089442D01*
X138888871Y-113927271D01*
X138976900Y-113715276D01*
X138977100Y-113485731D01*
X138889442Y-113273583D01*
X138727271Y-113111129D01*
X138515276Y-113023100D01*
X138285731Y-113022900D01*
X138073583Y-113110558D01*
X137960945Y-113223000D01*
X134956158Y-113223000D01*
X133776962Y-112043804D01*
X133777100Y-111885731D01*
X133689442Y-111673583D01*
X133527271Y-111511129D01*
X133315276Y-111423100D01*
X133085731Y-111422900D01*
X132873583Y-111510558D01*
X132711129Y-111672729D01*
X132623100Y-111884724D01*
X132623004Y-111994858D01*
X129611557Y-108983411D01*
X129489250Y-108901687D01*
X129344978Y-108872990D01*
X115655022Y-108872990D01*
X115510750Y-108901687D01*
X115388442Y-108983411D01*
X111483420Y-112888434D01*
X111401696Y-113010741D01*
X111372999Y-113155013D01*
X111372999Y-113561053D01*
X111261128Y-113672729D01*
X111173099Y-113884724D01*
X111172899Y-114114269D01*
X100327000Y-114114269D01*
X100327000Y-103032207D01*
X100536389Y-101979538D01*
X101114434Y-101114434D01*
X101979539Y-100536388D01*
X103032208Y-100327000D01*
X116500000Y-100327000D01*
X116531587Y-100320717D01*
X116563794Y-100320717D01*
X117711845Y-100092356D01*
X117829721Y-100043530D01*
X117829722Y-100043529D01*
X118802991Y-99393211D01*
X118893210Y-99302992D01*
X119543529Y-98329722D01*
X119543530Y-98329721D01*
X119563754Y-98280896D01*
X119592356Y-98211846D01*
X119592356Y-98211844D01*
X119773253Y-97302407D01*
X120947735Y-97302407D01*
X121179717Y-97863846D01*
X121608894Y-98293773D01*
X122169928Y-98526735D01*
X122777407Y-98527265D01*
X123338846Y-98295283D01*
X123768773Y-97866106D01*
X124001735Y-97305072D01*
X124002265Y-96697593D01*
X123770283Y-96136154D01*
X123341106Y-95706227D01*
X122780072Y-95473265D01*
X122172593Y-95472735D01*
X121611154Y-95704717D01*
X121181227Y-96133894D01*
X120948265Y-96694928D01*
X120947735Y-97302407D01*
X119773253Y-97302407D01*
X119820717Y-97063794D01*
X120036389Y-95979538D01*
X120614434Y-95114434D01*
X121479539Y-94536388D01*
X122500000Y-94333406D01*
X123520462Y-94536389D01*
X123520462Y-94536389D01*
G37*
X123520462Y-94536389D02*
X124385566Y-95114434D01*
X124963612Y-95979539D01*
X125179283Y-97063794D01*
X125407644Y-98211845D01*
X125456470Y-98329721D01*
X125456471Y-98329722D01*
X126106789Y-99302991D01*
X126197008Y-99393210D01*
X127170278Y-100043529D01*
X127170279Y-100043530D01*
X127219104Y-100063754D01*
X127288154Y-100092356D01*
X127288156Y-100092356D01*
X128436206Y-100320717D01*
X128468413Y-100320717D01*
X128500000Y-100327000D01*
X141967793Y-100327000D01*
X143020462Y-100536389D01*
X143885566Y-101114434D01*
X144463612Y-101979539D01*
X144673000Y-103032208D01*
X144673000Y-141967792D01*
X144463612Y-143020461D01*
X143885566Y-143885566D01*
X143020462Y-144463611D01*
X141967793Y-144673000D01*
X103032208Y-144673000D01*
X101979539Y-144463612D01*
X101114434Y-143885566D01*
X100536389Y-143020462D01*
X100327000Y-141967793D01*
X100327000Y-125062470D01*
X100560529Y-125062470D01*
X100560530Y-125062475D01*
X100560530Y-141137525D01*
X100560529Y-141137530D01*
X100604452Y-141358338D01*
X100729529Y-141545531D01*
X102791999Y-143608001D01*
X102979192Y-143733078D01*
X103200000Y-143777001D01*
X103200005Y-143777000D01*
X111355821Y-143777000D01*
X111390486Y-143811725D01*
X111655755Y-143921875D01*
X111942985Y-143922125D01*
X112208446Y-143812439D01*
X112411725Y-143609514D01*
X112521875Y-143344245D01*
X112522125Y-143057015D01*
X112412439Y-142791554D01*
X112209514Y-142588275D01*
X111944245Y-142478125D01*
X111657015Y-142477875D01*
X111391554Y-142587561D01*
X111356053Y-142623000D01*
X103439002Y-142623000D01*
X101714530Y-140898528D01*
X101714530Y-140681968D01*
X101769585Y-140718754D01*
X102066930Y-140777900D01*
X102658150Y-140777900D01*
X102955495Y-140718754D01*
X103207572Y-140550322D01*
X103376004Y-140298245D01*
X103435150Y-140000900D01*
X103376004Y-139703555D01*
X103207572Y-139451478D01*
X102955495Y-139283046D01*
X102658150Y-139223900D01*
X102066930Y-139223900D01*
X101769585Y-139283046D01*
X101714530Y-139319832D01*
X101714530Y-138833229D01*
X104310540Y-138833229D01*
X104310540Y-139168571D01*
X104367783Y-139456349D01*
X104530796Y-139700315D01*
X104774762Y-139863328D01*
X105062540Y-139920571D01*
X105350318Y-139863328D01*
X105594284Y-139700315D01*
X105757297Y-139456349D01*
X105814540Y-139168571D01*
X105814540Y-138833229D01*
X105757297Y-138545451D01*
X105594284Y-138301485D01*
X105350318Y-138138472D01*
X105062540Y-138081229D01*
X104774762Y-138138472D01*
X104530796Y-138301485D01*
X104367783Y-138545451D01*
X104310540Y-138833229D01*
X101714530Y-138833229D01*
X101714530Y-133833229D01*
X104310540Y-133833229D01*
X104310540Y-134168571D01*
X104367783Y-134456349D01*
X104530796Y-134700315D01*
X104774762Y-134863328D01*
X105062540Y-134920571D01*
X105350318Y-134863328D01*
X105594284Y-134700315D01*
X105757297Y-134456349D01*
X105814540Y-134168571D01*
X105814540Y-133833229D01*
X105757297Y-133545451D01*
X105594284Y-133301485D01*
X105350318Y-133138472D01*
X105062540Y-133081229D01*
X104774762Y-133138472D01*
X104530796Y-133301485D01*
X104367783Y-133545451D01*
X104310540Y-133833229D01*
X101714530Y-133833229D01*
X101714530Y-133681968D01*
X101769585Y-133718754D01*
X102066930Y-133777900D01*
X102658150Y-133777900D01*
X102955495Y-133718754D01*
X103207572Y-133550322D01*
X103376004Y-133298245D01*
X103435150Y-133000900D01*
X103376004Y-132703555D01*
X103207572Y-132451478D01*
X102955495Y-132283046D01*
X102658150Y-132223900D01*
X102066930Y-132223900D01*
X101769585Y-132283046D01*
X101714530Y-132319832D01*
X101714530Y-125301472D01*
X102493919Y-124522082D01*
X102542985Y-124522125D01*
X102808446Y-124412439D01*
X103011725Y-124209514D01*
X103121875Y-123944245D01*
X103122125Y-123657015D01*
X103012439Y-123391554D01*
X102809514Y-123188275D01*
X102544245Y-123078125D01*
X102257015Y-123077875D01*
X101991554Y-123187561D01*
X101788275Y-123390486D01*
X101678125Y-123655755D01*
X101678081Y-123705917D01*
X100729529Y-124654469D01*
X100604452Y-124841662D01*
X100560529Y-125062470D01*
X100327000Y-125062470D01*
X100327000Y-114114269D01*
X111172899Y-114114269D01*
X111260557Y-114326417D01*
X111422728Y-114488871D01*
X111634723Y-114576900D01*
X111864268Y-114577100D01*
X112023000Y-114511513D01*
X112023000Y-114749016D01*
X111951696Y-114855729D01*
X111922999Y-115000001D01*
X111922999Y-115422932D01*
X111885731Y-115422900D01*
X111673583Y-115510558D01*
X111511129Y-115672729D01*
X111423100Y-115884724D01*
X111422900Y-116114269D01*
X111510558Y-116326417D01*
X111672729Y-116488871D01*
X111884724Y-116576900D01*
X112114269Y-116577100D01*
X112326417Y-116489442D01*
X112488871Y-116327271D01*
X112576900Y-116115276D01*
X112577043Y-115950919D01*
X112621273Y-115884724D01*
X112648302Y-115844273D01*
X112676999Y-115700001D01*
X112676999Y-115150985D01*
X112748303Y-115044272D01*
X112777000Y-114900000D01*
X112777000Y-113156158D01*
X115956158Y-109977000D01*
X129043842Y-109977000D01*
X135623000Y-116556158D01*
X135623000Y-133000000D01*
X135651697Y-133144272D01*
X135733421Y-133266579D01*
X136023038Y-133556196D01*
X136022900Y-133714269D01*
X136110558Y-133926417D01*
X136272729Y-134088871D01*
X136484724Y-134176900D01*
X136607018Y-134177007D01*
X136511129Y-134272729D01*
X136476142Y-134356986D01*
X135377000Y-133257844D01*
X135377000Y-122238947D01*
X135488871Y-122127271D01*
X135576900Y-121915276D01*
X135577100Y-121685731D01*
X135489442Y-121473583D01*
X135327271Y-121311129D01*
X135115276Y-121223100D01*
X134885731Y-121222900D01*
X134673583Y-121310558D01*
X134511129Y-121472729D01*
X134423100Y-121684724D01*
X134422900Y-121914269D01*
X134510558Y-122126417D01*
X134623000Y-122239055D01*
X134623000Y-123159843D01*
X133746961Y-122283805D01*
X133747099Y-122125732D01*
X133659441Y-121913584D01*
X133497270Y-121751130D01*
X133285275Y-121663101D01*
X133055730Y-121662901D01*
X132843582Y-121750559D01*
X132681128Y-121912730D01*
X132593099Y-122124725D01*
X132592899Y-122354270D01*
X132621305Y-122423018D01*
X132485731Y-122422900D01*
X132273583Y-122510558D01*
X132111129Y-122672729D01*
X132023100Y-122884724D01*
X132022900Y-123114269D01*
X132110558Y-123326417D01*
X132223000Y-123439055D01*
X132223000Y-127350000D01*
X132251697Y-127494272D01*
X132333421Y-127616579D01*
X132339789Y-127622947D01*
X132285731Y-127622900D01*
X132073583Y-127710558D01*
X131911129Y-127872729D01*
X131823100Y-128084724D01*
X131822900Y-128314269D01*
X131910558Y-128526417D01*
X132072729Y-128688871D01*
X132284724Y-128776900D01*
X132302335Y-128776915D01*
X133123000Y-129597580D01*
X133123000Y-131402420D01*
X130802420Y-133723000D01*
X115197580Y-133723000D01*
X112977085Y-131502505D01*
X112977100Y-131485731D01*
X112889442Y-131273583D01*
X112727271Y-131111129D01*
X112515276Y-131023100D01*
X112285731Y-131022900D01*
X112073583Y-131110558D01*
X111911129Y-131272729D01*
X111823100Y-131484724D01*
X111822900Y-131714269D01*
X111910558Y-131926417D01*
X112072729Y-132088871D01*
X112284724Y-132176900D01*
X112302335Y-132176915D01*
X114662710Y-134537290D01*
X114817459Y-134640691D01*
X115000000Y-134677000D01*
X130523000Y-134677000D01*
X130523000Y-136202420D01*
X125377045Y-141348375D01*
X125377100Y-141285731D01*
X125289442Y-141073583D01*
X125127271Y-140911129D01*
X124915276Y-140823100D01*
X124685731Y-140822900D01*
X124473583Y-140910558D01*
X124311129Y-141072729D01*
X124223100Y-141284724D01*
X124222961Y-141443881D01*
X123443842Y-142223000D01*
X121700000Y-142223000D01*
X121555728Y-142251697D01*
X121433420Y-142333421D01*
X121143842Y-142623000D01*
X120956159Y-142623000D01*
X120666581Y-142333423D01*
X120666579Y-142333420D01*
X120576962Y-142243803D01*
X120577100Y-142085731D01*
X120489442Y-141873583D01*
X120327271Y-141711129D01*
X120115276Y-141623100D01*
X119885731Y-141622900D01*
X119673583Y-141710558D01*
X119511129Y-141872729D01*
X119423100Y-142084724D01*
X119422900Y-142314269D01*
X119510558Y-142526417D01*
X119672729Y-142688871D01*
X119884724Y-142776900D01*
X120043880Y-142777039D01*
X120133420Y-142866579D01*
X120133423Y-142866581D01*
X120533420Y-143266579D01*
X120627918Y-143329721D01*
X120655728Y-143348303D01*
X120800000Y-143377000D01*
X121300000Y-143377000D01*
X121444272Y-143348303D01*
X121566579Y-143266579D01*
X121856159Y-142977000D01*
X123600000Y-142977000D01*
X123744272Y-142948303D01*
X123866579Y-142866579D01*
X124756196Y-141976962D01*
X124823020Y-141977020D01*
X124822900Y-142114269D01*
X124910558Y-142326417D01*
X125072729Y-142488871D01*
X125284724Y-142576900D01*
X125514269Y-142577100D01*
X125726417Y-142489442D01*
X125888871Y-142327271D01*
X125976900Y-142115276D01*
X125976915Y-142097665D01*
X131337290Y-136737290D01*
X131440691Y-136582540D01*
X131477000Y-136400000D01*
X131477000Y-134397580D01*
X133687001Y-132187579D01*
X133687001Y-134664001D01*
X133715698Y-134808273D01*
X133797422Y-134930580D01*
X136823038Y-137956196D01*
X136822900Y-138114269D01*
X136910558Y-138326417D01*
X137072729Y-138488871D01*
X137284724Y-138576900D01*
X137514269Y-138577100D01*
X137726417Y-138489442D01*
X137888871Y-138327271D01*
X137976900Y-138115276D01*
X137977100Y-137885731D01*
X137889442Y-137673583D01*
X137793022Y-137576994D01*
X137914269Y-137577100D01*
X138126417Y-137489442D01*
X138288871Y-137327271D01*
X138376900Y-137115276D01*
X138377100Y-136885731D01*
X138289442Y-136673583D01*
X138127271Y-136511129D01*
X138100667Y-136500082D01*
X138126417Y-136489442D01*
X138288871Y-136327271D01*
X138376900Y-136115276D01*
X138377100Y-135885731D01*
X138289442Y-135673583D01*
X138127271Y-135511129D01*
X137915276Y-135423100D01*
X137685731Y-135422900D01*
X137584065Y-135464908D01*
X137243047Y-135123890D01*
X137326417Y-135089442D01*
X137488871Y-134927271D01*
X137576900Y-134715276D01*
X137577100Y-134485731D01*
X137527001Y-134364482D01*
X137527001Y-117055013D01*
X137498304Y-116910741D01*
X137416580Y-116788433D01*
X133205151Y-112577005D01*
X133243881Y-112577039D01*
X134533421Y-113866579D01*
X134655728Y-113948303D01*
X134800000Y-113977000D01*
X137961053Y-113977000D01*
X138072729Y-114088871D01*
X138284724Y-114176900D01*
X138514269Y-114177100D01*
X138726417Y-114089442D01*
X138888871Y-113927271D01*
X138976900Y-113715276D01*
X138977100Y-113485731D01*
X138889442Y-113273583D01*
X138727271Y-113111129D01*
X138515276Y-113023100D01*
X138285731Y-113022900D01*
X138073583Y-113110558D01*
X137960945Y-113223000D01*
X134956158Y-113223000D01*
X133776962Y-112043804D01*
X133777100Y-111885731D01*
X133689442Y-111673583D01*
X133527271Y-111511129D01*
X133315276Y-111423100D01*
X133085731Y-111422900D01*
X132873583Y-111510558D01*
X132711129Y-111672729D01*
X132623100Y-111884724D01*
X132623004Y-111994858D01*
X129611557Y-108983411D01*
X129489250Y-108901687D01*
X129344978Y-108872990D01*
X115655022Y-108872990D01*
X115510750Y-108901687D01*
X115388442Y-108983411D01*
X111483420Y-112888434D01*
X111401696Y-113010741D01*
X111372999Y-113155013D01*
X111372999Y-113561053D01*
X111261128Y-113672729D01*
X111173099Y-113884724D01*
X111172899Y-114114269D01*
X100327000Y-114114269D01*
X100327000Y-103032207D01*
X100536389Y-101979538D01*
X101114434Y-101114434D01*
X101979539Y-100536388D01*
X103032208Y-100327000D01*
X116500000Y-100327000D01*
X116531587Y-100320717D01*
X116563794Y-100320717D01*
X117711845Y-100092356D01*
X117829721Y-100043530D01*
X117829722Y-100043529D01*
X118802991Y-99393211D01*
X118893210Y-99302992D01*
X119543529Y-98329722D01*
X119543530Y-98329721D01*
X119563754Y-98280896D01*
X119592356Y-98211846D01*
X119592356Y-98211844D01*
X119773253Y-97302407D01*
X120947735Y-97302407D01*
X121179717Y-97863846D01*
X121608894Y-98293773D01*
X122169928Y-98526735D01*
X122777407Y-98527265D01*
X123338846Y-98295283D01*
X123768773Y-97866106D01*
X124001735Y-97305072D01*
X124002265Y-96697593D01*
X123770283Y-96136154D01*
X123341106Y-95706227D01*
X122780072Y-95473265D01*
X122172593Y-95472735D01*
X121611154Y-95704717D01*
X121181227Y-96133894D01*
X120948265Y-96694928D01*
X120947735Y-97302407D01*
X119773253Y-97302407D01*
X119820717Y-97063794D01*
X120036389Y-95979538D01*
X120614434Y-95114434D01*
X121479539Y-94536388D01*
X122500000Y-94333406D01*
X123520462Y-94536389D01*
G36*
X133213879Y-122817040D02*
X134272990Y-123876151D01*
X134272990Y-128903422D01*
X133327001Y-127957433D01*
X133327001Y-127700001D01*
X133298304Y-127555729D01*
X133216580Y-127433422D01*
X132977000Y-127193842D01*
X132977000Y-123438947D01*
X133088871Y-123327271D01*
X133176900Y-123115276D01*
X133177100Y-122885731D01*
X133148694Y-122816983D01*
X133213879Y-122817040D01*
X133213879Y-122817040D01*
G37*
X133213879Y-122817040D02*
X134272990Y-123876151D01*
X134272990Y-128903422D01*
X133327001Y-127957433D01*
X133327001Y-127700001D01*
X133298304Y-127555729D01*
X133216580Y-127433422D01*
X132977000Y-127193842D01*
X132977000Y-123438947D01*
X133088871Y-123327271D01*
X133176900Y-123115276D01*
X133177100Y-122885731D01*
X133148694Y-122816983D01*
X133213879Y-122817040D01*
M02*
