G04 #@! TF.FileFunction,Soldermask,Bot*
%FSLAX46Y46*%
G04 Gerber Fmt 4.6, Leading zero omitted, Abs format (unit mm)*
G04 Created by KiCad (PCBNEW 4.0.4-stable) date 02/01/17 13:50:24*
%MOMM*%
%LPD*%
G01*
G04 APERTURE LIST*
%ADD10C,0.100000*%
%ADD11R,0.600000X0.700000*%
%ADD12R,0.700000X0.600000*%
%ADD13R,1.000000X1.000000*%
%ADD14R,0.797560X0.797560*%
%ADD15R,1.600200X1.803400*%
%ADD16R,1.500000X1.300000*%
%ADD17R,1.350000X0.400000*%
%ADD18O,0.950000X1.250000*%
%ADD19O,1.550000X1.000000*%
%ADD20R,1.060000X0.650000*%
%ADD21R,0.400000X1.200000*%
%ADD22R,2.500000X1.100000*%
%ADD23O,2.500000X1.100000*%
%ADD24O,1.100000X2.400000*%
%ADD25R,1.300000X1.550000*%
%ADD26R,1.500000X1.200000*%
%ADD27R,1.250000X1.000000*%
%ADD28R,1.000000X1.250000*%
%ADD29R,1.550000X0.600000*%
%ADD30R,1.800000X1.200000*%
G04 APERTURE END LIST*
D10*
D11*
X108600000Y-127600000D03*
X108600000Y-128800000D03*
X136200000Y-126400000D03*
X136200000Y-127600000D03*
D12*
X110200000Y-124200000D03*
X111400000Y-124200000D03*
X111800000Y-118800000D03*
X110600000Y-118800000D03*
X110000000Y-130200000D03*
X108800000Y-130200000D03*
D11*
X136200000Y-125400000D03*
X136200000Y-124200000D03*
D12*
X110200000Y-122600000D03*
X111400000Y-122600000D03*
D13*
X133600000Y-119150000D03*
X133600000Y-120450000D03*
D11*
X109500000Y-143100000D03*
X109500000Y-141900000D03*
D12*
X104400000Y-129400000D03*
X105600000Y-129400000D03*
D11*
X112400000Y-138800000D03*
X112400000Y-137600000D03*
X112400000Y-135400000D03*
X112400000Y-136600000D03*
X124450000Y-143550000D03*
X124450000Y-142350000D03*
D12*
X116200000Y-141400000D03*
X115000000Y-141400000D03*
D14*
X110200000Y-127450700D03*
X110200000Y-128949300D03*
X128500000Y-137400000D03*
X127001400Y-137400000D03*
X128549300Y-134800000D03*
X127050700Y-134800000D03*
D15*
X112397000Y-140500000D03*
X109603000Y-140500000D03*
D16*
X118350000Y-143200000D03*
X115650000Y-143200000D03*
D17*
X105062540Y-137800900D03*
X105062540Y-137150900D03*
X105062540Y-136500900D03*
X105062540Y-135850900D03*
X105062540Y-135200900D03*
D18*
X105062540Y-139000900D03*
X105062540Y-134000900D03*
D19*
X102362540Y-140000900D03*
X102362540Y-133000900D03*
D12*
X117400000Y-132200000D03*
X118600000Y-132200000D03*
D11*
X120800000Y-131200000D03*
X120800000Y-132400000D03*
D12*
X114800000Y-137800000D03*
X113600000Y-137800000D03*
X114800000Y-136400000D03*
X113600000Y-136400000D03*
X131000000Y-137400000D03*
X129800000Y-137400000D03*
X131000000Y-134800000D03*
X129800000Y-134800000D03*
D20*
X104700000Y-127550000D03*
X104700000Y-126600000D03*
X104700000Y-125650000D03*
X106900000Y-125650000D03*
X106900000Y-127550000D03*
D21*
X118777500Y-135400000D03*
X119412500Y-135400000D03*
X120047500Y-135400000D03*
X120682500Y-135400000D03*
X121317500Y-135400000D03*
X121952500Y-135400000D03*
X122587500Y-135400000D03*
X123222500Y-135400000D03*
X123222500Y-140600000D03*
X122587500Y-140600000D03*
X121952500Y-140600000D03*
X121317500Y-140600000D03*
X120682500Y-140600000D03*
X120047500Y-140600000D03*
X119412500Y-140600000D03*
X118777500Y-140600000D03*
D22*
X130200000Y-110000000D03*
D23*
X130200000Y-112000000D03*
X130200000Y-114000000D03*
X130200000Y-116000000D03*
X130200000Y-118000000D03*
X130200000Y-120000000D03*
X130200000Y-122000000D03*
X130200000Y-124000000D03*
D24*
X127510000Y-125750000D03*
X125510000Y-125750000D03*
X123510000Y-125750000D03*
X121510000Y-125750000D03*
X119510000Y-125750000D03*
X117510000Y-125750000D03*
D23*
X114800000Y-124000000D03*
X114900000Y-122000000D03*
X114800000Y-120000000D03*
X114800000Y-118000000D03*
X114800000Y-116000000D03*
X114800000Y-114000000D03*
X114800000Y-112000000D03*
X114800000Y-110000000D03*
D25*
X141250000Y-119750000D03*
X136750000Y-119750000D03*
X136750000Y-110250000D03*
X141250000Y-110250000D03*
X103750000Y-110250000D03*
X108250000Y-110250000D03*
X108250000Y-119750000D03*
X103750000Y-119750000D03*
D14*
X132700000Y-140950700D03*
X132700000Y-142449300D03*
D11*
X132700000Y-138400000D03*
X132700000Y-139600000D03*
D26*
X107250000Y-123800000D03*
X104350000Y-123800000D03*
D27*
X133600000Y-126250000D03*
X133600000Y-124250000D03*
D28*
X122800000Y-143400000D03*
X120800000Y-143400000D03*
D29*
X139562500Y-132000000D03*
X139562500Y-133000000D03*
X139562500Y-134000000D03*
X139562500Y-135000000D03*
X139562500Y-136000000D03*
X139562500Y-137000000D03*
X139562500Y-138000000D03*
X139562500Y-139000000D03*
D30*
X143437500Y-130700000D03*
X143437500Y-140300000D03*
M02*
