G04 #@! TF.FileFunction,Legend,Bot*
%FSLAX46Y46*%
G04 Gerber Fmt 4.6, Leading zero omitted, Abs format (unit mm)*
G04 Created by KiCad (PCBNEW 4.0.4-stable) date 01/29/17 20:31:17*
%MOMM*%
%LPD*%
G01*
G04 APERTURE LIST*
%ADD10C,0.100000*%
%ADD11C,0.250000*%
%ADD12C,0.300000*%
%ADD13C,0.150000*%
%ADD14C,0.203200*%
%ADD15C,0.127000*%
%ADD16C,0.152400*%
%ADD17C,0.170000*%
%ADD18C,0.119380*%
%ADD19C,0.125000*%
G04 APERTURE END LIST*
D10*
X137225000Y-140250000D02*
X138400000Y-139075000D01*
X136475000Y-138525000D02*
X138375000Y-138025000D01*
X136575000Y-136900000D02*
X138600000Y-137050000D01*
X136600000Y-135300000D02*
X138425000Y-136025000D01*
X136150000Y-133825000D02*
X138400000Y-134950000D01*
X136375000Y-132025000D02*
X138500000Y-133925000D01*
D11*
X135259523Y-131360714D02*
X135259523Y-132027381D01*
X135497619Y-130979762D02*
X135735714Y-131694048D01*
X135116666Y-131694048D01*
X135211904Y-132777381D02*
X135688095Y-132777381D01*
X135735714Y-133253571D01*
X135688095Y-133205952D01*
X135592857Y-133158333D01*
X135354761Y-133158333D01*
X135259523Y-133205952D01*
X135211904Y-133253571D01*
X135164285Y-133348810D01*
X135164285Y-133586905D01*
X135211904Y-133682143D01*
X135259523Y-133729762D01*
X135354761Y-133777381D01*
X135592857Y-133777381D01*
X135688095Y-133729762D01*
X135735714Y-133682143D01*
X135640476Y-135527381D02*
X136211905Y-135527381D01*
X135926191Y-135527381D02*
X135926191Y-134527381D01*
X136021429Y-134670238D01*
X136116667Y-134765476D01*
X136211905Y-134813095D01*
X134783333Y-134860714D02*
X134783333Y-135527381D01*
X135021429Y-134479762D02*
X135259524Y-135194048D01*
X134640476Y-135194048D01*
X135640476Y-137277381D02*
X136211905Y-137277381D01*
X135926191Y-137277381D02*
X135926191Y-136277381D01*
X136021429Y-136420238D01*
X136116667Y-136515476D01*
X136211905Y-136563095D01*
X135259524Y-136372619D02*
X135211905Y-136325000D01*
X135116667Y-136277381D01*
X134878571Y-136277381D01*
X134783333Y-136325000D01*
X134735714Y-136372619D01*
X134688095Y-136467857D01*
X134688095Y-136563095D01*
X134735714Y-136705952D01*
X135307143Y-137277381D01*
X134688095Y-137277381D01*
X135640476Y-139027381D02*
X136211905Y-139027381D01*
X135926191Y-139027381D02*
X135926191Y-138027381D01*
X136021429Y-138170238D01*
X136116667Y-138265476D01*
X136211905Y-138313095D01*
X135307143Y-138027381D02*
X134688095Y-138027381D01*
X135021429Y-138408333D01*
X134878571Y-138408333D01*
X134783333Y-138455952D01*
X134735714Y-138503571D01*
X134688095Y-138598810D01*
X134688095Y-138836905D01*
X134735714Y-138932143D01*
X134783333Y-138979762D01*
X134878571Y-139027381D01*
X135164286Y-139027381D01*
X135259524Y-138979762D01*
X135307143Y-138932143D01*
X136688095Y-140491667D02*
X136211904Y-140491667D01*
X136783333Y-140777381D02*
X136450000Y-139777381D01*
X136116666Y-140777381D01*
X135783333Y-140777381D02*
X135783333Y-139777381D01*
X135545238Y-139777381D01*
X135402380Y-139825000D01*
X135307142Y-139920238D01*
X135259523Y-140015476D01*
X135211904Y-140205952D01*
X135211904Y-140348810D01*
X135259523Y-140539286D01*
X135307142Y-140634524D01*
X135402380Y-140729762D01*
X135545238Y-140777381D01*
X135783333Y-140777381D01*
X134211904Y-140682143D02*
X134259523Y-140729762D01*
X134402380Y-140777381D01*
X134497618Y-140777381D01*
X134640476Y-140729762D01*
X134735714Y-140634524D01*
X134783333Y-140539286D01*
X134830952Y-140348810D01*
X134830952Y-140205952D01*
X134783333Y-140015476D01*
X134735714Y-139920238D01*
X134640476Y-139825000D01*
X134497618Y-139777381D01*
X134402380Y-139777381D01*
X134259523Y-139825000D01*
X134211904Y-139872619D01*
D12*
X108278571Y-102864286D02*
X107878571Y-102864286D01*
X107707142Y-103492857D02*
X108278571Y-103492857D01*
X108278571Y-102292857D01*
X107707142Y-102292857D01*
X107250000Y-103435714D02*
X107078571Y-103492857D01*
X106792857Y-103492857D01*
X106678571Y-103435714D01*
X106621428Y-103378571D01*
X106564285Y-103264286D01*
X106564285Y-103150000D01*
X106621428Y-103035714D01*
X106678571Y-102978571D01*
X106792857Y-102921429D01*
X107021428Y-102864286D01*
X107135714Y-102807143D01*
X107192857Y-102750000D01*
X107250000Y-102635714D01*
X107250000Y-102521429D01*
X107192857Y-102407143D01*
X107135714Y-102350000D01*
X107021428Y-102292857D01*
X106735714Y-102292857D01*
X106564285Y-102350000D01*
X106050000Y-103492857D02*
X106050000Y-102292857D01*
X105592857Y-102292857D01*
X105478571Y-102350000D01*
X105421428Y-102407143D01*
X105364285Y-102521429D01*
X105364285Y-102692857D01*
X105421428Y-102807143D01*
X105478571Y-102864286D01*
X105592857Y-102921429D01*
X106050000Y-102921429D01*
X111478571Y-104964286D02*
X111078571Y-104964286D01*
X110907142Y-105592857D02*
X111478571Y-105592857D01*
X111478571Y-104392857D01*
X110907142Y-104392857D01*
X110507142Y-104792857D02*
X110221428Y-105592857D01*
X109935714Y-104792857D01*
X109021428Y-105535714D02*
X109135714Y-105592857D01*
X109364285Y-105592857D01*
X109478571Y-105535714D01*
X109535714Y-105421429D01*
X109535714Y-104964286D01*
X109478571Y-104850000D01*
X109364285Y-104792857D01*
X109135714Y-104792857D01*
X109021428Y-104850000D01*
X108964285Y-104964286D01*
X108964285Y-105078571D01*
X109535714Y-105192857D01*
X108450000Y-105592857D02*
X108450000Y-104792857D01*
X108450000Y-105021429D02*
X108392857Y-104907143D01*
X108335714Y-104850000D01*
X108221428Y-104792857D01*
X108107143Y-104792857D01*
X107821428Y-104792857D02*
X107535714Y-105592857D01*
X107250000Y-104792857D02*
X107535714Y-105592857D01*
X107650000Y-105878571D01*
X107707143Y-105935714D01*
X107821428Y-105992857D01*
X106907142Y-104792857D02*
X106678571Y-105592857D01*
X106450000Y-105021429D01*
X106221428Y-105592857D01*
X105992857Y-104792857D01*
X105535714Y-105592857D02*
X105535714Y-104392857D01*
X105021428Y-105592857D02*
X105021428Y-104964286D01*
X105078571Y-104850000D01*
X105192857Y-104792857D01*
X105364285Y-104792857D01*
X105478571Y-104850000D01*
X105535714Y-104907143D01*
X103992857Y-105535714D02*
X104107143Y-105592857D01*
X104335714Y-105592857D01*
X104450000Y-105535714D01*
X104507143Y-105421429D01*
X104507143Y-104964286D01*
X104450000Y-104850000D01*
X104335714Y-104792857D01*
X104107143Y-104792857D01*
X103992857Y-104850000D01*
X103935714Y-104964286D01*
X103935714Y-105078571D01*
X104507143Y-105192857D01*
X103421429Y-105592857D02*
X103421429Y-104792857D01*
X103421429Y-105021429D02*
X103364286Y-104907143D01*
X103307143Y-104850000D01*
X103192857Y-104792857D01*
X103078572Y-104792857D01*
X102221429Y-105535714D02*
X102335715Y-105592857D01*
X102564286Y-105592857D01*
X102678572Y-105535714D01*
X102735715Y-105421429D01*
X102735715Y-104964286D01*
X102678572Y-104850000D01*
X102564286Y-104792857D01*
X102335715Y-104792857D01*
X102221429Y-104850000D01*
X102164286Y-104964286D01*
X102164286Y-105078571D01*
X102735715Y-105192857D01*
X143971428Y-104542857D02*
X143971428Y-103342857D01*
X142885713Y-104542857D02*
X142885713Y-103342857D01*
X142885713Y-104485714D02*
X142999999Y-104542857D01*
X143228570Y-104542857D01*
X143342856Y-104485714D01*
X143399999Y-104428571D01*
X143457142Y-104314286D01*
X143457142Y-103971429D01*
X143399999Y-103857143D01*
X143342856Y-103800000D01*
X143228570Y-103742857D01*
X142999999Y-103742857D01*
X142885713Y-103800000D01*
X142142856Y-104542857D02*
X142257142Y-104485714D01*
X142314285Y-104371429D01*
X142314285Y-103342857D01*
X141228571Y-104485714D02*
X141342857Y-104542857D01*
X141571428Y-104542857D01*
X141685714Y-104485714D01*
X141742857Y-104371429D01*
X141742857Y-103914286D01*
X141685714Y-103800000D01*
X141571428Y-103742857D01*
X141342857Y-103742857D01*
X141228571Y-103800000D01*
X141171428Y-103914286D01*
X141171428Y-104028571D01*
X141742857Y-104142857D01*
X140657143Y-104542857D02*
X140657143Y-103342857D01*
X140657143Y-103914286D02*
X139971428Y-103914286D01*
X139971428Y-104542857D02*
X139971428Y-103342857D01*
X138885714Y-104542857D02*
X138885714Y-103914286D01*
X138942857Y-103800000D01*
X139057143Y-103742857D01*
X139285714Y-103742857D01*
X139400000Y-103800000D01*
X138885714Y-104485714D02*
X139000000Y-104542857D01*
X139285714Y-104542857D01*
X139400000Y-104485714D01*
X139457143Y-104371429D01*
X139457143Y-104257143D01*
X139400000Y-104142857D01*
X139285714Y-104085714D01*
X139000000Y-104085714D01*
X138885714Y-104028571D01*
X138314286Y-103742857D02*
X138314286Y-104542857D01*
X138314286Y-103857143D02*
X138257143Y-103800000D01*
X138142857Y-103742857D01*
X137971429Y-103742857D01*
X137857143Y-103800000D01*
X137800000Y-103914286D01*
X137800000Y-104542857D01*
X136714286Y-104542857D02*
X136714286Y-103342857D01*
X136714286Y-104485714D02*
X136828572Y-104542857D01*
X137057143Y-104542857D01*
X137171429Y-104485714D01*
X137228572Y-104428571D01*
X137285715Y-104314286D01*
X137285715Y-103971429D01*
X137228572Y-103857143D01*
X137171429Y-103800000D01*
X137057143Y-103742857D01*
X136828572Y-103742857D01*
X136714286Y-103800000D01*
X136200001Y-104485714D02*
X136085715Y-104542857D01*
X135857143Y-104542857D01*
X135742858Y-104485714D01*
X135685715Y-104371429D01*
X135685715Y-104314286D01*
X135742858Y-104200000D01*
X135857143Y-104142857D01*
X136028572Y-104142857D01*
X136142858Y-104085714D01*
X136200001Y-103971429D01*
X136200001Y-103914286D01*
X136142858Y-103800000D01*
X136028572Y-103742857D01*
X135857143Y-103742857D01*
X135742858Y-103800000D01*
X135171429Y-104542857D02*
X135171429Y-103342857D01*
X134885714Y-103342857D01*
X134714286Y-103400000D01*
X134600000Y-103514286D01*
X134542857Y-103628571D01*
X134485714Y-103857143D01*
X134485714Y-104028571D01*
X134542857Y-104257143D01*
X134600000Y-104371429D01*
X134714286Y-104485714D01*
X134885714Y-104542857D01*
X135171429Y-104542857D01*
X133514286Y-104485714D02*
X133628572Y-104542857D01*
X133857143Y-104542857D01*
X133971429Y-104485714D01*
X134028572Y-104371429D01*
X134028572Y-103914286D01*
X133971429Y-103800000D01*
X133857143Y-103742857D01*
X133628572Y-103742857D01*
X133514286Y-103800000D01*
X133457143Y-103914286D01*
X133457143Y-104028571D01*
X134028572Y-104142857D01*
X133057143Y-103742857D02*
X132771429Y-104542857D01*
X132485715Y-103742857D01*
X132028572Y-104428571D02*
X131971429Y-104485714D01*
X132028572Y-104542857D01*
X132085715Y-104485714D01*
X132028572Y-104428571D01*
X132028572Y-104542857D01*
D13*
X108075000Y-128450000D02*
X108075000Y-127950000D01*
X109125000Y-127950000D02*
X109125000Y-128450000D01*
X139562500Y-133000000D02*
G75*
G03X139562500Y-133000000I-250000J0D01*
G01*
X144137500Y-133600000D02*
X144137500Y-139400000D01*
X142237500Y-132500000D02*
X139887500Y-132500000D01*
X139887500Y-132500000D02*
X139887500Y-133400000D01*
X139887500Y-133000000D02*
X141087500Y-133000000D01*
X141087500Y-133000000D02*
X141087500Y-133000000D01*
X141087500Y-133000000D02*
X139887500Y-133000000D01*
X139887500Y-133000000D02*
X139887500Y-133000000D01*
X140387500Y-133000000D02*
X140387500Y-133000000D01*
X140387500Y-133000000D02*
X140387500Y-132500000D01*
X140387500Y-132500000D02*
X140387500Y-132500000D01*
X140387500Y-132500000D02*
X140387500Y-133000000D01*
X141087500Y-133000000D02*
X141087500Y-133000000D01*
X141087500Y-133000000D02*
X141087500Y-132500000D01*
X141087500Y-132500000D02*
X141087500Y-132500000D01*
X141087500Y-132500000D02*
X141087500Y-133000000D01*
X142237500Y-140500000D02*
X139887500Y-140500000D01*
X139887500Y-140500000D02*
X139887500Y-139600000D01*
X139887500Y-140000000D02*
X141087500Y-140000000D01*
X141087500Y-140000000D02*
X141087500Y-140000000D01*
X141087500Y-140000000D02*
X139887500Y-140000000D01*
X139887500Y-140000000D02*
X139887500Y-140000000D01*
X140387500Y-140000000D02*
X140387500Y-140000000D01*
X140387500Y-140000000D02*
X140387500Y-140500000D01*
X140387500Y-140500000D02*
X140387500Y-140500000D01*
X140387500Y-140500000D02*
X140387500Y-140000000D01*
X141087500Y-140000000D02*
X141087500Y-140000000D01*
X141087500Y-140000000D02*
X141087500Y-140500000D01*
X141087500Y-140500000D02*
X141087500Y-140500000D01*
X141087500Y-140500000D02*
X141087500Y-140000000D01*
X135675000Y-127250000D02*
X135675000Y-126750000D01*
X136725000Y-126750000D02*
X136725000Y-127250000D01*
X111050000Y-124725000D02*
X110550000Y-124725000D01*
X110550000Y-123675000D02*
X111050000Y-123675000D01*
X110950000Y-118275000D02*
X111450000Y-118275000D01*
X111450000Y-119325000D02*
X110950000Y-119325000D01*
X109150000Y-129675000D02*
X109650000Y-129675000D01*
X109650000Y-130725000D02*
X109150000Y-130725000D01*
X136725000Y-124550000D02*
X136725000Y-125050000D01*
X135675000Y-125050000D02*
X135675000Y-124550000D01*
X111050000Y-123125000D02*
X110550000Y-123125000D01*
X110550000Y-122075000D02*
X111050000Y-122075000D01*
D14*
X134616000Y-120054000D02*
X132584000Y-120054000D01*
X132584000Y-119546000D02*
X134616000Y-119546000D01*
X134616000Y-120054000D02*
G75*
G02X133600000Y-121070000I-1016000J0D01*
G01*
X133600000Y-121070000D02*
G75*
G02X132584000Y-120054000I0J1016000D01*
G01*
X132584000Y-119546000D02*
G75*
G02X133600000Y-118530000I1016000J0D01*
G01*
X133600000Y-118530000D02*
G75*
G02X134616000Y-119546000I0J-1016000D01*
G01*
D13*
X110025000Y-142250000D02*
X110025000Y-142750000D01*
X108975000Y-142750000D02*
X108975000Y-142250000D01*
X105250000Y-129925000D02*
X104750000Y-129925000D01*
X104750000Y-128875000D02*
X105250000Y-128875000D01*
X112925000Y-137950000D02*
X112925000Y-138450000D01*
X111875000Y-138450000D02*
X111875000Y-137950000D01*
X111875000Y-136250000D02*
X111875000Y-135750000D01*
X112925000Y-135750000D02*
X112925000Y-136250000D01*
X124975000Y-142700000D02*
X124975000Y-143200000D01*
X123925000Y-143200000D02*
X123925000Y-142700000D01*
X115350000Y-140875000D02*
X115850000Y-140875000D01*
X115850000Y-141925000D02*
X115350000Y-141925000D01*
D15*
X110700380Y-128499720D02*
X109699620Y-128499720D01*
X109699620Y-127900280D02*
X110700380Y-127900280D01*
X110299060Y-128200000D02*
X110100940Y-128200000D01*
X109999340Y-128100940D02*
X110400660Y-128100940D01*
X110400660Y-128100940D02*
X110200000Y-128299060D01*
X110200000Y-128299060D02*
X109999340Y-128100940D01*
X109699620Y-127399900D02*
X109699620Y-129000100D01*
X109699620Y-129000100D02*
X110700380Y-129000100D01*
X110700380Y-129000100D02*
X110700380Y-127399900D01*
X110700380Y-127399900D02*
X109699620Y-127399900D01*
X127450980Y-137900380D02*
X127450980Y-136899620D01*
X128050420Y-136899620D02*
X128050420Y-137900380D01*
X127750700Y-137499060D02*
X127750700Y-137300940D01*
X127849760Y-137199340D02*
X127849760Y-137600660D01*
X127849760Y-137600660D02*
X127651640Y-137400000D01*
X127651640Y-137400000D02*
X127849760Y-137199340D01*
X128550800Y-136899620D02*
X126950600Y-136899620D01*
X126950600Y-136899620D02*
X126950600Y-137900380D01*
X126950600Y-137900380D02*
X128550800Y-137900380D01*
X128550800Y-137900380D02*
X128550800Y-136899620D01*
X127500280Y-135300380D02*
X127500280Y-134299620D01*
X128099720Y-134299620D02*
X128099720Y-135300380D01*
X127800000Y-134899060D02*
X127800000Y-134700940D01*
X127899060Y-134599340D02*
X127899060Y-135000660D01*
X127899060Y-135000660D02*
X127700940Y-134800000D01*
X127700940Y-134800000D02*
X127899060Y-134599340D01*
X128600100Y-134299620D02*
X126999900Y-134299620D01*
X126999900Y-134299620D02*
X126999900Y-135300380D01*
X126999900Y-135300380D02*
X128600100Y-135300380D01*
X128600100Y-135300380D02*
X128600100Y-134299620D01*
X112143000Y-139687200D02*
X112143000Y-141312800D01*
X109857000Y-141312800D02*
X109857000Y-139687200D01*
X109399800Y-141312800D02*
X109399800Y-139687200D01*
X109399800Y-139687200D02*
X112600200Y-139687200D01*
X112600200Y-139687200D02*
X112600200Y-141312800D01*
X112600200Y-141312800D02*
X109399800Y-141312800D01*
D13*
X116400000Y-144075000D02*
X117600000Y-144075000D01*
X117600000Y-142325000D02*
X116400000Y-142325000D01*
X99682540Y-140850900D02*
X99682540Y-132150900D01*
X106087540Y-140850900D02*
X106087540Y-132150900D01*
X106087540Y-132150900D02*
X99682540Y-132150900D01*
X100912540Y-132150900D02*
X100912540Y-140850900D01*
X99682540Y-140850900D02*
X106087540Y-140850900D01*
X118250000Y-132725000D02*
X117750000Y-132725000D01*
X117750000Y-131675000D02*
X118250000Y-131675000D01*
X120275000Y-132050000D02*
X120275000Y-131550000D01*
X121325000Y-131550000D02*
X121325000Y-132050000D01*
X113950000Y-137275000D02*
X114450000Y-137275000D01*
X114450000Y-138325000D02*
X113950000Y-138325000D01*
X113950000Y-135875000D02*
X114450000Y-135875000D01*
X114450000Y-136925000D02*
X113950000Y-136925000D01*
X130150000Y-136875000D02*
X130650000Y-136875000D01*
X130650000Y-137925000D02*
X130150000Y-137925000D01*
X130150000Y-134275000D02*
X130650000Y-134275000D01*
X130650000Y-135325000D02*
X130150000Y-135325000D01*
X105600000Y-128300000D02*
G75*
G03X105600000Y-128300000I-100000J0D01*
G01*
X106050000Y-128050000D02*
X105550000Y-128050000D01*
X106050000Y-125150000D02*
X106050000Y-128050000D01*
X105550000Y-125150000D02*
X106050000Y-125150000D01*
X105550000Y-128050000D02*
X105550000Y-125150000D01*
X123647500Y-136000000D02*
X123647500Y-140000000D01*
X118352500Y-134725000D02*
X118352500Y-140000000D01*
D16*
X130516000Y-124859000D02*
X130516000Y-125621000D01*
X130516000Y-125621000D02*
X114514000Y-125621000D01*
X114514000Y-125621000D02*
X114514000Y-124859000D01*
D13*
X135800000Y-112400000D02*
X135800000Y-117800000D01*
X141800000Y-112000000D02*
X136200000Y-112000000D01*
X142200000Y-117800000D02*
X142200000Y-112400000D01*
X136200000Y-118200000D02*
X141800000Y-118200000D01*
X141800000Y-112000000D02*
X142200000Y-112400000D01*
X141800000Y-118200000D02*
X142200000Y-117800000D01*
X135800000Y-117800000D02*
X136200000Y-118200000D01*
X135800000Y-112400000D02*
X136200000Y-112000000D01*
X140750000Y-115000000D02*
G75*
G03X140750000Y-115000000I-1750000J0D01*
G01*
X139000000Y-112000000D02*
X139000000Y-112200000D01*
X142000000Y-115000000D02*
X142200000Y-115000000D01*
X139000000Y-118000000D02*
X139000000Y-118200000D01*
X136000000Y-115000000D02*
X135800000Y-115000000D01*
X109200000Y-117600000D02*
X109200000Y-112200000D01*
X103200000Y-118000000D02*
X108800000Y-118000000D01*
X102800000Y-112200000D02*
X102800000Y-117600000D01*
X108800000Y-111800000D02*
X103200000Y-111800000D01*
X103200000Y-118000000D02*
X102800000Y-117600000D01*
X103200000Y-111800000D02*
X102800000Y-112200000D01*
X109200000Y-112200000D02*
X108800000Y-111800000D01*
X109200000Y-117600000D02*
X108800000Y-118000000D01*
X107750000Y-115000000D02*
G75*
G03X107750000Y-115000000I-1750000J0D01*
G01*
X106000000Y-118000000D02*
X106000000Y-117800000D01*
X103000000Y-115000000D02*
X102800000Y-115000000D01*
X106000000Y-112000000D02*
X106000000Y-111800000D01*
X109000000Y-115000000D02*
X109200000Y-115000000D01*
D15*
X133200380Y-141999720D02*
X132199620Y-141999720D01*
X132199620Y-141400280D02*
X133200380Y-141400280D01*
X132799060Y-141700000D02*
X132600940Y-141700000D01*
X132499340Y-141600940D02*
X132900660Y-141600940D01*
X132900660Y-141600940D02*
X132700000Y-141799060D01*
X132700000Y-141799060D02*
X132499340Y-141600940D01*
X132199620Y-140899900D02*
X132199620Y-142500100D01*
X132199620Y-142500100D02*
X133200380Y-142500100D01*
X133200380Y-142500100D02*
X133200380Y-140899900D01*
X133200380Y-140899900D02*
X132199620Y-140899900D01*
D13*
X132175000Y-139250000D02*
X132175000Y-138750000D01*
X133225000Y-138750000D02*
X133225000Y-139250000D01*
D15*
X105445900Y-122999900D02*
X105445900Y-124600100D01*
X105372900Y-124600100D02*
X105372900Y-122999900D01*
X105299900Y-122999900D02*
X105299900Y-124600100D01*
X103945800Y-122999900D02*
X107654200Y-122999900D01*
X107654200Y-122999900D02*
X107654200Y-124600100D01*
X107654200Y-124600100D02*
X103945800Y-124600100D01*
X103945800Y-124600100D02*
X103945800Y-122999900D01*
D13*
X134450000Y-124750000D02*
X134450000Y-125750000D01*
X132750000Y-125750000D02*
X132750000Y-124750000D01*
X121300000Y-142550000D02*
X122300000Y-142550000D01*
X122300000Y-144250000D02*
X121300000Y-144250000D01*
X108814286Y-126500000D02*
X108842857Y-126471429D01*
X108871429Y-126385715D01*
X108871429Y-126328572D01*
X108842857Y-126242857D01*
X108785714Y-126185715D01*
X108728571Y-126157143D01*
X108614286Y-126128572D01*
X108528571Y-126128572D01*
X108414286Y-126157143D01*
X108357143Y-126185715D01*
X108300000Y-126242857D01*
X108271429Y-126328572D01*
X108271429Y-126385715D01*
X108300000Y-126471429D01*
X108328571Y-126500000D01*
X108271429Y-126700000D02*
X108271429Y-127071429D01*
X108500000Y-126871429D01*
X108500000Y-126957143D01*
X108528571Y-127014286D01*
X108557143Y-127042857D01*
X108614286Y-127071429D01*
X108757143Y-127071429D01*
X108814286Y-127042857D01*
X108842857Y-127014286D01*
X108871429Y-126957143D01*
X108871429Y-126785715D01*
X108842857Y-126728572D01*
X108814286Y-126700000D01*
X143538095Y-136927381D02*
X143538095Y-135927381D01*
X143157142Y-135927381D01*
X143061904Y-135975000D01*
X143014285Y-136022619D01*
X142966666Y-136117857D01*
X142966666Y-136260714D01*
X143014285Y-136355952D01*
X143061904Y-136403571D01*
X143157142Y-136451190D01*
X143538095Y-136451190D01*
X142633333Y-135927381D02*
X142014285Y-135927381D01*
X142347619Y-136308333D01*
X142204761Y-136308333D01*
X142109523Y-136355952D01*
X142061904Y-136403571D01*
X142014285Y-136498810D01*
X142014285Y-136736905D01*
X142061904Y-136832143D01*
X142109523Y-136879762D01*
X142204761Y-136927381D01*
X142490476Y-136927381D01*
X142585714Y-136879762D01*
X142633333Y-136832143D01*
X136471429Y-128500000D02*
X136185714Y-128300000D01*
X136471429Y-128157143D02*
X135871429Y-128157143D01*
X135871429Y-128385715D01*
X135900000Y-128442857D01*
X135928571Y-128471429D01*
X135985714Y-128500000D01*
X136071429Y-128500000D01*
X136128571Y-128471429D01*
X136157143Y-128442857D01*
X136185714Y-128385715D01*
X136185714Y-128157143D01*
X136471429Y-129071429D02*
X136471429Y-128728572D01*
X136471429Y-128900000D02*
X135871429Y-128900000D01*
X135957143Y-128842857D01*
X136014286Y-128785715D01*
X136042857Y-128728572D01*
X109300000Y-124471429D02*
X109500000Y-124185714D01*
X109642857Y-124471429D02*
X109642857Y-123871429D01*
X109414285Y-123871429D01*
X109357143Y-123900000D01*
X109328571Y-123928571D01*
X109300000Y-123985714D01*
X109300000Y-124071429D01*
X109328571Y-124128571D01*
X109357143Y-124157143D01*
X109414285Y-124185714D01*
X109642857Y-124185714D01*
X109071428Y-123928571D02*
X109042857Y-123900000D01*
X108985714Y-123871429D01*
X108842857Y-123871429D01*
X108785714Y-123900000D01*
X108757143Y-123928571D01*
X108728571Y-123985714D01*
X108728571Y-124042857D01*
X108757143Y-124128571D01*
X109100000Y-124471429D01*
X108728571Y-124471429D01*
X109550000Y-118971429D02*
X109750000Y-118685714D01*
X109892857Y-118971429D02*
X109892857Y-118371429D01*
X109664285Y-118371429D01*
X109607143Y-118400000D01*
X109578571Y-118428571D01*
X109550000Y-118485714D01*
X109550000Y-118571429D01*
X109578571Y-118628571D01*
X109607143Y-118657143D01*
X109664285Y-118685714D01*
X109892857Y-118685714D01*
X109350000Y-118371429D02*
X108978571Y-118371429D01*
X109178571Y-118600000D01*
X109092857Y-118600000D01*
X109035714Y-118628571D01*
X109007143Y-118657143D01*
X108978571Y-118714286D01*
X108978571Y-118857143D01*
X109007143Y-118914286D01*
X109035714Y-118942857D01*
X109092857Y-118971429D01*
X109264285Y-118971429D01*
X109321428Y-118942857D01*
X109350000Y-118914286D01*
X107900000Y-130471429D02*
X108100000Y-130185714D01*
X108242857Y-130471429D02*
X108242857Y-129871429D01*
X108014285Y-129871429D01*
X107957143Y-129900000D01*
X107928571Y-129928571D01*
X107900000Y-129985714D01*
X107900000Y-130071429D01*
X107928571Y-130128571D01*
X107957143Y-130157143D01*
X108014285Y-130185714D01*
X108242857Y-130185714D01*
X107385714Y-130071429D02*
X107385714Y-130471429D01*
X107528571Y-129842857D02*
X107671428Y-130271429D01*
X107300000Y-130271429D01*
X137721429Y-124700000D02*
X137435714Y-124500000D01*
X137721429Y-124357143D02*
X137121429Y-124357143D01*
X137121429Y-124585715D01*
X137150000Y-124642857D01*
X137178571Y-124671429D01*
X137235714Y-124700000D01*
X137321429Y-124700000D01*
X137378571Y-124671429D01*
X137407143Y-124642857D01*
X137435714Y-124585715D01*
X137435714Y-124357143D01*
X137121429Y-125242857D02*
X137121429Y-124957143D01*
X137407143Y-124928572D01*
X137378571Y-124957143D01*
X137350000Y-125014286D01*
X137350000Y-125157143D01*
X137378571Y-125214286D01*
X137407143Y-125242857D01*
X137464286Y-125271429D01*
X137607143Y-125271429D01*
X137664286Y-125242857D01*
X137692857Y-125214286D01*
X137721429Y-125157143D01*
X137721429Y-125014286D01*
X137692857Y-124957143D01*
X137664286Y-124928572D01*
X109225000Y-122871429D02*
X109425000Y-122585714D01*
X109567857Y-122871429D02*
X109567857Y-122271429D01*
X109339285Y-122271429D01*
X109282143Y-122300000D01*
X109253571Y-122328571D01*
X109225000Y-122385714D01*
X109225000Y-122471429D01*
X109253571Y-122528571D01*
X109282143Y-122557143D01*
X109339285Y-122585714D01*
X109567857Y-122585714D01*
X108710714Y-122271429D02*
X108825000Y-122271429D01*
X108882143Y-122300000D01*
X108910714Y-122328571D01*
X108967857Y-122414286D01*
X108996428Y-122528571D01*
X108996428Y-122757143D01*
X108967857Y-122814286D01*
X108939285Y-122842857D01*
X108882143Y-122871429D01*
X108767857Y-122871429D01*
X108710714Y-122842857D01*
X108682143Y-122814286D01*
X108653571Y-122757143D01*
X108653571Y-122614286D01*
X108682143Y-122557143D01*
X108710714Y-122528571D01*
X108767857Y-122500000D01*
X108882143Y-122500000D01*
X108939285Y-122528571D01*
X108967857Y-122557143D01*
X108996428Y-122614286D01*
D16*
X133182714Y-116565001D02*
X133727000Y-116565001D01*
X133835857Y-116528715D01*
X133908429Y-116456144D01*
X133944714Y-116347287D01*
X133944714Y-116274715D01*
X133944714Y-116927858D02*
X133182714Y-116927858D01*
X133182714Y-117218143D01*
X133219000Y-117290715D01*
X133255286Y-117327000D01*
X133327857Y-117363286D01*
X133436714Y-117363286D01*
X133509286Y-117327000D01*
X133545571Y-117290715D01*
X133581857Y-117218143D01*
X133581857Y-116927858D01*
X133944714Y-118089000D02*
X133944714Y-117653572D01*
X133944714Y-117871286D02*
X133182714Y-117871286D01*
X133291571Y-117798715D01*
X133364143Y-117726143D01*
X133400429Y-117653572D01*
D13*
X109500000Y-144214286D02*
X109528571Y-144242857D01*
X109614285Y-144271429D01*
X109671428Y-144271429D01*
X109757143Y-144242857D01*
X109814285Y-144185714D01*
X109842857Y-144128571D01*
X109871428Y-144014286D01*
X109871428Y-143928571D01*
X109842857Y-143814286D01*
X109814285Y-143757143D01*
X109757143Y-143700000D01*
X109671428Y-143671429D01*
X109614285Y-143671429D01*
X109528571Y-143700000D01*
X109500000Y-143728571D01*
X108928571Y-144271429D02*
X109271428Y-144271429D01*
X109100000Y-144271429D02*
X109100000Y-143671429D01*
X109157143Y-143757143D01*
X109214285Y-143814286D01*
X109271428Y-143842857D01*
X103500000Y-129614286D02*
X103528571Y-129642857D01*
X103614285Y-129671429D01*
X103671428Y-129671429D01*
X103757143Y-129642857D01*
X103814285Y-129585714D01*
X103842857Y-129528571D01*
X103871428Y-129414286D01*
X103871428Y-129328571D01*
X103842857Y-129214286D01*
X103814285Y-129157143D01*
X103757143Y-129100000D01*
X103671428Y-129071429D01*
X103614285Y-129071429D01*
X103528571Y-129100000D01*
X103500000Y-129128571D01*
X103271428Y-129128571D02*
X103242857Y-129100000D01*
X103185714Y-129071429D01*
X103042857Y-129071429D01*
X102985714Y-129100000D01*
X102957143Y-129128571D01*
X102928571Y-129185714D01*
X102928571Y-129242857D01*
X102957143Y-129328571D01*
X103300000Y-129671429D01*
X102928571Y-129671429D01*
X111300000Y-139014286D02*
X111328571Y-139042857D01*
X111414285Y-139071429D01*
X111471428Y-139071429D01*
X111557143Y-139042857D01*
X111614285Y-138985714D01*
X111642857Y-138928571D01*
X111671428Y-138814286D01*
X111671428Y-138728571D01*
X111642857Y-138614286D01*
X111614285Y-138557143D01*
X111557143Y-138500000D01*
X111471428Y-138471429D01*
X111414285Y-138471429D01*
X111328571Y-138500000D01*
X111300000Y-138528571D01*
X110785714Y-138671429D02*
X110785714Y-139071429D01*
X110928571Y-138442857D02*
X111071428Y-138871429D01*
X110700000Y-138871429D01*
X112500000Y-134814286D02*
X112528571Y-134842857D01*
X112614285Y-134871429D01*
X112671428Y-134871429D01*
X112757143Y-134842857D01*
X112814285Y-134785714D01*
X112842857Y-134728571D01*
X112871428Y-134614286D01*
X112871428Y-134528571D01*
X112842857Y-134414286D01*
X112814285Y-134357143D01*
X112757143Y-134300000D01*
X112671428Y-134271429D01*
X112614285Y-134271429D01*
X112528571Y-134300000D01*
X112500000Y-134328571D01*
X111957143Y-134271429D02*
X112242857Y-134271429D01*
X112271428Y-134557143D01*
X112242857Y-134528571D01*
X112185714Y-134500000D01*
X112042857Y-134500000D01*
X111985714Y-134528571D01*
X111957143Y-134557143D01*
X111928571Y-134614286D01*
X111928571Y-134757143D01*
X111957143Y-134814286D01*
X111985714Y-134842857D01*
X112042857Y-134871429D01*
X112185714Y-134871429D01*
X112242857Y-134842857D01*
X112271428Y-134814286D01*
X126150000Y-142964286D02*
X126178571Y-142992857D01*
X126264285Y-143021429D01*
X126321428Y-143021429D01*
X126407143Y-142992857D01*
X126464285Y-142935714D01*
X126492857Y-142878571D01*
X126521428Y-142764286D01*
X126521428Y-142678571D01*
X126492857Y-142564286D01*
X126464285Y-142507143D01*
X126407143Y-142450000D01*
X126321428Y-142421429D01*
X126264285Y-142421429D01*
X126178571Y-142450000D01*
X126150000Y-142478571D01*
X125950000Y-142421429D02*
X125550000Y-142421429D01*
X125807143Y-143021429D01*
X115900000Y-140614286D02*
X115928571Y-140642857D01*
X116014285Y-140671429D01*
X116071428Y-140671429D01*
X116157143Y-140642857D01*
X116214285Y-140585714D01*
X116242857Y-140528571D01*
X116271428Y-140414286D01*
X116271428Y-140328571D01*
X116242857Y-140214286D01*
X116214285Y-140157143D01*
X116157143Y-140100000D01*
X116071428Y-140071429D01*
X116014285Y-140071429D01*
X115928571Y-140100000D01*
X115900000Y-140128571D01*
X115557143Y-140328571D02*
X115614285Y-140300000D01*
X115642857Y-140271429D01*
X115671428Y-140214286D01*
X115671428Y-140185714D01*
X115642857Y-140128571D01*
X115614285Y-140100000D01*
X115557143Y-140071429D01*
X115442857Y-140071429D01*
X115385714Y-140100000D01*
X115357143Y-140128571D01*
X115328571Y-140185714D01*
X115328571Y-140214286D01*
X115357143Y-140271429D01*
X115385714Y-140300000D01*
X115442857Y-140328571D01*
X115557143Y-140328571D01*
X115614285Y-140357143D01*
X115642857Y-140385714D01*
X115671428Y-140442857D01*
X115671428Y-140557143D01*
X115642857Y-140614286D01*
X115614285Y-140642857D01*
X115557143Y-140671429D01*
X115442857Y-140671429D01*
X115385714Y-140642857D01*
X115357143Y-140614286D01*
X115328571Y-140557143D01*
X115328571Y-140442857D01*
X115357143Y-140385714D01*
X115385714Y-140357143D01*
X115442857Y-140328571D01*
D17*
X112007143Y-127200001D02*
X111107143Y-127200001D01*
X111107143Y-127542858D01*
X111150000Y-127628572D01*
X111192857Y-127671429D01*
X111278571Y-127714286D01*
X111407143Y-127714286D01*
X111492857Y-127671429D01*
X111535714Y-127628572D01*
X111578571Y-127542858D01*
X111578571Y-127200001D01*
X111107143Y-128014286D02*
X112007143Y-128228572D01*
X111364286Y-128400001D01*
X112007143Y-128571429D01*
X111107143Y-128785715D01*
X112007143Y-129642857D02*
X111578571Y-129342857D01*
X112007143Y-129128572D02*
X111107143Y-129128572D01*
X111107143Y-129471429D01*
X111150000Y-129557143D01*
X111192857Y-129600000D01*
X111278571Y-129642857D01*
X111407143Y-129642857D01*
X111492857Y-129600000D01*
X111535714Y-129557143D01*
X111578571Y-129471429D01*
X111578571Y-129128572D01*
D13*
X128714286Y-136671429D02*
X128914286Y-136385714D01*
X129057143Y-136671429D02*
X129057143Y-136071429D01*
X128828571Y-136071429D01*
X128771429Y-136100000D01*
X128742857Y-136128571D01*
X128714286Y-136185714D01*
X128714286Y-136271429D01*
X128742857Y-136328571D01*
X128771429Y-136357143D01*
X128828571Y-136385714D01*
X129057143Y-136385714D01*
X128514286Y-136071429D02*
X128114286Y-136671429D01*
X128114286Y-136071429D02*
X128514286Y-136671429D01*
X127600000Y-136671429D02*
X127885714Y-136671429D01*
X127885714Y-136071429D01*
X127400000Y-136357143D02*
X127200000Y-136357143D01*
X127114286Y-136671429D02*
X127400000Y-136671429D01*
X127400000Y-136071429D01*
X127114286Y-136071429D01*
X126857143Y-136671429D02*
X126857143Y-136071429D01*
X126714286Y-136071429D01*
X126628571Y-136100000D01*
X126571429Y-136157143D01*
X126542857Y-136214286D01*
X126514286Y-136328571D01*
X126514286Y-136414286D01*
X126542857Y-136528571D01*
X126571429Y-136585714D01*
X126628571Y-136642857D01*
X126714286Y-136671429D01*
X126857143Y-136671429D01*
X129271428Y-133471429D02*
X128928571Y-133471429D01*
X129100000Y-134071429D02*
X129100000Y-133471429D01*
X128785714Y-133471429D02*
X128385714Y-134071429D01*
X128385714Y-133471429D02*
X128785714Y-134071429D01*
X127871428Y-134071429D02*
X128157142Y-134071429D01*
X128157142Y-133471429D01*
X127671428Y-133757143D02*
X127471428Y-133757143D01*
X127385714Y-134071429D02*
X127671428Y-134071429D01*
X127671428Y-133471429D01*
X127385714Y-133471429D01*
X127128571Y-134071429D02*
X127128571Y-133471429D01*
X126985714Y-133471429D01*
X126899999Y-133500000D01*
X126842857Y-133557143D01*
X126814285Y-133614286D01*
X126785714Y-133728571D01*
X126785714Y-133814286D01*
X126814285Y-133928571D01*
X126842857Y-133985714D01*
X126899999Y-134042857D01*
X126985714Y-134071429D01*
X127128571Y-134071429D01*
D18*
X108366793Y-140564259D02*
X108533586Y-140564259D01*
X108533586Y-140826362D02*
X108533586Y-140325982D01*
X108295310Y-140325982D01*
X107842585Y-140826362D02*
X108128517Y-140826362D01*
X107985551Y-140826362D02*
X107985551Y-140325982D01*
X108033206Y-140397465D01*
X108080861Y-140445120D01*
X108128517Y-140468948D01*
D13*
X114100000Y-143671429D02*
X114385714Y-143671429D01*
X114385714Y-143071429D01*
X113585714Y-143671429D02*
X113928571Y-143671429D01*
X113757143Y-143671429D02*
X113757143Y-143071429D01*
X113814286Y-143157143D01*
X113871428Y-143214286D01*
X113928571Y-143242857D01*
X107402381Y-135761905D02*
X106402381Y-135761905D01*
X106402381Y-136142858D01*
X106450000Y-136238096D01*
X106497619Y-136285715D01*
X106592857Y-136333334D01*
X106735714Y-136333334D01*
X106830952Y-136285715D01*
X106878571Y-136238096D01*
X106926190Y-136142858D01*
X106926190Y-135761905D01*
X107402381Y-137285715D02*
X107402381Y-136714286D01*
X107402381Y-137000000D02*
X106402381Y-137000000D01*
X106545238Y-136904762D01*
X106640476Y-136809524D01*
X106688095Y-136714286D01*
X116500000Y-132671429D02*
X116700000Y-132385714D01*
X116842857Y-132671429D02*
X116842857Y-132071429D01*
X116614285Y-132071429D01*
X116557143Y-132100000D01*
X116528571Y-132128571D01*
X116500000Y-132185714D01*
X116500000Y-132271429D01*
X116528571Y-132328571D01*
X116557143Y-132357143D01*
X116614285Y-132385714D01*
X116842857Y-132385714D01*
X116300000Y-132071429D02*
X115900000Y-132071429D01*
X116157143Y-132671429D01*
X120700000Y-130671429D02*
X120900000Y-130385714D01*
X121042857Y-130671429D02*
X121042857Y-130071429D01*
X120814285Y-130071429D01*
X120757143Y-130100000D01*
X120728571Y-130128571D01*
X120700000Y-130185714D01*
X120700000Y-130271429D01*
X120728571Y-130328571D01*
X120757143Y-130357143D01*
X120814285Y-130385714D01*
X121042857Y-130385714D01*
X120357143Y-130328571D02*
X120414285Y-130300000D01*
X120442857Y-130271429D01*
X120471428Y-130214286D01*
X120471428Y-130185714D01*
X120442857Y-130128571D01*
X120414285Y-130100000D01*
X120357143Y-130071429D01*
X120242857Y-130071429D01*
X120185714Y-130100000D01*
X120157143Y-130128571D01*
X120128571Y-130185714D01*
X120128571Y-130214286D01*
X120157143Y-130271429D01*
X120185714Y-130300000D01*
X120242857Y-130328571D01*
X120357143Y-130328571D01*
X120414285Y-130357143D01*
X120442857Y-130385714D01*
X120471428Y-130442857D01*
X120471428Y-130557143D01*
X120442857Y-130614286D01*
X120414285Y-130642857D01*
X120357143Y-130671429D01*
X120242857Y-130671429D01*
X120185714Y-130642857D01*
X120157143Y-130614286D01*
X120128571Y-130557143D01*
X120128571Y-130442857D01*
X120157143Y-130385714D01*
X120185714Y-130357143D01*
X120242857Y-130328571D01*
X115900000Y-138271429D02*
X116100000Y-137985714D01*
X116242857Y-138271429D02*
X116242857Y-137671429D01*
X116014285Y-137671429D01*
X115957143Y-137700000D01*
X115928571Y-137728571D01*
X115900000Y-137785714D01*
X115900000Y-137871429D01*
X115928571Y-137928571D01*
X115957143Y-137957143D01*
X116014285Y-137985714D01*
X116242857Y-137985714D01*
X115614285Y-138271429D02*
X115500000Y-138271429D01*
X115442857Y-138242857D01*
X115414285Y-138214286D01*
X115357143Y-138128571D01*
X115328571Y-138014286D01*
X115328571Y-137785714D01*
X115357143Y-137728571D01*
X115385714Y-137700000D01*
X115442857Y-137671429D01*
X115557143Y-137671429D01*
X115614285Y-137700000D01*
X115642857Y-137728571D01*
X115671428Y-137785714D01*
X115671428Y-137928571D01*
X115642857Y-137985714D01*
X115614285Y-138014286D01*
X115557143Y-138042857D01*
X115442857Y-138042857D01*
X115385714Y-138014286D01*
X115357143Y-137985714D01*
X115328571Y-137928571D01*
X116385715Y-136671429D02*
X116585715Y-136385714D01*
X116728572Y-136671429D02*
X116728572Y-136071429D01*
X116500000Y-136071429D01*
X116442858Y-136100000D01*
X116414286Y-136128571D01*
X116385715Y-136185714D01*
X116385715Y-136271429D01*
X116414286Y-136328571D01*
X116442858Y-136357143D01*
X116500000Y-136385714D01*
X116728572Y-136385714D01*
X115814286Y-136671429D02*
X116157143Y-136671429D01*
X115985715Y-136671429D02*
X115985715Y-136071429D01*
X116042858Y-136157143D01*
X116100000Y-136214286D01*
X116157143Y-136242857D01*
X115442857Y-136071429D02*
X115385714Y-136071429D01*
X115328571Y-136100000D01*
X115300000Y-136128571D01*
X115271429Y-136185714D01*
X115242857Y-136300000D01*
X115242857Y-136442857D01*
X115271429Y-136557143D01*
X115300000Y-136614286D01*
X115328571Y-136642857D01*
X115385714Y-136671429D01*
X115442857Y-136671429D01*
X115500000Y-136642857D01*
X115528571Y-136614286D01*
X115557143Y-136557143D01*
X115585714Y-136442857D01*
X115585714Y-136300000D01*
X115557143Y-136185714D01*
X115528571Y-136128571D01*
X115500000Y-136100000D01*
X115442857Y-136071429D01*
X130785715Y-136421429D02*
X130985715Y-136135714D01*
X131128572Y-136421429D02*
X131128572Y-135821429D01*
X130900000Y-135821429D01*
X130842858Y-135850000D01*
X130814286Y-135878571D01*
X130785715Y-135935714D01*
X130785715Y-136021429D01*
X130814286Y-136078571D01*
X130842858Y-136107143D01*
X130900000Y-136135714D01*
X131128572Y-136135714D01*
X130214286Y-136421429D02*
X130557143Y-136421429D01*
X130385715Y-136421429D02*
X130385715Y-135821429D01*
X130442858Y-135907143D01*
X130500000Y-135964286D01*
X130557143Y-135992857D01*
X129642857Y-136421429D02*
X129985714Y-136421429D01*
X129814286Y-136421429D02*
X129814286Y-135821429D01*
X129871429Y-135907143D01*
X129928571Y-135964286D01*
X129985714Y-135992857D01*
X130785715Y-133821429D02*
X130985715Y-133535714D01*
X131128572Y-133821429D02*
X131128572Y-133221429D01*
X130900000Y-133221429D01*
X130842858Y-133250000D01*
X130814286Y-133278571D01*
X130785715Y-133335714D01*
X130785715Y-133421429D01*
X130814286Y-133478571D01*
X130842858Y-133507143D01*
X130900000Y-133535714D01*
X131128572Y-133535714D01*
X130214286Y-133821429D02*
X130557143Y-133821429D01*
X130385715Y-133821429D02*
X130385715Y-133221429D01*
X130442858Y-133307143D01*
X130500000Y-133364286D01*
X130557143Y-133392857D01*
X129985714Y-133278571D02*
X129957143Y-133250000D01*
X129900000Y-133221429D01*
X129757143Y-133221429D01*
X129700000Y-133250000D01*
X129671429Y-133278571D01*
X129642857Y-133335714D01*
X129642857Y-133392857D01*
X129671429Y-133478571D01*
X130014286Y-133821429D01*
X129642857Y-133821429D01*
X102652381Y-125838095D02*
X103461905Y-125838095D01*
X103557143Y-125885714D01*
X103604762Y-125933333D01*
X103652381Y-126028571D01*
X103652381Y-126219048D01*
X103604762Y-126314286D01*
X103557143Y-126361905D01*
X103461905Y-126409524D01*
X102652381Y-126409524D01*
X103652381Y-127409524D02*
X103652381Y-126838095D01*
X103652381Y-127123809D02*
X102652381Y-127123809D01*
X102795238Y-127028571D01*
X102890476Y-126933333D01*
X102938095Y-126838095D01*
X123161905Y-137052381D02*
X123161905Y-137861905D01*
X123114286Y-137957143D01*
X123066667Y-138004762D01*
X122971429Y-138052381D01*
X122780952Y-138052381D01*
X122685714Y-138004762D01*
X122638095Y-137957143D01*
X122590476Y-137861905D01*
X122590476Y-137052381D01*
X122209524Y-137052381D02*
X121590476Y-137052381D01*
X121923810Y-137433333D01*
X121780952Y-137433333D01*
X121685714Y-137480952D01*
X121638095Y-137528571D01*
X121590476Y-137623810D01*
X121590476Y-137861905D01*
X121638095Y-137957143D01*
X121685714Y-138004762D01*
X121780952Y-138052381D01*
X122066667Y-138052381D01*
X122161905Y-138004762D01*
X122209524Y-137957143D01*
X132261905Y-107452381D02*
X132261905Y-108261905D01*
X132214286Y-108357143D01*
X132166667Y-108404762D01*
X132071429Y-108452381D01*
X131880952Y-108452381D01*
X131785714Y-108404762D01*
X131738095Y-108357143D01*
X131690476Y-108261905D01*
X131690476Y-107452381D01*
X131261905Y-107547619D02*
X131214286Y-107500000D01*
X131119048Y-107452381D01*
X130880952Y-107452381D01*
X130785714Y-107500000D01*
X130738095Y-107547619D01*
X130690476Y-107642857D01*
X130690476Y-107738095D01*
X130738095Y-107880952D01*
X131309524Y-108452381D01*
X130690476Y-108452381D01*
D19*
X140452381Y-108852381D02*
X140785715Y-108376190D01*
X141023810Y-108852381D02*
X141023810Y-107852381D01*
X140642857Y-107852381D01*
X140547619Y-107900000D01*
X140500000Y-107947619D01*
X140452381Y-108042857D01*
X140452381Y-108185714D01*
X140500000Y-108280952D01*
X140547619Y-108328571D01*
X140642857Y-108376190D01*
X141023810Y-108376190D01*
X140023810Y-108328571D02*
X139690476Y-108328571D01*
X139547619Y-108852381D02*
X140023810Y-108852381D01*
X140023810Y-107852381D01*
X139547619Y-107852381D01*
X139166667Y-108804762D02*
X139023810Y-108852381D01*
X138785714Y-108852381D01*
X138690476Y-108804762D01*
X138642857Y-108757143D01*
X138595238Y-108661905D01*
X138595238Y-108566667D01*
X138642857Y-108471429D01*
X138690476Y-108423810D01*
X138785714Y-108376190D01*
X138976191Y-108328571D01*
X139071429Y-108280952D01*
X139119048Y-108233333D01*
X139166667Y-108138095D01*
X139166667Y-108042857D01*
X139119048Y-107947619D01*
X139071429Y-107900000D01*
X138976191Y-107852381D01*
X138738095Y-107852381D01*
X138595238Y-107900000D01*
X138166667Y-108328571D02*
X137833333Y-108328571D01*
X137690476Y-108852381D02*
X138166667Y-108852381D01*
X138166667Y-107852381D01*
X137690476Y-107852381D01*
X137404762Y-107852381D02*
X136833333Y-107852381D01*
X137119048Y-108852381D02*
X137119048Y-107852381D01*
X107476190Y-107900000D02*
X107571428Y-107852381D01*
X107714285Y-107852381D01*
X107857143Y-107900000D01*
X107952381Y-107995238D01*
X108000000Y-108090476D01*
X108047619Y-108280952D01*
X108047619Y-108423810D01*
X108000000Y-108614286D01*
X107952381Y-108709524D01*
X107857143Y-108804762D01*
X107714285Y-108852381D01*
X107619047Y-108852381D01*
X107476190Y-108804762D01*
X107428571Y-108757143D01*
X107428571Y-108423810D01*
X107619047Y-108423810D01*
X107000000Y-108852381D02*
X107000000Y-107852381D01*
X106619047Y-107852381D01*
X106523809Y-107900000D01*
X106476190Y-107947619D01*
X106428571Y-108042857D01*
X106428571Y-108185714D01*
X106476190Y-108280952D01*
X106523809Y-108328571D01*
X106619047Y-108376190D01*
X107000000Y-108376190D01*
X106000000Y-108852381D02*
X106000000Y-107852381D01*
X105333334Y-107852381D02*
X105142857Y-107852381D01*
X105047619Y-107900000D01*
X104952381Y-107995238D01*
X104904762Y-108185714D01*
X104904762Y-108519048D01*
X104952381Y-108709524D01*
X105047619Y-108804762D01*
X105142857Y-108852381D01*
X105333334Y-108852381D01*
X105428572Y-108804762D01*
X105523810Y-108709524D01*
X105571429Y-108519048D01*
X105571429Y-108185714D01*
X105523810Y-107995238D01*
X105428572Y-107900000D01*
X105333334Y-107852381D01*
X104285715Y-107852381D02*
X104190476Y-107852381D01*
X104095238Y-107900000D01*
X104047619Y-107947619D01*
X104000000Y-108042857D01*
X103952381Y-108233333D01*
X103952381Y-108471429D01*
X104000000Y-108661905D01*
X104047619Y-108757143D01*
X104095238Y-108804762D01*
X104190476Y-108852381D01*
X104285715Y-108852381D01*
X104380953Y-108804762D01*
X104428572Y-108757143D01*
X104476191Y-108661905D01*
X104523810Y-108471429D01*
X104523810Y-108233333D01*
X104476191Y-108042857D01*
X104428572Y-107947619D01*
X104380953Y-107900000D01*
X104285715Y-107852381D01*
X132069047Y-142926190D02*
X132069047Y-142426190D01*
X131950000Y-142426190D01*
X131878571Y-142450000D01*
X131830952Y-142497619D01*
X131807143Y-142545238D01*
X131783333Y-142640476D01*
X131783333Y-142711905D01*
X131807143Y-142807143D01*
X131830952Y-142854762D01*
X131878571Y-142902381D01*
X131950000Y-142926190D01*
X132069047Y-142926190D01*
X131330952Y-142426190D02*
X131569047Y-142426190D01*
X131592857Y-142664286D01*
X131569047Y-142640476D01*
X131521428Y-142616667D01*
X131402381Y-142616667D01*
X131354762Y-142640476D01*
X131330952Y-142664286D01*
X131307143Y-142711905D01*
X131307143Y-142830952D01*
X131330952Y-142878571D01*
X131354762Y-142902381D01*
X131402381Y-142926190D01*
X131521428Y-142926190D01*
X131569047Y-142902381D01*
X131592857Y-142878571D01*
D13*
X133971429Y-141585714D02*
X133971429Y-141242857D01*
X133971429Y-141414285D02*
X133371429Y-141414285D01*
X133457143Y-141357142D01*
X133514286Y-141300000D01*
X133542857Y-141242857D01*
X133371429Y-141785714D02*
X133371429Y-142157143D01*
X133600000Y-141957143D01*
X133600000Y-142042857D01*
X133628571Y-142100000D01*
X133657143Y-142128571D01*
X133714286Y-142157143D01*
X133857143Y-142157143D01*
X133914286Y-142128571D01*
X133942857Y-142100000D01*
X133971429Y-142042857D01*
X133971429Y-141871429D01*
X133942857Y-141814286D01*
X133914286Y-141785714D01*
X132971429Y-136514285D02*
X132685714Y-136314285D01*
X132971429Y-136171428D02*
X132371429Y-136171428D01*
X132371429Y-136400000D01*
X132400000Y-136457142D01*
X132428571Y-136485714D01*
X132485714Y-136514285D01*
X132571429Y-136514285D01*
X132628571Y-136485714D01*
X132657143Y-136457142D01*
X132685714Y-136400000D01*
X132685714Y-136171428D01*
X132971429Y-137085714D02*
X132971429Y-136742857D01*
X132971429Y-136914285D02*
X132371429Y-136914285D01*
X132457143Y-136857142D01*
X132514286Y-136800000D01*
X132542857Y-136742857D01*
X132371429Y-137285714D02*
X132371429Y-137657143D01*
X132600000Y-137457143D01*
X132600000Y-137542857D01*
X132628571Y-137600000D01*
X132657143Y-137628571D01*
X132714286Y-137657143D01*
X132857143Y-137657143D01*
X132914286Y-137628571D01*
X132942857Y-137600000D01*
X132971429Y-137542857D01*
X132971429Y-137371429D01*
X132942857Y-137314286D01*
X132914286Y-137285714D01*
D19*
X106869047Y-122726190D02*
X106869047Y-122226190D01*
X106750000Y-122226190D01*
X106678571Y-122250000D01*
X106630952Y-122297619D01*
X106607143Y-122345238D01*
X106583333Y-122440476D01*
X106583333Y-122511905D01*
X106607143Y-122607143D01*
X106630952Y-122654762D01*
X106678571Y-122702381D01*
X106750000Y-122726190D01*
X106869047Y-122726190D01*
X106392857Y-122273810D02*
X106369047Y-122250000D01*
X106321428Y-122226190D01*
X106202381Y-122226190D01*
X106154762Y-122250000D01*
X106130952Y-122273810D01*
X106107143Y-122321429D01*
X106107143Y-122369048D01*
X106130952Y-122440476D01*
X106416666Y-122726190D01*
X106107143Y-122726190D01*
D13*
X135314286Y-125150000D02*
X135342857Y-125121429D01*
X135371429Y-125035715D01*
X135371429Y-124978572D01*
X135342857Y-124892857D01*
X135285714Y-124835715D01*
X135228571Y-124807143D01*
X135114286Y-124778572D01*
X135028571Y-124778572D01*
X134914286Y-124807143D01*
X134857143Y-124835715D01*
X134800000Y-124892857D01*
X134771429Y-124978572D01*
X134771429Y-125035715D01*
X134800000Y-125121429D01*
X134828571Y-125150000D01*
X134771429Y-125664286D02*
X134771429Y-125550000D01*
X134800000Y-125492857D01*
X134828571Y-125464286D01*
X134914286Y-125407143D01*
X135028571Y-125378572D01*
X135257143Y-125378572D01*
X135314286Y-125407143D01*
X135342857Y-125435715D01*
X135371429Y-125492857D01*
X135371429Y-125607143D01*
X135342857Y-125664286D01*
X135314286Y-125692857D01*
X135257143Y-125721429D01*
X135114286Y-125721429D01*
X135057143Y-125692857D01*
X135028571Y-125664286D01*
X135000000Y-125607143D01*
X135000000Y-125492857D01*
X135028571Y-125435715D01*
X135057143Y-125407143D01*
X135114286Y-125378572D01*
X119850000Y-144564286D02*
X119878571Y-144592857D01*
X119964285Y-144621429D01*
X120021428Y-144621429D01*
X120107143Y-144592857D01*
X120164285Y-144535714D01*
X120192857Y-144478571D01*
X120221428Y-144364286D01*
X120221428Y-144278571D01*
X120192857Y-144164286D01*
X120164285Y-144107143D01*
X120107143Y-144050000D01*
X120021428Y-144021429D01*
X119964285Y-144021429D01*
X119878571Y-144050000D01*
X119850000Y-144078571D01*
X119564285Y-144621429D02*
X119450000Y-144621429D01*
X119392857Y-144592857D01*
X119364285Y-144564286D01*
X119307143Y-144478571D01*
X119278571Y-144364286D01*
X119278571Y-144135714D01*
X119307143Y-144078571D01*
X119335714Y-144050000D01*
X119392857Y-144021429D01*
X119507143Y-144021429D01*
X119564285Y-144050000D01*
X119592857Y-144078571D01*
X119621428Y-144135714D01*
X119621428Y-144278571D01*
X119592857Y-144335714D01*
X119564285Y-144364286D01*
X119507143Y-144392857D01*
X119392857Y-144392857D01*
X119335714Y-144364286D01*
X119307143Y-144335714D01*
X119278571Y-144278571D01*
M02*
