G04 #@! TF.FileFunction,Copper,L2,Bot,Signal*
%FSLAX46Y46*%
G04 Gerber Fmt 4.6, Leading zero omitted, Abs format (unit mm)*
G04 Created by KiCad (PCBNEW 4.0.4-stable) date 02/01/17 13:50:24*
%MOMM*%
%LPD*%
G01*
G04 APERTURE LIST*
%ADD10C,0.100000*%
%ADD11R,0.600000X0.700000*%
%ADD12R,0.700000X0.600000*%
%ADD13R,1.000000X1.000000*%
%ADD14R,0.797560X0.797560*%
%ADD15R,1.600200X1.803400*%
%ADD16R,1.500000X1.300000*%
%ADD17R,1.350000X0.400000*%
%ADD18O,0.950000X1.250000*%
%ADD19O,1.550000X1.000000*%
%ADD20R,1.060000X0.650000*%
%ADD21R,0.400000X1.200000*%
%ADD22R,2.500000X1.100000*%
%ADD23O,2.500000X1.100000*%
%ADD24O,1.100000X2.400000*%
%ADD25R,1.300000X1.550000*%
%ADD26C,2.500000*%
%ADD27R,1.500000X1.200000*%
%ADD28R,1.250000X1.000000*%
%ADD29R,1.000000X1.250000*%
%ADD30R,1.550000X0.600000*%
%ADD31R,1.800000X1.200000*%
%ADD32C,0.600000*%
%ADD33C,0.890000*%
%ADD34C,0.200000*%
%ADD35C,0.400000*%
%ADD36C,0.600000*%
%ADD37C,0.254000*%
G04 APERTURE END LIST*
D10*
D11*
X108600000Y-127600000D03*
X108600000Y-128800000D03*
X136200000Y-126400000D03*
X136200000Y-127600000D03*
D12*
X110200000Y-124200000D03*
X111400000Y-124200000D03*
X111800000Y-118800000D03*
X110600000Y-118800000D03*
X110000000Y-130200000D03*
X108800000Y-130200000D03*
D11*
X136200000Y-125400000D03*
X136200000Y-124200000D03*
D12*
X110200000Y-122600000D03*
X111400000Y-122600000D03*
D13*
X133600000Y-119150000D03*
X133600000Y-120450000D03*
D11*
X109500000Y-143100000D03*
X109500000Y-141900000D03*
D12*
X104400000Y-129400000D03*
X105600000Y-129400000D03*
D11*
X112400000Y-138800000D03*
X112400000Y-137600000D03*
X112400000Y-135400000D03*
X112400000Y-136600000D03*
X124450000Y-143550000D03*
X124450000Y-142350000D03*
D12*
X116200000Y-141400000D03*
X115000000Y-141400000D03*
D14*
X110200000Y-127450700D03*
X110200000Y-128949300D03*
X128500000Y-137400000D03*
X127001400Y-137400000D03*
X128549300Y-134800000D03*
X127050700Y-134800000D03*
D15*
X112397000Y-140500000D03*
X109603000Y-140500000D03*
D16*
X118350000Y-143200000D03*
X115650000Y-143200000D03*
D17*
X105062540Y-137800900D03*
X105062540Y-137150900D03*
X105062540Y-136500900D03*
X105062540Y-135850900D03*
X105062540Y-135200900D03*
D18*
X105062540Y-139000900D03*
X105062540Y-134000900D03*
D19*
X102362540Y-140000900D03*
X102362540Y-133000900D03*
D12*
X117400000Y-132200000D03*
X118600000Y-132200000D03*
D11*
X120800000Y-131200000D03*
X120800000Y-132400000D03*
D12*
X114800000Y-137800000D03*
X113600000Y-137800000D03*
X114800000Y-136400000D03*
X113600000Y-136400000D03*
X131000000Y-137400000D03*
X129800000Y-137400000D03*
X131000000Y-134800000D03*
X129800000Y-134800000D03*
D20*
X104700000Y-127550000D03*
X104700000Y-126600000D03*
X104700000Y-125650000D03*
X106900000Y-125650000D03*
X106900000Y-127550000D03*
D21*
X118777500Y-135400000D03*
X119412500Y-135400000D03*
X120047500Y-135400000D03*
X120682500Y-135400000D03*
X121317500Y-135400000D03*
X121952500Y-135400000D03*
X122587500Y-135400000D03*
X123222500Y-135400000D03*
X123222500Y-140600000D03*
X122587500Y-140600000D03*
X121952500Y-140600000D03*
X121317500Y-140600000D03*
X120682500Y-140600000D03*
X120047500Y-140600000D03*
X119412500Y-140600000D03*
X118777500Y-140600000D03*
D22*
X130200000Y-110000000D03*
D23*
X130200000Y-112000000D03*
X130200000Y-114000000D03*
X130200000Y-116000000D03*
X130200000Y-118000000D03*
X130200000Y-120000000D03*
X130200000Y-122000000D03*
X130200000Y-124000000D03*
D24*
X127510000Y-125750000D03*
X125510000Y-125750000D03*
X123510000Y-125750000D03*
X121510000Y-125750000D03*
X119510000Y-125750000D03*
X117510000Y-125750000D03*
D23*
X114800000Y-124000000D03*
X114900000Y-122000000D03*
X114800000Y-120000000D03*
X114800000Y-118000000D03*
X114800000Y-116000000D03*
X114800000Y-114000000D03*
X114800000Y-112000000D03*
X114800000Y-110000000D03*
D25*
X141250000Y-119750000D03*
X136750000Y-119750000D03*
X136750000Y-110250000D03*
X141250000Y-110250000D03*
X103750000Y-110250000D03*
X108250000Y-110250000D03*
X108250000Y-119750000D03*
X103750000Y-119750000D03*
D26*
X122475000Y-97000000D03*
D14*
X132700000Y-140950700D03*
X132700000Y-142449300D03*
D11*
X132700000Y-138400000D03*
X132700000Y-139600000D03*
D27*
X107250000Y-123800000D03*
X104350000Y-123800000D03*
D28*
X133600000Y-126250000D03*
X133600000Y-124250000D03*
D29*
X122800000Y-143400000D03*
X120800000Y-143400000D03*
D30*
X139562500Y-132000000D03*
X139562500Y-133000000D03*
X139562500Y-134000000D03*
X139562500Y-135000000D03*
X139562500Y-136000000D03*
X139562500Y-137000000D03*
X139562500Y-138000000D03*
X139562500Y-139000000D03*
D31*
X143437500Y-130700000D03*
X143437500Y-140300000D03*
D32*
X132700000Y-143600000D03*
X137600000Y-139850000D03*
X125750000Y-143550000D03*
X133700000Y-127550000D03*
X132900000Y-130000000D03*
X121700000Y-133300000D03*
X112600000Y-125300000D03*
X108500000Y-144000000D03*
X121300000Y-136450000D03*
X142500000Y-119800000D03*
X142600000Y-110200000D03*
X102400000Y-110300000D03*
X102300000Y-119800000D03*
X108800000Y-131100000D03*
X107600000Y-128700000D03*
X106400000Y-129400000D03*
X105900000Y-126600000D03*
X103500000Y-126600000D03*
X133000000Y-133400000D03*
X132540380Y-131740380D03*
X121000000Y-142050000D03*
X120600000Y-139200000D03*
X110800000Y-120200000D03*
X112200000Y-121600000D03*
X112600000Y-124000000D03*
D33*
X107200000Y-135000000D03*
X103400000Y-135200000D03*
D32*
X125400000Y-142000000D03*
X132400000Y-128200000D03*
X112400000Y-131600000D03*
X133200000Y-112000000D03*
X138400000Y-113600000D03*
X137400000Y-137000000D03*
X132600000Y-123000000D03*
X111749999Y-114000000D03*
X137000000Y-133600000D03*
D33*
X102400000Y-123800000D03*
X111800000Y-143200000D03*
D32*
X120000000Y-142200000D03*
X124800000Y-141400000D03*
X136600000Y-132600000D03*
X112000000Y-116000000D03*
X137800000Y-136000000D03*
X133169999Y-122240001D03*
X137800000Y-135000000D03*
X135000000Y-121800000D03*
D34*
X132700000Y-142449300D02*
X132700000Y-143600000D01*
X139562500Y-139000000D02*
X139087500Y-139000000D01*
X139087500Y-139000000D02*
X138237500Y-139850000D01*
X138237500Y-139850000D02*
X137600000Y-139850000D01*
X124450000Y-143550000D02*
X125750000Y-143550000D01*
X133700000Y-127550000D02*
X133350000Y-127900000D01*
X133350000Y-127900000D02*
X133350000Y-129550000D01*
X133600000Y-126250000D02*
X133600000Y-127450000D01*
X133600000Y-127450000D02*
X133700000Y-127550000D01*
X133350000Y-129550000D02*
X132900000Y-130000000D01*
X121400000Y-133550000D02*
X121450000Y-133550000D01*
X121450000Y-133550000D02*
X121700000Y-133300000D01*
X115500000Y-124000000D02*
X113900000Y-124000000D01*
X113900000Y-124000000D02*
X112600000Y-125300000D01*
X109500000Y-143100000D02*
X109400000Y-143100000D01*
X109400000Y-143100000D02*
X108500000Y-144000000D01*
X121317500Y-135400000D02*
X121317500Y-133632500D01*
X121317500Y-133632500D02*
X121400000Y-133550000D01*
X121317500Y-135400000D02*
X121317500Y-136432500D01*
X121317500Y-136432500D02*
X121300000Y-136450000D01*
X141250000Y-119750000D02*
X142450000Y-119750000D01*
X142450000Y-119750000D02*
X142500000Y-119800000D01*
X141250000Y-110250000D02*
X142550000Y-110250000D01*
X142550000Y-110250000D02*
X142600000Y-110200000D01*
X103750000Y-110250000D02*
X102450000Y-110250000D01*
X102450000Y-110250000D02*
X102400000Y-110300000D01*
X103750000Y-119750000D02*
X102350000Y-119750000D01*
X102350000Y-119750000D02*
X102300000Y-119800000D01*
X108800000Y-130200000D02*
X108800000Y-131100000D01*
X108600000Y-128800000D02*
X107700000Y-128800000D01*
X107700000Y-128800000D02*
X107600000Y-128700000D01*
X105600000Y-129400000D02*
X106400000Y-129400000D01*
X104700000Y-126600000D02*
X105900000Y-126600000D01*
X104700000Y-126600000D02*
X103500000Y-126600000D01*
X132540380Y-131740380D02*
X132540380Y-132940380D01*
X132540380Y-132940380D02*
X133000000Y-133400000D01*
X120682500Y-140600000D02*
X120682500Y-141732500D01*
X120682500Y-141732500D02*
X121000000Y-142050000D01*
D35*
X120682500Y-140600000D02*
X120682500Y-139282500D01*
X120682500Y-139282500D02*
X120600000Y-139200000D01*
D34*
X110600000Y-118800000D02*
X110600000Y-120000000D01*
X110600000Y-120000000D02*
X110800000Y-120200000D01*
X112200000Y-121600000D02*
X110800000Y-120200000D01*
X115500000Y-124000000D02*
X112600000Y-124000000D01*
D35*
X105062540Y-135200900D02*
X106999100Y-135200900D01*
X106999100Y-135200900D02*
X107200000Y-135000000D01*
X105062540Y-135200900D02*
X103400900Y-135200900D01*
X103400900Y-135200900D02*
X103400000Y-135200000D01*
D34*
X124600000Y-143400000D02*
X124550000Y-143400000D01*
X137750000Y-131550000D02*
X137750000Y-128000000D01*
X137750000Y-128000000D02*
X136200000Y-126450000D01*
X136200000Y-126450000D02*
X136200000Y-126400000D01*
X138200000Y-132000000D02*
X137750000Y-131550000D01*
X139562500Y-132000000D02*
X138200000Y-132000000D01*
X123150000Y-142000000D02*
X123500000Y-142350000D01*
X123500000Y-142350000D02*
X124450000Y-142350000D01*
D35*
X125400000Y-142000000D02*
X125050000Y-142350000D01*
X125050000Y-142350000D02*
X124450000Y-142350000D01*
D34*
X136200000Y-126400000D02*
X136200000Y-125400000D01*
X110200000Y-124200000D02*
X110200000Y-122600000D01*
X110200000Y-127450700D02*
X110200000Y-126851920D01*
X110200000Y-126851920D02*
X110200000Y-124200000D01*
D35*
X136200000Y-125400000D02*
X135000000Y-125400000D01*
X135000000Y-125400000D02*
X133800000Y-124200000D01*
X132400000Y-124600000D02*
X132800000Y-124200000D01*
X132800000Y-124200000D02*
X133800000Y-124200000D01*
X132400000Y-128200000D02*
X132400000Y-124600000D01*
X132400000Y-124600000D02*
X131800000Y-124000000D01*
X131800000Y-124000000D02*
X129500000Y-124000000D01*
X112400000Y-128851920D02*
X112400000Y-131600000D01*
X112400000Y-131600000D02*
X114600000Y-133800000D01*
X110200000Y-127450700D02*
X110998780Y-127450700D01*
X110998780Y-127450700D02*
X112400000Y-128851920D01*
D34*
X117200000Y-136400000D02*
X119847500Y-136400000D01*
X119847500Y-136400000D02*
X120047500Y-136200000D01*
X120047500Y-136200000D02*
X120047500Y-135400000D01*
X114600000Y-133800000D02*
X117200000Y-136400000D01*
X123150000Y-142000000D02*
X122587500Y-141437500D01*
X123150000Y-142000000D02*
X122952500Y-142000000D01*
X122952500Y-142000000D02*
X121952500Y-141000000D01*
X121952500Y-141000000D02*
X121952500Y-140600000D01*
X122587500Y-141437500D02*
X122587500Y-141400000D01*
X122587500Y-141400000D02*
X122587500Y-140600000D01*
D35*
X108600000Y-127600000D02*
X110050700Y-127600000D01*
X110050700Y-127600000D02*
X110200000Y-127450700D01*
X106900000Y-127550000D02*
X108550000Y-127550000D01*
X108550000Y-127550000D02*
X108600000Y-127600000D01*
D34*
X109025000Y-118000000D02*
X108250000Y-117225000D01*
X108250000Y-117225000D02*
X108250000Y-110250000D01*
X108250000Y-119750000D02*
X108250000Y-118775000D01*
X108250000Y-118775000D02*
X109025000Y-118000000D01*
X109025000Y-118000000D02*
X115500000Y-118000000D01*
X111400000Y-122600000D02*
X111400000Y-122050000D01*
X111400000Y-122050000D02*
X109100000Y-119750000D01*
X109100000Y-119750000D02*
X108250000Y-119750000D01*
X133600000Y-120450000D02*
X136050000Y-120450000D01*
X136050000Y-120450000D02*
X136750000Y-119750000D01*
X133600000Y-119150000D02*
X133600000Y-120450000D01*
X129500000Y-116000000D02*
X131150000Y-116000000D01*
X131150000Y-116000000D02*
X133600000Y-118450000D01*
X133600000Y-118450000D02*
X133600000Y-119150000D01*
X136750000Y-110250000D02*
X129750000Y-110250000D01*
X129750000Y-110250000D02*
X129500000Y-110000000D01*
X136750000Y-119750000D02*
X136750000Y-110250000D01*
X136200000Y-124200000D02*
X136200000Y-120300000D01*
X136200000Y-120300000D02*
X136750000Y-119750000D01*
X129500000Y-114000000D02*
X128400000Y-115100000D01*
X128400000Y-115100000D02*
X128400000Y-126800000D01*
X128400000Y-126800000D02*
X132600000Y-131000000D01*
X132600000Y-131000000D02*
X134200000Y-131000000D01*
X134200000Y-131000000D02*
X136200000Y-129000000D01*
X136200000Y-129000000D02*
X136200000Y-127600000D01*
X111400000Y-124200000D02*
X111400000Y-123668616D01*
X111400000Y-123668616D02*
X115068616Y-120000000D01*
X115068616Y-120000000D02*
X115500000Y-120000000D01*
D35*
X110000000Y-130200000D02*
X110000000Y-129149300D01*
X110000000Y-129149300D02*
X110200000Y-128949300D01*
D34*
X138400000Y-113600000D02*
X138400000Y-118775002D01*
X138400000Y-118775002D02*
X140587501Y-120962503D01*
X140587501Y-120962503D02*
X140587501Y-137449999D01*
X140587501Y-137449999D02*
X140037500Y-138000000D01*
X140037500Y-138000000D02*
X139562500Y-138000000D01*
X133200000Y-112000000D02*
X132775736Y-112000000D01*
X132775736Y-112000000D02*
X129500000Y-112000000D01*
X132700000Y-138400000D02*
X133100000Y-138000000D01*
X133100000Y-138000000D02*
X136400000Y-138000000D01*
X136400000Y-138000000D02*
X137400000Y-137000000D01*
X137400000Y-137000000D02*
X139562500Y-137000000D01*
X129500000Y-122000000D02*
X131600000Y-122000000D01*
X131600000Y-122000000D02*
X132600000Y-123000000D01*
X113100010Y-119199990D02*
X112700020Y-118800000D01*
X112700020Y-118800000D02*
X112350000Y-118800000D01*
X115831374Y-119199990D02*
X113100010Y-119199990D01*
X116300010Y-119668626D02*
X115831374Y-119199990D01*
X115500000Y-122000000D02*
X116300010Y-121199990D01*
X116300010Y-121199990D02*
X116300010Y-119668626D01*
X112350000Y-118800000D02*
X111800000Y-118800000D01*
X115500000Y-122000000D02*
X115300000Y-122200000D01*
X115500000Y-114000000D02*
X111749999Y-114000000D01*
X137000000Y-133600000D02*
X137400000Y-134000000D01*
X137400000Y-134000000D02*
X139562500Y-134000000D01*
D36*
X109603000Y-140500000D02*
X109603000Y-141797000D01*
X109603000Y-141797000D02*
X109500000Y-141900000D01*
D34*
X105062540Y-137800900D02*
X106800000Y-137800900D01*
D36*
X109603000Y-140500000D02*
X109603000Y-140398400D01*
X109603000Y-140398400D02*
X107005500Y-137800900D01*
X107005500Y-137800900D02*
X106800000Y-137800900D01*
D35*
X104400000Y-129400000D02*
X104400000Y-127850000D01*
X104400000Y-127850000D02*
X104700000Y-127550000D01*
X102400000Y-126000000D02*
X102750000Y-125650000D01*
X102750000Y-125650000D02*
X104700000Y-125650000D01*
X102400000Y-126800000D02*
X102400000Y-126000000D01*
X103150000Y-127550000D02*
X102400000Y-126800000D01*
X104700000Y-127550000D02*
X103150000Y-127550000D01*
X104350000Y-125300000D02*
X104700000Y-125650000D01*
X104350000Y-123800000D02*
X104350000Y-125300000D01*
D34*
X113600000Y-137800000D02*
X113650000Y-137800000D01*
X112400000Y-137600000D02*
X113400000Y-137600000D01*
X113400000Y-137600000D02*
X113600000Y-137800000D01*
X105062540Y-137150900D02*
X111650898Y-137150900D01*
X111650898Y-137150900D02*
X112099998Y-137600000D01*
X112099998Y-137600000D02*
X112400000Y-137600000D01*
X112400000Y-136600000D02*
X113400000Y-136600000D01*
X113400000Y-136600000D02*
X113600000Y-136400000D01*
X112400000Y-136600000D02*
X112200000Y-136600000D01*
X112200000Y-136600000D02*
X112100900Y-136500900D01*
X105062540Y-136500900D02*
X112100900Y-136500900D01*
D36*
X105500000Y-122200000D02*
X103370675Y-122200000D01*
X103370675Y-122200000D02*
X102400000Y-123170675D01*
X102400000Y-123170675D02*
X102400000Y-123800000D01*
X107250000Y-123800000D02*
X107100000Y-123800000D01*
X107100000Y-123800000D02*
X105500000Y-122200000D01*
D35*
X131000000Y-134800000D02*
X131000000Y-137400000D01*
X127000000Y-144400000D02*
X131000000Y-140400000D01*
X131000000Y-140400000D02*
X131000000Y-137400000D01*
X121850000Y-144400000D02*
X127000000Y-144400000D01*
X120800000Y-143400000D02*
X120850000Y-143400000D01*
X120850000Y-143400000D02*
X121850000Y-144400000D01*
D36*
X112397000Y-140500000D02*
X112397000Y-142603000D01*
X112397000Y-142603000D02*
X111800000Y-143200000D01*
X120800000Y-143400000D02*
X120750000Y-143400000D01*
X120750000Y-143400000D02*
X119700000Y-144450000D01*
X119700000Y-144450000D02*
X117000000Y-144450000D01*
X117000000Y-144450000D02*
X115750000Y-143200000D01*
X115750000Y-143200000D02*
X115650000Y-143200000D01*
X115000000Y-141400000D02*
X115000000Y-142550000D01*
X115000000Y-142550000D02*
X115650000Y-143200000D01*
X112397000Y-140500000D02*
X114100000Y-140500000D01*
X114100000Y-140500000D02*
X115000000Y-141400000D01*
D35*
X129800000Y-137400000D02*
X128500000Y-137400000D01*
D34*
X120000000Y-142200000D02*
X120000000Y-140647500D01*
X120000000Y-140647500D02*
X120047500Y-140600000D01*
X127001400Y-137400000D02*
X127001400Y-139198600D01*
X127001400Y-139198600D02*
X124800000Y-141400000D01*
D35*
X129800000Y-134800000D02*
X128549300Y-134800000D01*
D34*
X123200000Y-133600000D02*
X122587500Y-134212500D01*
X122587500Y-134212500D02*
X122587500Y-135400000D01*
X125251920Y-133600000D02*
X123200000Y-133600000D01*
X127050700Y-134800000D02*
X126451920Y-134800000D01*
X126451920Y-134800000D02*
X125251920Y-133600000D01*
D35*
X117600000Y-140347498D02*
X117600000Y-141400000D01*
X117600000Y-141400000D02*
X118350000Y-142150000D01*
X118350000Y-142150000D02*
X118350000Y-143200000D01*
X121317500Y-140600000D02*
X121317500Y-138955498D01*
X121317500Y-138955498D02*
X120912001Y-138549999D01*
X120912001Y-138549999D02*
X119397499Y-138549999D01*
X119397499Y-138549999D02*
X117600000Y-140347498D01*
D34*
X136600000Y-132600000D02*
X137000000Y-133000000D01*
X137000000Y-133000000D02*
X139562500Y-133000000D01*
X115500000Y-116000000D02*
X112000000Y-116000000D01*
X137800000Y-136000000D02*
X139562500Y-136000000D01*
X129500000Y-120000000D02*
X130929998Y-120000000D01*
X130929998Y-120000000D02*
X133169999Y-122240001D01*
X137800000Y-135000000D02*
X139562500Y-135000000D01*
X129500000Y-118000000D02*
X130400000Y-118000000D01*
X130400000Y-118000000D02*
X132849999Y-120449999D01*
X132849999Y-120449999D02*
X132849999Y-121150001D01*
X132849999Y-121150001D02*
X133499998Y-121800000D01*
X133499998Y-121800000D02*
X135000000Y-121800000D01*
X129500000Y-118000000D02*
X130031384Y-118000000D01*
X117800000Y-123200000D02*
X117800000Y-114300000D01*
X117800000Y-114300000D02*
X115500000Y-112000000D01*
X116600000Y-124400000D02*
X117800000Y-123200000D01*
X117400000Y-131700000D02*
X116900000Y-131200000D01*
X116900000Y-131200000D02*
X116600000Y-130900000D01*
X116600000Y-130900000D02*
X116600000Y-124400000D01*
X117400000Y-132200000D02*
X117400000Y-131700000D01*
X116400010Y-112900010D02*
X115500000Y-112000000D01*
X118777500Y-135400000D02*
X118777500Y-132377500D01*
X118777500Y-132377500D02*
X118600000Y-132200000D01*
X120800000Y-131200000D02*
X120800000Y-128821384D01*
X120800000Y-128821384D02*
X118310010Y-126331394D01*
X118310010Y-126331394D02*
X118310010Y-112810010D01*
X118310010Y-112810010D02*
X115500000Y-110000000D01*
X120682500Y-135400000D02*
X120682500Y-132517500D01*
X120682500Y-132517500D02*
X120800000Y-132400000D01*
X114800000Y-137800000D02*
X122600000Y-137800000D01*
X122600000Y-137800000D02*
X123222500Y-138422500D01*
X123222500Y-138422500D02*
X123222500Y-140600000D01*
X117100000Y-137300000D02*
X122300000Y-137300000D01*
X117100000Y-137300000D02*
X116200000Y-136400000D01*
X116200000Y-136400000D02*
X114800000Y-136400000D01*
X122600000Y-137000000D02*
X122700000Y-136900000D01*
X122700000Y-136900000D02*
X123222500Y-136377500D01*
X122300000Y-137300000D02*
X122700000Y-136900000D01*
X123222500Y-136377500D02*
X123222500Y-135400000D01*
X132700000Y-139600000D02*
X132700000Y-140950700D01*
D37*
G36*
X123520462Y-94536389D02*
X124385566Y-95114434D01*
X124963612Y-95979539D01*
X125179283Y-97063794D01*
X125407644Y-98211845D01*
X125456470Y-98329721D01*
X125456471Y-98329722D01*
X126106789Y-99302991D01*
X126197008Y-99393210D01*
X127170278Y-100043529D01*
X127170279Y-100043530D01*
X127219104Y-100063754D01*
X127288154Y-100092356D01*
X127288156Y-100092356D01*
X128436206Y-100320717D01*
X128468413Y-100320717D01*
X128500000Y-100327000D01*
X141967793Y-100327000D01*
X143020462Y-100536389D01*
X143885566Y-101114434D01*
X144463612Y-101979539D01*
X144673000Y-103032208D01*
X144673000Y-141967792D01*
X144463612Y-143020461D01*
X143885566Y-143885566D01*
X143020462Y-144463611D01*
X141967793Y-144673000D01*
X127401580Y-144673000D01*
X129339530Y-142735050D01*
X131666220Y-142735050D01*
X131666220Y-142974389D01*
X131762893Y-143207778D01*
X131941521Y-143386407D01*
X132174910Y-143483080D01*
X132414250Y-143483080D01*
X132573000Y-143324330D01*
X132573000Y-142576300D01*
X132827000Y-142576300D01*
X132827000Y-143324330D01*
X132985750Y-143483080D01*
X133225090Y-143483080D01*
X133458479Y-143386407D01*
X133637107Y-143207778D01*
X133733780Y-142974389D01*
X133733780Y-142735050D01*
X133575030Y-142576300D01*
X132827000Y-142576300D01*
X132573000Y-142576300D01*
X131824970Y-142576300D01*
X131666220Y-142735050D01*
X129339530Y-142735050D01*
X131337290Y-140737290D01*
X131440691Y-140582540D01*
X131477000Y-140400000D01*
X131477000Y-137947442D01*
X131546927Y-137902445D01*
X131610175Y-137809880D01*
X131632426Y-137700000D01*
X131632426Y-137100000D01*
X131613111Y-136997350D01*
X131552445Y-136903073D01*
X131477000Y-136851523D01*
X131477000Y-135347442D01*
X131546927Y-135302445D01*
X131610175Y-135209880D01*
X131632426Y-135100000D01*
X131632426Y-134500000D01*
X131613111Y-134397350D01*
X131552445Y-134303073D01*
X131459880Y-134239825D01*
X131350000Y-134217574D01*
X130650000Y-134217574D01*
X130547350Y-134236889D01*
X130453073Y-134297555D01*
X130399421Y-134376076D01*
X130352445Y-134303073D01*
X130259880Y-134239825D01*
X130150000Y-134217574D01*
X129450000Y-134217574D01*
X129347350Y-134236889D01*
X129253073Y-134297555D01*
X129235687Y-134323000D01*
X129215788Y-134323000D01*
X129211191Y-134298570D01*
X129150525Y-134204293D01*
X129057960Y-134141045D01*
X128948080Y-134118794D01*
X128150520Y-134118794D01*
X128047870Y-134138109D01*
X127953593Y-134198775D01*
X127890345Y-134291340D01*
X127868094Y-134401220D01*
X127868094Y-135198780D01*
X127887409Y-135301430D01*
X127948075Y-135395707D01*
X128040640Y-135458955D01*
X128150520Y-135481206D01*
X128948080Y-135481206D01*
X129050730Y-135461891D01*
X129145007Y-135401225D01*
X129208255Y-135308660D01*
X129214666Y-135277000D01*
X129234732Y-135277000D01*
X129247555Y-135296927D01*
X129340120Y-135360175D01*
X129450000Y-135382426D01*
X130150000Y-135382426D01*
X130252650Y-135363111D01*
X130346927Y-135302445D01*
X130400579Y-135223924D01*
X130447555Y-135296927D01*
X130523000Y-135348477D01*
X130523000Y-136852558D01*
X130453073Y-136897555D01*
X130399421Y-136976076D01*
X130352445Y-136903073D01*
X130259880Y-136839825D01*
X130150000Y-136817574D01*
X129450000Y-136817574D01*
X129347350Y-136836889D01*
X129253073Y-136897555D01*
X129235687Y-136923000D01*
X129166488Y-136923000D01*
X129161891Y-136898570D01*
X129101225Y-136804293D01*
X129008660Y-136741045D01*
X128898780Y-136718794D01*
X128101220Y-136718794D01*
X127998570Y-136738109D01*
X127904293Y-136798775D01*
X127841045Y-136891340D01*
X127818794Y-137001220D01*
X127818794Y-137798780D01*
X127838109Y-137901430D01*
X127898775Y-137995707D01*
X127991340Y-138058955D01*
X128101220Y-138081206D01*
X128898780Y-138081206D01*
X129001430Y-138061891D01*
X129095707Y-138001225D01*
X129158955Y-137908660D01*
X129165366Y-137877000D01*
X129234732Y-137877000D01*
X129247555Y-137896927D01*
X129340120Y-137960175D01*
X129450000Y-137982426D01*
X130150000Y-137982426D01*
X130252650Y-137963111D01*
X130346927Y-137902445D01*
X130400579Y-137823924D01*
X130447555Y-137896927D01*
X130523000Y-137948477D01*
X130523000Y-140202420D01*
X126802420Y-143923000D01*
X125385000Y-143923000D01*
X125385000Y-143835750D01*
X125226250Y-143677000D01*
X124577000Y-143677000D01*
X124577000Y-143697000D01*
X124323000Y-143697000D01*
X124323000Y-143677000D01*
X124303000Y-143677000D01*
X124303000Y-143423000D01*
X124323000Y-143423000D01*
X124323000Y-143403000D01*
X124577000Y-143403000D01*
X124577000Y-143423000D01*
X125226250Y-143423000D01*
X125385000Y-143264250D01*
X125385000Y-143073691D01*
X125288327Y-142840302D01*
X125236242Y-142788217D01*
X125387290Y-142687290D01*
X125497495Y-142577085D01*
X125514269Y-142577100D01*
X125726417Y-142489442D01*
X125888871Y-142327271D01*
X125976900Y-142115276D01*
X125977100Y-141885731D01*
X125889442Y-141673583D01*
X125727271Y-141511129D01*
X125515276Y-141423100D01*
X125376980Y-141422980D01*
X125377039Y-141356119D01*
X127267979Y-139465179D01*
X127349703Y-139342872D01*
X127378400Y-139198600D01*
X127378400Y-138081206D01*
X127400180Y-138081206D01*
X127502830Y-138061891D01*
X127597107Y-138001225D01*
X127660355Y-137908660D01*
X127682606Y-137798780D01*
X127682606Y-137001220D01*
X127663291Y-136898570D01*
X127602625Y-136804293D01*
X127510060Y-136741045D01*
X127400180Y-136718794D01*
X126602620Y-136718794D01*
X126499970Y-136738109D01*
X126405693Y-136798775D01*
X126342445Y-136891340D01*
X126320194Y-137001220D01*
X126320194Y-137798780D01*
X126339509Y-137901430D01*
X126400175Y-137995707D01*
X126492740Y-138058955D01*
X126602620Y-138081206D01*
X126624400Y-138081206D01*
X126624400Y-139042442D01*
X124843804Y-140823038D01*
X124685731Y-140822900D01*
X124473583Y-140910558D01*
X124311129Y-141072729D01*
X124223100Y-141284724D01*
X124222900Y-141514269D01*
X124306904Y-141717574D01*
X124150000Y-141717574D01*
X124047350Y-141736889D01*
X123953073Y-141797555D01*
X123889825Y-141890120D01*
X123873042Y-141973000D01*
X123656158Y-141973000D01*
X123165584Y-141482426D01*
X123422500Y-141482426D01*
X123525150Y-141463111D01*
X123619427Y-141402445D01*
X123682675Y-141309880D01*
X123704926Y-141200000D01*
X123704926Y-140000000D01*
X123685611Y-139897350D01*
X123624945Y-139803073D01*
X123599500Y-139785687D01*
X123599500Y-138422500D01*
X123570803Y-138278228D01*
X123489079Y-138155921D01*
X122866579Y-137533421D01*
X122744272Y-137451697D01*
X122691882Y-137441276D01*
X122966579Y-137166580D01*
X122966581Y-137166577D01*
X123489080Y-136644079D01*
X123543181Y-136563111D01*
X123570803Y-136521772D01*
X123599500Y-136377500D01*
X123599500Y-136215268D01*
X123619427Y-136202445D01*
X123682675Y-136109880D01*
X123704926Y-136000000D01*
X123704926Y-134800000D01*
X123685611Y-134697350D01*
X123624945Y-134603073D01*
X123532380Y-134539825D01*
X123422500Y-134517574D01*
X123022500Y-134517574D01*
X122964500Y-134528487D01*
X122964500Y-134368658D01*
X123356158Y-133977000D01*
X125095762Y-133977000D01*
X126185341Y-135066579D01*
X126307648Y-135148303D01*
X126369494Y-135160605D01*
X126369494Y-135198780D01*
X126388809Y-135301430D01*
X126449475Y-135395707D01*
X126542040Y-135458955D01*
X126651920Y-135481206D01*
X127449480Y-135481206D01*
X127552130Y-135461891D01*
X127646407Y-135401225D01*
X127709655Y-135308660D01*
X127731906Y-135198780D01*
X127731906Y-134401220D01*
X127712591Y-134298570D01*
X127651925Y-134204293D01*
X127559360Y-134141045D01*
X127449480Y-134118794D01*
X126651920Y-134118794D01*
X126549270Y-134138109D01*
X126454993Y-134198775D01*
X126426116Y-134241038D01*
X125518499Y-133333421D01*
X125396192Y-133251697D01*
X125251920Y-133223000D01*
X123200000Y-133223000D01*
X123055728Y-133251697D01*
X122933421Y-133333421D01*
X122320921Y-133945921D01*
X122239197Y-134068228D01*
X122210500Y-134212500D01*
X122210500Y-134529319D01*
X122152500Y-134517574D01*
X122087834Y-134517574D01*
X122055827Y-134440302D01*
X121877199Y-134261673D01*
X121643810Y-134165000D01*
X121576250Y-134165000D01*
X121417500Y-134323750D01*
X121417500Y-135273000D01*
X121464500Y-135273000D01*
X121464500Y-135527000D01*
X121417500Y-135527000D01*
X121417500Y-136476250D01*
X121576250Y-136635000D01*
X121643810Y-136635000D01*
X121877199Y-136538327D01*
X122055827Y-136359698D01*
X122087834Y-136282426D01*
X122152500Y-136282426D01*
X122255150Y-136263111D01*
X122268935Y-136254241D01*
X122277620Y-136260175D01*
X122387500Y-136282426D01*
X122784415Y-136282426D01*
X122433423Y-136633419D01*
X122433420Y-136633421D01*
X122143842Y-136923000D01*
X117256158Y-136923000D01*
X117087850Y-136754692D01*
X117200000Y-136777000D01*
X119847500Y-136777000D01*
X119991772Y-136748303D01*
X120114079Y-136666579D01*
X120314079Y-136466579D01*
X120395803Y-136344272D01*
X120410985Y-136267944D01*
X120482500Y-136282426D01*
X120547166Y-136282426D01*
X120579173Y-136359698D01*
X120757801Y-136538327D01*
X120991190Y-136635000D01*
X121058750Y-136635000D01*
X121217500Y-136476250D01*
X121217500Y-135527000D01*
X121170500Y-135527000D01*
X121170500Y-135273000D01*
X121217500Y-135273000D01*
X121217500Y-134323750D01*
X121059500Y-134165750D01*
X121059500Y-133032426D01*
X121100000Y-133032426D01*
X121202650Y-133013111D01*
X121296927Y-132952445D01*
X121360175Y-132859880D01*
X121382426Y-132750000D01*
X121382426Y-132050000D01*
X121363111Y-131947350D01*
X121302445Y-131853073D01*
X121223924Y-131799421D01*
X121296927Y-131752445D01*
X121360175Y-131659880D01*
X121382426Y-131550000D01*
X121382426Y-130850000D01*
X121363111Y-130747350D01*
X121302445Y-130653073D01*
X121209880Y-130589825D01*
X121177000Y-130583167D01*
X121177000Y-128821384D01*
X121148303Y-128677112D01*
X121104803Y-128612010D01*
X121066580Y-128554805D01*
X119724953Y-127213179D01*
X119826479Y-127192984D01*
X120094777Y-127013713D01*
X120274048Y-126745415D01*
X120337000Y-126428936D01*
X120337000Y-125071064D01*
X120683000Y-125071064D01*
X120683000Y-126428936D01*
X120745952Y-126745415D01*
X120925223Y-127013713D01*
X121193521Y-127192984D01*
X121510000Y-127255936D01*
X121826479Y-127192984D01*
X122094777Y-127013713D01*
X122274048Y-126745415D01*
X122337000Y-126428936D01*
X122337000Y-125071064D01*
X122683000Y-125071064D01*
X122683000Y-126428936D01*
X122745952Y-126745415D01*
X122925223Y-127013713D01*
X123193521Y-127192984D01*
X123510000Y-127255936D01*
X123826479Y-127192984D01*
X124094777Y-127013713D01*
X124274048Y-126745415D01*
X124337000Y-126428936D01*
X124337000Y-125071064D01*
X124683000Y-125071064D01*
X124683000Y-126428936D01*
X124745952Y-126745415D01*
X124925223Y-127013713D01*
X125193521Y-127192984D01*
X125510000Y-127255936D01*
X125826479Y-127192984D01*
X126094777Y-127013713D01*
X126274048Y-126745415D01*
X126337000Y-126428936D01*
X126337000Y-125071064D01*
X126683000Y-125071064D01*
X126683000Y-126428936D01*
X126745952Y-126745415D01*
X126925223Y-127013713D01*
X127193521Y-127192984D01*
X127510000Y-127255936D01*
X127826479Y-127192984D01*
X128094777Y-127013713D01*
X128096437Y-127011229D01*
X128133421Y-127066579D01*
X132333421Y-131266579D01*
X132455728Y-131348303D01*
X132600000Y-131377000D01*
X134200000Y-131377000D01*
X134344272Y-131348303D01*
X134466579Y-131266579D01*
X136466579Y-129266579D01*
X136548303Y-129144272D01*
X136577000Y-129000000D01*
X136577000Y-128217937D01*
X136602650Y-128213111D01*
X136696927Y-128152445D01*
X136760175Y-128059880D01*
X136782426Y-127950000D01*
X136782426Y-127565584D01*
X137373000Y-128156158D01*
X137373000Y-131550000D01*
X137401697Y-131694272D01*
X137483421Y-131816579D01*
X137933421Y-132266579D01*
X138055728Y-132348303D01*
X138200000Y-132377000D01*
X138519563Y-132377000D01*
X138524389Y-132402650D01*
X138585055Y-132496927D01*
X138589109Y-132499697D01*
X138527325Y-132590120D01*
X138520667Y-132623000D01*
X137176980Y-132623000D01*
X137177100Y-132485731D01*
X137089442Y-132273583D01*
X136927271Y-132111129D01*
X136715276Y-132023100D01*
X136485731Y-132022900D01*
X136273583Y-132110558D01*
X136111129Y-132272729D01*
X136023100Y-132484724D01*
X136022900Y-132714269D01*
X136110558Y-132926417D01*
X136272729Y-133088871D01*
X136484724Y-133176900D01*
X136607018Y-133177007D01*
X136511129Y-133272729D01*
X136423100Y-133484724D01*
X136422900Y-133714269D01*
X136510558Y-133926417D01*
X136672729Y-134088871D01*
X136884724Y-134176900D01*
X137043880Y-134177039D01*
X137133420Y-134266579D01*
X137179779Y-134297555D01*
X137255728Y-134348303D01*
X137400000Y-134377000D01*
X138519563Y-134377000D01*
X138524389Y-134402650D01*
X138585055Y-134496927D01*
X138589109Y-134499697D01*
X138527325Y-134590120D01*
X138520667Y-134623000D01*
X138238947Y-134623000D01*
X138127271Y-134511129D01*
X137915276Y-134423100D01*
X137685731Y-134422900D01*
X137473583Y-134510558D01*
X137311129Y-134672729D01*
X137223100Y-134884724D01*
X137222900Y-135114269D01*
X137310558Y-135326417D01*
X137472729Y-135488871D01*
X137499333Y-135499918D01*
X137473583Y-135510558D01*
X137311129Y-135672729D01*
X137223100Y-135884724D01*
X137222900Y-136114269D01*
X137310558Y-136326417D01*
X137406978Y-136423006D01*
X137285731Y-136422900D01*
X137073583Y-136510558D01*
X136911129Y-136672729D01*
X136823100Y-136884724D01*
X136822961Y-137043880D01*
X136243842Y-137623000D01*
X133100000Y-137623000D01*
X132955728Y-137651697D01*
X132833420Y-137733421D01*
X132799267Y-137767574D01*
X132400000Y-137767574D01*
X132297350Y-137786889D01*
X132203073Y-137847555D01*
X132139825Y-137940120D01*
X132117574Y-138050000D01*
X132117574Y-138750000D01*
X132136889Y-138852650D01*
X132197555Y-138946927D01*
X132276076Y-139000579D01*
X132203073Y-139047555D01*
X132139825Y-139140120D01*
X132117574Y-139250000D01*
X132117574Y-139950000D01*
X132136889Y-140052650D01*
X132197555Y-140146927D01*
X132290120Y-140210175D01*
X132323000Y-140216833D01*
X132323000Y-140269494D01*
X132301220Y-140269494D01*
X132198570Y-140288809D01*
X132104293Y-140349475D01*
X132041045Y-140442040D01*
X132018794Y-140551920D01*
X132018794Y-141349480D01*
X132038109Y-141452130D01*
X132048298Y-141467964D01*
X131941521Y-141512193D01*
X131762893Y-141690822D01*
X131666220Y-141924211D01*
X131666220Y-142163550D01*
X131824970Y-142322300D01*
X132573000Y-142322300D01*
X132573000Y-142302300D01*
X132827000Y-142302300D01*
X132827000Y-142322300D01*
X133575030Y-142322300D01*
X133733780Y-142163550D01*
X133733780Y-141924211D01*
X133637107Y-141690822D01*
X133458479Y-141512193D01*
X133352773Y-141468408D01*
X133358955Y-141459360D01*
X133381206Y-141349480D01*
X133381206Y-140551920D01*
X133361891Y-140449270D01*
X133301225Y-140354993D01*
X133208660Y-140291745D01*
X133098780Y-140269494D01*
X133077000Y-140269494D01*
X133077000Y-140217937D01*
X133102650Y-140213111D01*
X133196927Y-140152445D01*
X133260175Y-140059880D01*
X133282426Y-139950000D01*
X133282426Y-139285750D01*
X138152500Y-139285750D01*
X138152500Y-139426309D01*
X138249173Y-139659698D01*
X138427801Y-139838327D01*
X138661190Y-139935000D01*
X139276750Y-139935000D01*
X139435500Y-139776250D01*
X139435500Y-139127000D01*
X139689500Y-139127000D01*
X139689500Y-139776250D01*
X139848250Y-139935000D01*
X140463810Y-139935000D01*
X140697199Y-139838327D01*
X140835525Y-139700000D01*
X142255074Y-139700000D01*
X142255074Y-140900000D01*
X142274389Y-141002650D01*
X142335055Y-141096927D01*
X142427620Y-141160175D01*
X142537500Y-141182426D01*
X144337500Y-141182426D01*
X144440150Y-141163111D01*
X144534427Y-141102445D01*
X144597675Y-141009880D01*
X144619926Y-140900000D01*
X144619926Y-139700000D01*
X144600611Y-139597350D01*
X144539945Y-139503073D01*
X144447380Y-139439825D01*
X144337500Y-139417574D01*
X142537500Y-139417574D01*
X142434850Y-139436889D01*
X142340573Y-139497555D01*
X142277325Y-139590120D01*
X142255074Y-139700000D01*
X140835525Y-139700000D01*
X140875827Y-139659698D01*
X140972500Y-139426309D01*
X140972500Y-139285750D01*
X140813750Y-139127000D01*
X139689500Y-139127000D01*
X139435500Y-139127000D01*
X138311250Y-139127000D01*
X138152500Y-139285750D01*
X133282426Y-139285750D01*
X133282426Y-139250000D01*
X133263111Y-139147350D01*
X133202445Y-139053073D01*
X133123924Y-138999421D01*
X133196927Y-138952445D01*
X133260175Y-138859880D01*
X133282426Y-138750000D01*
X133282426Y-138377000D01*
X136400000Y-138377000D01*
X136544272Y-138348303D01*
X136666579Y-138266579D01*
X137356196Y-137576962D01*
X137514269Y-137577100D01*
X137726417Y-137489442D01*
X137839055Y-137377000D01*
X138519563Y-137377000D01*
X138524389Y-137402650D01*
X138585055Y-137496927D01*
X138589109Y-137499697D01*
X138527325Y-137590120D01*
X138505074Y-137700000D01*
X138505074Y-138129665D01*
X138427801Y-138161673D01*
X138249173Y-138340302D01*
X138152500Y-138573691D01*
X138152500Y-138714250D01*
X138311250Y-138873000D01*
X139435500Y-138873000D01*
X139435500Y-138853000D01*
X139689500Y-138853000D01*
X139689500Y-138873000D01*
X140813750Y-138873000D01*
X140972500Y-138714250D01*
X140972500Y-138573691D01*
X140875827Y-138340302D01*
X140697199Y-138161673D01*
X140619926Y-138129665D01*
X140619926Y-137950732D01*
X140854080Y-137716578D01*
X140935804Y-137594271D01*
X140964501Y-137449999D01*
X140964501Y-130100000D01*
X142255074Y-130100000D01*
X142255074Y-131300000D01*
X142274389Y-131402650D01*
X142335055Y-131496927D01*
X142427620Y-131560175D01*
X142537500Y-131582426D01*
X144337500Y-131582426D01*
X144440150Y-131563111D01*
X144534427Y-131502445D01*
X144597675Y-131409880D01*
X144619926Y-131300000D01*
X144619926Y-130100000D01*
X144600611Y-129997350D01*
X144539945Y-129903073D01*
X144447380Y-129839825D01*
X144337500Y-129817574D01*
X142537500Y-129817574D01*
X142434850Y-129836889D01*
X142340573Y-129897555D01*
X142277325Y-129990120D01*
X142255074Y-130100000D01*
X140964501Y-130100000D01*
X140964501Y-121159749D01*
X141123000Y-121001250D01*
X141123000Y-119877000D01*
X141377000Y-119877000D01*
X141377000Y-121001250D01*
X141535750Y-121160000D01*
X142026310Y-121160000D01*
X142259699Y-121063327D01*
X142438327Y-120884698D01*
X142535000Y-120651309D01*
X142535000Y-120035750D01*
X142376250Y-119877000D01*
X141377000Y-119877000D01*
X141123000Y-119877000D01*
X140123750Y-119877000D01*
X140079453Y-119921297D01*
X139006847Y-118848691D01*
X139965000Y-118848691D01*
X139965000Y-119464250D01*
X140123750Y-119623000D01*
X141123000Y-119623000D01*
X141123000Y-118498750D01*
X141377000Y-118498750D01*
X141377000Y-119623000D01*
X142376250Y-119623000D01*
X142535000Y-119464250D01*
X142535000Y-118848691D01*
X142438327Y-118615302D01*
X142259699Y-118436673D01*
X142026310Y-118340000D01*
X141535750Y-118340000D01*
X141377000Y-118498750D01*
X141123000Y-118498750D01*
X140964250Y-118340000D01*
X140473690Y-118340000D01*
X140240301Y-118436673D01*
X140061673Y-118615302D01*
X139965000Y-118848691D01*
X139006847Y-118848691D01*
X138777000Y-118618844D01*
X138777000Y-114038947D01*
X138888871Y-113927271D01*
X138976900Y-113715276D01*
X138977100Y-113485731D01*
X138889442Y-113273583D01*
X138727271Y-113111129D01*
X138515276Y-113023100D01*
X138285731Y-113022900D01*
X138073583Y-113110558D01*
X137911129Y-113272729D01*
X137823100Y-113484724D01*
X137822900Y-113714269D01*
X137910558Y-113926417D01*
X138023000Y-114039055D01*
X138023000Y-118775002D01*
X138051697Y-118919274D01*
X138133421Y-119041581D01*
X140210501Y-121118662D01*
X140210501Y-131417574D01*
X138787500Y-131417574D01*
X138684850Y-131436889D01*
X138590573Y-131497555D01*
X138527325Y-131590120D01*
X138520667Y-131623000D01*
X138356158Y-131623000D01*
X138127000Y-131393842D01*
X138127000Y-128000000D01*
X138098303Y-127855728D01*
X138016579Y-127733421D01*
X136782426Y-126499268D01*
X136782426Y-126050000D01*
X136763111Y-125947350D01*
X136732700Y-125900090D01*
X136760175Y-125859880D01*
X136782426Y-125750000D01*
X136782426Y-125050000D01*
X136763111Y-124947350D01*
X136702445Y-124853073D01*
X136623924Y-124799421D01*
X136696927Y-124752445D01*
X136760175Y-124659880D01*
X136782426Y-124550000D01*
X136782426Y-123850000D01*
X136763111Y-123747350D01*
X136702445Y-123653073D01*
X136609880Y-123589825D01*
X136577000Y-123583167D01*
X136577000Y-120807426D01*
X137400000Y-120807426D01*
X137502650Y-120788111D01*
X137596927Y-120727445D01*
X137660175Y-120634880D01*
X137682426Y-120525000D01*
X137682426Y-118975000D01*
X137663111Y-118872350D01*
X137602445Y-118778073D01*
X137509880Y-118714825D01*
X137400000Y-118692574D01*
X137127000Y-118692574D01*
X137127000Y-111307426D01*
X137400000Y-111307426D01*
X137502650Y-111288111D01*
X137596927Y-111227445D01*
X137660175Y-111134880D01*
X137682426Y-111025000D01*
X137682426Y-110535750D01*
X139965000Y-110535750D01*
X139965000Y-111151309D01*
X140061673Y-111384698D01*
X140240301Y-111563327D01*
X140473690Y-111660000D01*
X140964250Y-111660000D01*
X141123000Y-111501250D01*
X141123000Y-110377000D01*
X141377000Y-110377000D01*
X141377000Y-111501250D01*
X141535750Y-111660000D01*
X142026310Y-111660000D01*
X142259699Y-111563327D01*
X142438327Y-111384698D01*
X142535000Y-111151309D01*
X142535000Y-110535750D01*
X142376250Y-110377000D01*
X141377000Y-110377000D01*
X141123000Y-110377000D01*
X140123750Y-110377000D01*
X139965000Y-110535750D01*
X137682426Y-110535750D01*
X137682426Y-109475000D01*
X137663111Y-109372350D01*
X137647887Y-109348691D01*
X139965000Y-109348691D01*
X139965000Y-109964250D01*
X140123750Y-110123000D01*
X141123000Y-110123000D01*
X141123000Y-108998750D01*
X141377000Y-108998750D01*
X141377000Y-110123000D01*
X142376250Y-110123000D01*
X142535000Y-109964250D01*
X142535000Y-109348691D01*
X142438327Y-109115302D01*
X142259699Y-108936673D01*
X142026310Y-108840000D01*
X141535750Y-108840000D01*
X141377000Y-108998750D01*
X141123000Y-108998750D01*
X140964250Y-108840000D01*
X140473690Y-108840000D01*
X140240301Y-108936673D01*
X140061673Y-109115302D01*
X139965000Y-109348691D01*
X137647887Y-109348691D01*
X137602445Y-109278073D01*
X137509880Y-109214825D01*
X137400000Y-109192574D01*
X136100000Y-109192574D01*
X135997350Y-109211889D01*
X135903073Y-109272555D01*
X135839825Y-109365120D01*
X135817574Y-109475000D01*
X135817574Y-109873000D01*
X131732426Y-109873000D01*
X131732426Y-109450000D01*
X131713111Y-109347350D01*
X131652445Y-109253073D01*
X131559880Y-109189825D01*
X131450000Y-109167574D01*
X128950000Y-109167574D01*
X128847350Y-109186889D01*
X128753073Y-109247555D01*
X128689825Y-109340120D01*
X128667574Y-109450000D01*
X128667574Y-110550000D01*
X128686889Y-110652650D01*
X128747555Y-110746927D01*
X128840120Y-110810175D01*
X128950000Y-110832426D01*
X131450000Y-110832426D01*
X131552650Y-110813111D01*
X131646927Y-110752445D01*
X131710175Y-110659880D01*
X131716833Y-110627000D01*
X135817574Y-110627000D01*
X135817574Y-111025000D01*
X135836889Y-111127650D01*
X135897555Y-111221927D01*
X135990120Y-111285175D01*
X136100000Y-111307426D01*
X136373000Y-111307426D01*
X136373000Y-118692574D01*
X136100000Y-118692574D01*
X135997350Y-118711889D01*
X135903073Y-118772555D01*
X135839825Y-118865120D01*
X135817574Y-118975000D01*
X135817574Y-120073000D01*
X134382426Y-120073000D01*
X134382426Y-119950000D01*
X134363111Y-119847350D01*
X134332700Y-119800090D01*
X134360175Y-119759880D01*
X134382426Y-119650000D01*
X134382426Y-118650000D01*
X134363111Y-118547350D01*
X134302445Y-118453073D01*
X134209880Y-118389825D01*
X134100000Y-118367574D01*
X133960605Y-118367574D01*
X133948303Y-118305728D01*
X133866579Y-118183421D01*
X131744679Y-116061521D01*
X131756916Y-116000000D01*
X131693964Y-115683521D01*
X131514693Y-115415223D01*
X131246395Y-115235952D01*
X130929916Y-115173000D01*
X129470084Y-115173000D01*
X129153605Y-115235952D01*
X128885307Y-115415223D01*
X128777000Y-115577316D01*
X128777000Y-115256158D01*
X129249946Y-114783212D01*
X129470084Y-114827000D01*
X130929916Y-114827000D01*
X131246395Y-114764048D01*
X131514693Y-114584777D01*
X131693964Y-114316479D01*
X131756916Y-114000000D01*
X131693964Y-113683521D01*
X131514693Y-113415223D01*
X131246395Y-113235952D01*
X130929916Y-113173000D01*
X129470084Y-113173000D01*
X129153605Y-113235952D01*
X128885307Y-113415223D01*
X128706036Y-113683521D01*
X128643084Y-114000000D01*
X128696799Y-114270043D01*
X128133421Y-114833421D01*
X128051697Y-114955728D01*
X128023000Y-115100000D01*
X128023000Y-124438327D01*
X127826479Y-124307016D01*
X127510000Y-124244064D01*
X127193521Y-124307016D01*
X126925223Y-124486287D01*
X126745952Y-124754585D01*
X126683000Y-125071064D01*
X126337000Y-125071064D01*
X126274048Y-124754585D01*
X126094777Y-124486287D01*
X125826479Y-124307016D01*
X125510000Y-124244064D01*
X125193521Y-124307016D01*
X124925223Y-124486287D01*
X124745952Y-124754585D01*
X124683000Y-125071064D01*
X124337000Y-125071064D01*
X124274048Y-124754585D01*
X124094777Y-124486287D01*
X123826479Y-124307016D01*
X123510000Y-124244064D01*
X123193521Y-124307016D01*
X122925223Y-124486287D01*
X122745952Y-124754585D01*
X122683000Y-125071064D01*
X122337000Y-125071064D01*
X122274048Y-124754585D01*
X122094777Y-124486287D01*
X121826479Y-124307016D01*
X121510000Y-124244064D01*
X121193521Y-124307016D01*
X120925223Y-124486287D01*
X120745952Y-124754585D01*
X120683000Y-125071064D01*
X120337000Y-125071064D01*
X120274048Y-124754585D01*
X120094777Y-124486287D01*
X119826479Y-124307016D01*
X119510000Y-124244064D01*
X119193521Y-124307016D01*
X118925223Y-124486287D01*
X118745952Y-124754585D01*
X118687010Y-125050905D01*
X118687010Y-112810010D01*
X118658313Y-112665738D01*
X118576589Y-112543431D01*
X118033158Y-112000000D01*
X128643084Y-112000000D01*
X128706036Y-112316479D01*
X128885307Y-112584777D01*
X129153605Y-112764048D01*
X129470084Y-112827000D01*
X130929916Y-112827000D01*
X131246395Y-112764048D01*
X131514693Y-112584777D01*
X131653525Y-112377000D01*
X132761053Y-112377000D01*
X132872729Y-112488871D01*
X133084724Y-112576900D01*
X133314269Y-112577100D01*
X133526417Y-112489442D01*
X133688871Y-112327271D01*
X133776900Y-112115276D01*
X133777100Y-111885731D01*
X133689442Y-111673583D01*
X133527271Y-111511129D01*
X133315276Y-111423100D01*
X133085731Y-111422900D01*
X132873583Y-111510558D01*
X132760945Y-111623000D01*
X131653525Y-111623000D01*
X131514693Y-111415223D01*
X131246395Y-111235952D01*
X130929916Y-111173000D01*
X129470084Y-111173000D01*
X129153605Y-111235952D01*
X128885307Y-111415223D01*
X128706036Y-111683521D01*
X128643084Y-112000000D01*
X118033158Y-112000000D01*
X116303201Y-110270043D01*
X116356916Y-110000000D01*
X116293964Y-109683521D01*
X116114693Y-109415223D01*
X115846395Y-109235952D01*
X115529916Y-109173000D01*
X114070084Y-109173000D01*
X113753605Y-109235952D01*
X113485307Y-109415223D01*
X113306036Y-109683521D01*
X113243084Y-110000000D01*
X113306036Y-110316479D01*
X113485307Y-110584777D01*
X113753605Y-110764048D01*
X114070084Y-110827000D01*
X115529916Y-110827000D01*
X115750054Y-110783212D01*
X117933010Y-112966168D01*
X117933010Y-113899852D01*
X116666591Y-112633433D01*
X116666589Y-112633430D01*
X116303201Y-112270042D01*
X116356916Y-112000000D01*
X116293964Y-111683521D01*
X116114693Y-111415223D01*
X115846395Y-111235952D01*
X115529916Y-111173000D01*
X114070084Y-111173000D01*
X113753605Y-111235952D01*
X113485307Y-111415223D01*
X113306036Y-111683521D01*
X113243084Y-112000000D01*
X113306036Y-112316479D01*
X113485307Y-112584777D01*
X113753605Y-112764048D01*
X114070084Y-112827000D01*
X115529916Y-112827000D01*
X115750053Y-112783212D01*
X116133430Y-113166589D01*
X116133433Y-113166591D01*
X117423000Y-114456158D01*
X117423000Y-123043842D01*
X116593844Y-123872998D01*
X116518362Y-123872998D01*
X116643803Y-123690256D01*
X116643398Y-123663854D01*
X116427724Y-123251882D01*
X116070813Y-122953804D01*
X115651586Y-122822689D01*
X115946395Y-122764048D01*
X116214693Y-122584777D01*
X116393964Y-122316479D01*
X116456916Y-122000000D01*
X116393964Y-121683521D01*
X116376209Y-121656949D01*
X116566589Y-121466569D01*
X116648313Y-121344262D01*
X116677010Y-121199990D01*
X116677010Y-119668626D01*
X116648313Y-119524354D01*
X116609702Y-119466569D01*
X116566589Y-119402046D01*
X116097953Y-118933411D01*
X115975646Y-118851687D01*
X115831374Y-118822990D01*
X115550075Y-118822990D01*
X115846395Y-118764048D01*
X116114693Y-118584777D01*
X116293964Y-118316479D01*
X116356916Y-118000000D01*
X116293964Y-117683521D01*
X116114693Y-117415223D01*
X115846395Y-117235952D01*
X115529916Y-117173000D01*
X114070084Y-117173000D01*
X113753605Y-117235952D01*
X113485307Y-117415223D01*
X113346475Y-117623000D01*
X109181159Y-117623000D01*
X108627000Y-117068842D01*
X108627000Y-116114269D01*
X111422900Y-116114269D01*
X111510558Y-116326417D01*
X111672729Y-116488871D01*
X111884724Y-116576900D01*
X112114269Y-116577100D01*
X112326417Y-116489442D01*
X112439055Y-116377000D01*
X113346475Y-116377000D01*
X113485307Y-116584777D01*
X113753605Y-116764048D01*
X114070084Y-116827000D01*
X115529916Y-116827000D01*
X115846395Y-116764048D01*
X116114693Y-116584777D01*
X116293964Y-116316479D01*
X116356916Y-116000000D01*
X116293964Y-115683521D01*
X116114693Y-115415223D01*
X115846395Y-115235952D01*
X115529916Y-115173000D01*
X114070084Y-115173000D01*
X113753605Y-115235952D01*
X113485307Y-115415223D01*
X113346475Y-115623000D01*
X112438947Y-115623000D01*
X112327271Y-115511129D01*
X112115276Y-115423100D01*
X111885731Y-115422900D01*
X111673583Y-115510558D01*
X111511129Y-115672729D01*
X111423100Y-115884724D01*
X111422900Y-116114269D01*
X108627000Y-116114269D01*
X108627000Y-114114269D01*
X111172899Y-114114269D01*
X111260557Y-114326417D01*
X111422728Y-114488871D01*
X111634723Y-114576900D01*
X111864268Y-114577100D01*
X112076416Y-114489442D01*
X112189054Y-114377000D01*
X113346475Y-114377000D01*
X113485307Y-114584777D01*
X113753605Y-114764048D01*
X114070084Y-114827000D01*
X115529916Y-114827000D01*
X115846395Y-114764048D01*
X116114693Y-114584777D01*
X116293964Y-114316479D01*
X116356916Y-114000000D01*
X116293964Y-113683521D01*
X116114693Y-113415223D01*
X115846395Y-113235952D01*
X115529916Y-113173000D01*
X114070084Y-113173000D01*
X113753605Y-113235952D01*
X113485307Y-113415223D01*
X113346475Y-113623000D01*
X112188946Y-113623000D01*
X112077270Y-113511129D01*
X111865275Y-113423100D01*
X111635730Y-113422900D01*
X111423582Y-113510558D01*
X111261128Y-113672729D01*
X111173099Y-113884724D01*
X111172899Y-114114269D01*
X108627000Y-114114269D01*
X108627000Y-111307426D01*
X108900000Y-111307426D01*
X109002650Y-111288111D01*
X109096927Y-111227445D01*
X109160175Y-111134880D01*
X109182426Y-111025000D01*
X109182426Y-109475000D01*
X109163111Y-109372350D01*
X109102445Y-109278073D01*
X109009880Y-109214825D01*
X108900000Y-109192574D01*
X107600000Y-109192574D01*
X107497350Y-109211889D01*
X107403073Y-109272555D01*
X107339825Y-109365120D01*
X107317574Y-109475000D01*
X107317574Y-111025000D01*
X107336889Y-111127650D01*
X107397555Y-111221927D01*
X107490120Y-111285175D01*
X107600000Y-111307426D01*
X107873000Y-111307426D01*
X107873000Y-117225000D01*
X107901697Y-117369272D01*
X107983421Y-117491579D01*
X108491841Y-118000000D01*
X107983421Y-118508421D01*
X107901697Y-118630728D01*
X107889395Y-118692574D01*
X107600000Y-118692574D01*
X107497350Y-118711889D01*
X107403073Y-118772555D01*
X107339825Y-118865120D01*
X107317574Y-118975000D01*
X107317574Y-120525000D01*
X107336889Y-120627650D01*
X107397555Y-120721927D01*
X107490120Y-120785175D01*
X107600000Y-120807426D01*
X108900000Y-120807426D01*
X109002650Y-120788111D01*
X109096927Y-120727445D01*
X109160175Y-120634880D01*
X109182426Y-120525000D01*
X109182426Y-120365584D01*
X110890386Y-122073544D01*
X110853073Y-122097555D01*
X110799421Y-122176076D01*
X110752445Y-122103073D01*
X110659880Y-122039825D01*
X110550000Y-122017574D01*
X109850000Y-122017574D01*
X109747350Y-122036889D01*
X109653073Y-122097555D01*
X109589825Y-122190120D01*
X109567574Y-122300000D01*
X109567574Y-122900000D01*
X109586889Y-123002650D01*
X109647555Y-123096927D01*
X109740120Y-123160175D01*
X109823000Y-123176958D01*
X109823000Y-123622654D01*
X109747350Y-123636889D01*
X109653073Y-123697555D01*
X109589825Y-123790120D01*
X109567574Y-123900000D01*
X109567574Y-124500000D01*
X109586889Y-124602650D01*
X109647555Y-124696927D01*
X109740120Y-124760175D01*
X109823000Y-124776958D01*
X109823000Y-126769494D01*
X109801220Y-126769494D01*
X109698570Y-126788809D01*
X109604293Y-126849475D01*
X109541045Y-126942040D01*
X109518794Y-127051920D01*
X109518794Y-127123000D01*
X109147442Y-127123000D01*
X109102445Y-127053073D01*
X109009880Y-126989825D01*
X108900000Y-126967574D01*
X108300000Y-126967574D01*
X108197350Y-126986889D01*
X108103073Y-127047555D01*
X108085687Y-127073000D01*
X107661355Y-127073000D01*
X107632445Y-127028073D01*
X107539880Y-126964825D01*
X107430000Y-126942574D01*
X106370000Y-126942574D01*
X106267350Y-126961889D01*
X106173073Y-127022555D01*
X106109825Y-127115120D01*
X106087574Y-127225000D01*
X106087574Y-127875000D01*
X106106889Y-127977650D01*
X106167555Y-128071927D01*
X106260120Y-128135175D01*
X106370000Y-128157426D01*
X107430000Y-128157426D01*
X107532650Y-128138111D01*
X107626927Y-128077445D01*
X107661395Y-128027000D01*
X107824975Y-128027000D01*
X107761673Y-128090302D01*
X107665000Y-128323691D01*
X107665000Y-128514250D01*
X107823750Y-128673000D01*
X108473000Y-128673000D01*
X108473000Y-128653000D01*
X108727000Y-128653000D01*
X108727000Y-128673000D01*
X108747000Y-128673000D01*
X108747000Y-128927000D01*
X108727000Y-128927000D01*
X108727000Y-128947000D01*
X108473000Y-128947000D01*
X108473000Y-128927000D01*
X107823750Y-128927000D01*
X107665000Y-129085750D01*
X107665000Y-129276309D01*
X107761673Y-129509698D01*
X107876702Y-129624728D01*
X107815000Y-129773690D01*
X107815000Y-129914250D01*
X107973750Y-130073000D01*
X108673000Y-130073000D01*
X108673000Y-130053000D01*
X108927000Y-130053000D01*
X108927000Y-130073000D01*
X108947000Y-130073000D01*
X108947000Y-130327000D01*
X108927000Y-130327000D01*
X108927000Y-130976250D01*
X109085750Y-131135000D01*
X109276309Y-131135000D01*
X109509698Y-131038327D01*
X109688327Y-130859699D01*
X109720335Y-130782426D01*
X110350000Y-130782426D01*
X110452650Y-130763111D01*
X110546927Y-130702445D01*
X110610175Y-130609880D01*
X110632426Y-130500000D01*
X110632426Y-129900000D01*
X110613111Y-129797350D01*
X110552445Y-129703073D01*
X110477000Y-129651523D01*
X110477000Y-129630506D01*
X110598780Y-129630506D01*
X110701430Y-129611191D01*
X110795707Y-129550525D01*
X110858955Y-129457960D01*
X110881206Y-129348080D01*
X110881206Y-128550520D01*
X110861891Y-128447870D01*
X110801225Y-128353593D01*
X110708660Y-128290345D01*
X110598780Y-128268094D01*
X109801220Y-128268094D01*
X109698570Y-128287409D01*
X109604293Y-128348075D01*
X109541045Y-128440640D01*
X109535000Y-128470491D01*
X109535000Y-128323691D01*
X109438327Y-128090302D01*
X109425025Y-128077000D01*
X109643549Y-128077000D01*
X109691340Y-128109655D01*
X109801220Y-128131906D01*
X110598780Y-128131906D01*
X110701430Y-128112591D01*
X110795707Y-128051925D01*
X110848362Y-127974862D01*
X111923000Y-129049500D01*
X111923000Y-131260879D01*
X111911129Y-131272729D01*
X111823100Y-131484724D01*
X111822900Y-131714269D01*
X111910558Y-131926417D01*
X112072729Y-132088871D01*
X112284724Y-132176900D01*
X112302335Y-132176915D01*
X114262710Y-134137290D01*
X114417460Y-134240691D01*
X114529898Y-134263056D01*
X116312150Y-136045308D01*
X116200000Y-136023000D01*
X115417937Y-136023000D01*
X115413111Y-135997350D01*
X115352445Y-135903073D01*
X115259880Y-135839825D01*
X115150000Y-135817574D01*
X114450000Y-135817574D01*
X114347350Y-135836889D01*
X114253073Y-135897555D01*
X114199421Y-135976076D01*
X114152445Y-135903073D01*
X114059880Y-135839825D01*
X113950000Y-135817574D01*
X113335000Y-135817574D01*
X113335000Y-135685750D01*
X113176250Y-135527000D01*
X112527000Y-135527000D01*
X112527000Y-135547000D01*
X112273000Y-135547000D01*
X112273000Y-135527000D01*
X111623750Y-135527000D01*
X111465000Y-135685750D01*
X111465000Y-135876309D01*
X111561673Y-136109698D01*
X111575875Y-136123900D01*
X106005183Y-136123900D01*
X106019966Y-136050900D01*
X106019966Y-135971234D01*
X106097238Y-135939227D01*
X106275867Y-135760599D01*
X106372540Y-135527210D01*
X106372540Y-135459650D01*
X106213790Y-135300900D01*
X105189540Y-135300900D01*
X105189540Y-135347900D01*
X104935540Y-135347900D01*
X104935540Y-135300900D01*
X103911290Y-135300900D01*
X103752540Y-135459650D01*
X103752540Y-135527210D01*
X103849213Y-135760599D01*
X104027842Y-135939227D01*
X104105114Y-135971234D01*
X104105114Y-136050900D01*
X104124429Y-136153550D01*
X104138270Y-136175060D01*
X104127365Y-136191020D01*
X104105114Y-136300900D01*
X104105114Y-136700900D01*
X104124429Y-136803550D01*
X104138270Y-136825060D01*
X104127365Y-136841020D01*
X104105114Y-136950900D01*
X104105114Y-137350900D01*
X104124429Y-137453550D01*
X104138270Y-137475060D01*
X104127365Y-137491020D01*
X104105114Y-137600900D01*
X104105114Y-138000900D01*
X104124429Y-138103550D01*
X104185095Y-138197827D01*
X104277660Y-138261075D01*
X104387540Y-138283326D01*
X104557973Y-138283326D01*
X104530796Y-138301485D01*
X104367783Y-138545451D01*
X104310540Y-138833229D01*
X104310540Y-139168571D01*
X104367783Y-139456349D01*
X104530796Y-139700315D01*
X104774762Y-139863328D01*
X105062540Y-139920571D01*
X105350318Y-139863328D01*
X105594284Y-139700315D01*
X105757297Y-139456349D01*
X105814540Y-139168571D01*
X105814540Y-138833229D01*
X105757297Y-138545451D01*
X105594284Y-138301485D01*
X105567107Y-138283326D01*
X105737540Y-138283326D01*
X105840190Y-138264011D01*
X105934467Y-138203345D01*
X105951853Y-138177900D01*
X106371285Y-138177900D01*
X106391999Y-138208901D01*
X106579192Y-138333978D01*
X106758179Y-138369581D01*
X108520474Y-140131875D01*
X108520474Y-141401700D01*
X108539789Y-141504350D01*
X108600455Y-141598627D01*
X108693020Y-141661875D01*
X108802900Y-141684126D01*
X108917574Y-141684126D01*
X108917574Y-142179665D01*
X108840301Y-142211673D01*
X108661673Y-142390302D01*
X108565000Y-142623691D01*
X108565000Y-142814250D01*
X108723750Y-142973000D01*
X109373000Y-142973000D01*
X109373000Y-142953000D01*
X109627000Y-142953000D01*
X109627000Y-142973000D01*
X110276250Y-142973000D01*
X110435000Y-142814250D01*
X110435000Y-142623691D01*
X110338327Y-142390302D01*
X110159699Y-142211673D01*
X110082426Y-142179665D01*
X110082426Y-142098105D01*
X110136078Y-142017808D01*
X110180001Y-141797000D01*
X110180000Y-141796995D01*
X110180000Y-141684126D01*
X110403100Y-141684126D01*
X110505750Y-141664811D01*
X110600027Y-141604145D01*
X110663275Y-141511580D01*
X110685526Y-141401700D01*
X110685526Y-139598300D01*
X110666211Y-139495650D01*
X110605545Y-139401373D01*
X110512980Y-139338125D01*
X110403100Y-139315874D01*
X109336475Y-139315874D01*
X107548502Y-137527900D01*
X111494740Y-137527900D01*
X111817574Y-137850734D01*
X111817574Y-137879665D01*
X111740301Y-137911673D01*
X111561673Y-138090302D01*
X111465000Y-138323691D01*
X111465000Y-138514250D01*
X111623750Y-138673000D01*
X112273000Y-138673000D01*
X112273000Y-138653000D01*
X112527000Y-138653000D01*
X112527000Y-138673000D01*
X113176250Y-138673000D01*
X113335000Y-138514250D01*
X113335000Y-138382426D01*
X113950000Y-138382426D01*
X114052650Y-138363111D01*
X114146927Y-138302445D01*
X114200579Y-138223924D01*
X114247555Y-138296927D01*
X114340120Y-138360175D01*
X114450000Y-138382426D01*
X115150000Y-138382426D01*
X115252650Y-138363111D01*
X115346927Y-138302445D01*
X115410175Y-138209880D01*
X115416833Y-138177000D01*
X119113651Y-138177000D01*
X119060209Y-138212709D01*
X117262710Y-140010208D01*
X117159309Y-140164958D01*
X117123000Y-140347498D01*
X117123000Y-140824009D01*
X117088327Y-140740301D01*
X116909698Y-140561673D01*
X116676309Y-140465000D01*
X116485750Y-140465000D01*
X116327000Y-140623750D01*
X116327000Y-141273000D01*
X116347000Y-141273000D01*
X116347000Y-141527000D01*
X116327000Y-141527000D01*
X116327000Y-141547000D01*
X116073000Y-141547000D01*
X116073000Y-141527000D01*
X116053000Y-141527000D01*
X116053000Y-141273000D01*
X116073000Y-141273000D01*
X116073000Y-140623750D01*
X115914250Y-140465000D01*
X115723691Y-140465000D01*
X115490302Y-140561673D01*
X115311673Y-140740301D01*
X115279665Y-140817574D01*
X115233575Y-140817574D01*
X114508001Y-140091999D01*
X114320808Y-139966922D01*
X114100000Y-139922999D01*
X114099995Y-139923000D01*
X113479526Y-139923000D01*
X113479526Y-139598300D01*
X113460211Y-139495650D01*
X113399545Y-139401373D01*
X113308862Y-139339411D01*
X113335000Y-139276309D01*
X113335000Y-139085750D01*
X113176250Y-138927000D01*
X112527000Y-138927000D01*
X112527000Y-138947000D01*
X112273000Y-138947000D01*
X112273000Y-138927000D01*
X111623750Y-138927000D01*
X111465000Y-139085750D01*
X111465000Y-139276309D01*
X111490412Y-139337659D01*
X111399973Y-139395855D01*
X111336725Y-139488420D01*
X111314474Y-139598300D01*
X111314474Y-141401700D01*
X111333789Y-141504350D01*
X111394455Y-141598627D01*
X111487020Y-141661875D01*
X111596900Y-141684126D01*
X111820000Y-141684126D01*
X111820000Y-142363999D01*
X111706081Y-142477918D01*
X111657015Y-142477875D01*
X111391554Y-142587561D01*
X111188275Y-142790486D01*
X111078125Y-143055755D01*
X111077875Y-143342985D01*
X111187561Y-143608446D01*
X111390486Y-143811725D01*
X111655755Y-143921875D01*
X111942985Y-143922125D01*
X112208446Y-143812439D01*
X112411725Y-143609514D01*
X112521875Y-143344245D01*
X112521919Y-143294083D01*
X112804998Y-143011003D01*
X112805001Y-143011001D01*
X112895098Y-142876160D01*
X112930078Y-142823809D01*
X112974000Y-142603000D01*
X112974000Y-141684126D01*
X113197100Y-141684126D01*
X113299750Y-141664811D01*
X113394027Y-141604145D01*
X113457275Y-141511580D01*
X113479526Y-141401700D01*
X113479526Y-141077000D01*
X113860998Y-141077000D01*
X114367574Y-141583575D01*
X114367574Y-141700000D01*
X114386889Y-141802650D01*
X114423000Y-141858768D01*
X114423000Y-142549995D01*
X114422999Y-142550000D01*
X114466922Y-142770808D01*
X114591999Y-142958001D01*
X114617574Y-142983576D01*
X114617574Y-143850000D01*
X114636889Y-143952650D01*
X114697555Y-144046927D01*
X114790120Y-144110175D01*
X114900000Y-144132426D01*
X115866424Y-144132426D01*
X116406998Y-144673000D01*
X103032208Y-144673000D01*
X101979539Y-144463612D01*
X101114434Y-143885566D01*
X100780468Y-143385750D01*
X108565000Y-143385750D01*
X108565000Y-143576309D01*
X108661673Y-143809698D01*
X108840301Y-143988327D01*
X109073690Y-144085000D01*
X109214250Y-144085000D01*
X109373000Y-143926250D01*
X109373000Y-143227000D01*
X109627000Y-143227000D01*
X109627000Y-143926250D01*
X109785750Y-144085000D01*
X109926310Y-144085000D01*
X110159699Y-143988327D01*
X110338327Y-143809698D01*
X110435000Y-143576309D01*
X110435000Y-143385750D01*
X110276250Y-143227000D01*
X109627000Y-143227000D01*
X109373000Y-143227000D01*
X108723750Y-143227000D01*
X108565000Y-143385750D01*
X100780468Y-143385750D01*
X100536389Y-143020462D01*
X100327000Y-141967793D01*
X100327000Y-140000900D01*
X101289930Y-140000900D01*
X101349076Y-140298245D01*
X101517508Y-140550322D01*
X101769585Y-140718754D01*
X102066930Y-140777900D01*
X102658150Y-140777900D01*
X102955495Y-140718754D01*
X103207572Y-140550322D01*
X103376004Y-140298245D01*
X103435150Y-140000900D01*
X103376004Y-139703555D01*
X103207572Y-139451478D01*
X102955495Y-139283046D01*
X102658150Y-139223900D01*
X102066930Y-139223900D01*
X101769585Y-139283046D01*
X101517508Y-139451478D01*
X101349076Y-139703555D01*
X101289930Y-140000900D01*
X100327000Y-140000900D01*
X100327000Y-134874590D01*
X103752540Y-134874590D01*
X103752540Y-134942150D01*
X103911290Y-135100900D01*
X104935540Y-135100900D01*
X104935540Y-135053900D01*
X105189540Y-135053900D01*
X105189540Y-135100900D01*
X106213790Y-135100900D01*
X106372540Y-134942150D01*
X106372540Y-134923691D01*
X111465000Y-134923691D01*
X111465000Y-135114250D01*
X111623750Y-135273000D01*
X112273000Y-135273000D01*
X112273000Y-134573750D01*
X112527000Y-134573750D01*
X112527000Y-135273000D01*
X113176250Y-135273000D01*
X113335000Y-135114250D01*
X113335000Y-134923691D01*
X113238327Y-134690302D01*
X113059699Y-134511673D01*
X112826310Y-134415000D01*
X112685750Y-134415000D01*
X112527000Y-134573750D01*
X112273000Y-134573750D01*
X112114250Y-134415000D01*
X111973690Y-134415000D01*
X111740301Y-134511673D01*
X111561673Y-134690302D01*
X111465000Y-134923691D01*
X106372540Y-134923691D01*
X106372540Y-134874590D01*
X106275867Y-134641201D01*
X106097238Y-134462573D01*
X105863849Y-134365900D01*
X105775289Y-134365900D01*
X105814540Y-134168571D01*
X105814540Y-133833229D01*
X105757297Y-133545451D01*
X105594284Y-133301485D01*
X105350318Y-133138472D01*
X105062540Y-133081229D01*
X104774762Y-133138472D01*
X104530796Y-133301485D01*
X104367783Y-133545451D01*
X104310540Y-133833229D01*
X104310540Y-134168571D01*
X104349791Y-134365900D01*
X104261231Y-134365900D01*
X104027842Y-134462573D01*
X103849213Y-134641201D01*
X103752540Y-134874590D01*
X100327000Y-134874590D01*
X100327000Y-133000900D01*
X101289930Y-133000900D01*
X101349076Y-133298245D01*
X101517508Y-133550322D01*
X101769585Y-133718754D01*
X102066930Y-133777900D01*
X102658150Y-133777900D01*
X102955495Y-133718754D01*
X103207572Y-133550322D01*
X103376004Y-133298245D01*
X103435150Y-133000900D01*
X103376004Y-132703555D01*
X103207572Y-132451478D01*
X102955495Y-132283046D01*
X102658150Y-132223900D01*
X102066930Y-132223900D01*
X101769585Y-132283046D01*
X101517508Y-132451478D01*
X101349076Y-132703555D01*
X101289930Y-133000900D01*
X100327000Y-133000900D01*
X100327000Y-130485750D01*
X107815000Y-130485750D01*
X107815000Y-130626310D01*
X107911673Y-130859699D01*
X108090302Y-131038327D01*
X108323691Y-131135000D01*
X108514250Y-131135000D01*
X108673000Y-130976250D01*
X108673000Y-130327000D01*
X107973750Y-130327000D01*
X107815000Y-130485750D01*
X100327000Y-130485750D01*
X100327000Y-126000000D01*
X101923000Y-126000000D01*
X101923000Y-126800000D01*
X101959309Y-126982540D01*
X102062710Y-127137290D01*
X102812710Y-127887290D01*
X102967460Y-127990691D01*
X103150000Y-128027000D01*
X103923000Y-128027000D01*
X103923000Y-128852558D01*
X103853073Y-128897555D01*
X103789825Y-128990120D01*
X103767574Y-129100000D01*
X103767574Y-129700000D01*
X103786889Y-129802650D01*
X103847555Y-129896927D01*
X103940120Y-129960175D01*
X104050000Y-129982426D01*
X104679665Y-129982426D01*
X104711673Y-130059699D01*
X104890302Y-130238327D01*
X105123691Y-130335000D01*
X105314250Y-130335000D01*
X105473000Y-130176250D01*
X105473000Y-129527000D01*
X105727000Y-129527000D01*
X105727000Y-130176250D01*
X105885750Y-130335000D01*
X106076309Y-130335000D01*
X106309698Y-130238327D01*
X106488327Y-130059699D01*
X106585000Y-129826310D01*
X106585000Y-129685750D01*
X106426250Y-129527000D01*
X105727000Y-129527000D01*
X105473000Y-129527000D01*
X105453000Y-129527000D01*
X105453000Y-129273000D01*
X105473000Y-129273000D01*
X105473000Y-128623750D01*
X105727000Y-128623750D01*
X105727000Y-129273000D01*
X106426250Y-129273000D01*
X106585000Y-129114250D01*
X106585000Y-128973690D01*
X106488327Y-128740301D01*
X106309698Y-128561673D01*
X106076309Y-128465000D01*
X105885750Y-128465000D01*
X105727000Y-128623750D01*
X105473000Y-128623750D01*
X105314250Y-128465000D01*
X105123691Y-128465000D01*
X104890302Y-128561673D01*
X104877000Y-128574975D01*
X104877000Y-128157426D01*
X105230000Y-128157426D01*
X105332650Y-128138111D01*
X105426927Y-128077445D01*
X105490175Y-127984880D01*
X105512426Y-127875000D01*
X105512426Y-127495334D01*
X105589698Y-127463327D01*
X105768327Y-127284699D01*
X105865000Y-127051310D01*
X105865000Y-126885750D01*
X105706250Y-126727000D01*
X104827000Y-126727000D01*
X104827000Y-126747000D01*
X104573000Y-126747000D01*
X104573000Y-126727000D01*
X103693750Y-126727000D01*
X103535000Y-126885750D01*
X103535000Y-127051310D01*
X103543984Y-127073000D01*
X103347580Y-127073000D01*
X102877000Y-126602420D01*
X102877000Y-126197580D01*
X102947580Y-126127000D01*
X103543984Y-126127000D01*
X103535000Y-126148690D01*
X103535000Y-126314250D01*
X103693750Y-126473000D01*
X104573000Y-126473000D01*
X104573000Y-126453000D01*
X104827000Y-126453000D01*
X104827000Y-126473000D01*
X105706250Y-126473000D01*
X105865000Y-126314250D01*
X105865000Y-126148690D01*
X105768327Y-125915301D01*
X105589698Y-125736673D01*
X105512426Y-125704666D01*
X105512426Y-125325000D01*
X106087574Y-125325000D01*
X106087574Y-125975000D01*
X106106889Y-126077650D01*
X106167555Y-126171927D01*
X106260120Y-126235175D01*
X106370000Y-126257426D01*
X107430000Y-126257426D01*
X107532650Y-126238111D01*
X107626927Y-126177445D01*
X107690175Y-126084880D01*
X107712426Y-125975000D01*
X107712426Y-125325000D01*
X107693111Y-125222350D01*
X107632445Y-125128073D01*
X107539880Y-125064825D01*
X107430000Y-125042574D01*
X106370000Y-125042574D01*
X106267350Y-125061889D01*
X106173073Y-125122555D01*
X106109825Y-125215120D01*
X106087574Y-125325000D01*
X105512426Y-125325000D01*
X105493111Y-125222350D01*
X105432445Y-125128073D01*
X105339880Y-125064825D01*
X105230000Y-125042574D01*
X104827000Y-125042574D01*
X104827000Y-124682426D01*
X105100000Y-124682426D01*
X105202650Y-124663111D01*
X105296927Y-124602445D01*
X105360175Y-124509880D01*
X105382426Y-124400000D01*
X105382426Y-123200000D01*
X105363111Y-123097350D01*
X105302445Y-123003073D01*
X105209880Y-122939825D01*
X105100000Y-122917574D01*
X103600000Y-122917574D01*
X103497350Y-122936889D01*
X103403073Y-122997555D01*
X103339825Y-123090120D01*
X103317574Y-123200000D01*
X103317574Y-124400000D01*
X103336889Y-124502650D01*
X103397555Y-124596927D01*
X103490120Y-124660175D01*
X103600000Y-124682426D01*
X103873000Y-124682426D01*
X103873000Y-125173000D01*
X102750000Y-125173000D01*
X102567460Y-125209309D01*
X102412710Y-125312710D01*
X102062710Y-125662710D01*
X101959309Y-125817460D01*
X101923000Y-126000000D01*
X100327000Y-126000000D01*
X100327000Y-123942985D01*
X101677875Y-123942985D01*
X101787561Y-124208446D01*
X101990486Y-124411725D01*
X102255755Y-124521875D01*
X102542985Y-124522125D01*
X102808446Y-124412439D01*
X103011725Y-124209514D01*
X103121875Y-123944245D01*
X103122125Y-123657015D01*
X103012439Y-123391554D01*
X103003788Y-123382888D01*
X103609676Y-122777000D01*
X105260998Y-122777000D01*
X106217574Y-123733575D01*
X106217574Y-124400000D01*
X106236889Y-124502650D01*
X106297555Y-124596927D01*
X106390120Y-124660175D01*
X106500000Y-124682426D01*
X108000000Y-124682426D01*
X108102650Y-124663111D01*
X108196927Y-124602445D01*
X108260175Y-124509880D01*
X108282426Y-124400000D01*
X108282426Y-123200000D01*
X108263111Y-123097350D01*
X108202445Y-123003073D01*
X108109880Y-122939825D01*
X108000000Y-122917574D01*
X107033575Y-122917574D01*
X105908001Y-121791999D01*
X105720808Y-121666922D01*
X105500000Y-121622999D01*
X105499995Y-121623000D01*
X103370680Y-121623000D01*
X103370675Y-121622999D01*
X103169076Y-121663101D01*
X103149867Y-121666922D01*
X102962674Y-121791999D01*
X102962672Y-121792002D01*
X101991999Y-122762674D01*
X101866922Y-122949867D01*
X101822999Y-123170675D01*
X101823000Y-123170680D01*
X101823000Y-123355821D01*
X101788275Y-123390486D01*
X101678125Y-123655755D01*
X101677875Y-123942985D01*
X100327000Y-123942985D01*
X100327000Y-120035750D01*
X102465000Y-120035750D01*
X102465000Y-120651309D01*
X102561673Y-120884698D01*
X102740301Y-121063327D01*
X102973690Y-121160000D01*
X103464250Y-121160000D01*
X103623000Y-121001250D01*
X103623000Y-119877000D01*
X103877000Y-119877000D01*
X103877000Y-121001250D01*
X104035750Y-121160000D01*
X104526310Y-121160000D01*
X104759699Y-121063327D01*
X104938327Y-120884698D01*
X105035000Y-120651309D01*
X105035000Y-120035750D01*
X104876250Y-119877000D01*
X103877000Y-119877000D01*
X103623000Y-119877000D01*
X102623750Y-119877000D01*
X102465000Y-120035750D01*
X100327000Y-120035750D01*
X100327000Y-118848691D01*
X102465000Y-118848691D01*
X102465000Y-119464250D01*
X102623750Y-119623000D01*
X103623000Y-119623000D01*
X103623000Y-118498750D01*
X103877000Y-118498750D01*
X103877000Y-119623000D01*
X104876250Y-119623000D01*
X105035000Y-119464250D01*
X105035000Y-118848691D01*
X104938327Y-118615302D01*
X104759699Y-118436673D01*
X104526310Y-118340000D01*
X104035750Y-118340000D01*
X103877000Y-118498750D01*
X103623000Y-118498750D01*
X103464250Y-118340000D01*
X102973690Y-118340000D01*
X102740301Y-118436673D01*
X102561673Y-118615302D01*
X102465000Y-118848691D01*
X100327000Y-118848691D01*
X100327000Y-110535750D01*
X102465000Y-110535750D01*
X102465000Y-111151309D01*
X102561673Y-111384698D01*
X102740301Y-111563327D01*
X102973690Y-111660000D01*
X103464250Y-111660000D01*
X103623000Y-111501250D01*
X103623000Y-110377000D01*
X103877000Y-110377000D01*
X103877000Y-111501250D01*
X104035750Y-111660000D01*
X104526310Y-111660000D01*
X104759699Y-111563327D01*
X104938327Y-111384698D01*
X105035000Y-111151309D01*
X105035000Y-110535750D01*
X104876250Y-110377000D01*
X103877000Y-110377000D01*
X103623000Y-110377000D01*
X102623750Y-110377000D01*
X102465000Y-110535750D01*
X100327000Y-110535750D01*
X100327000Y-109348691D01*
X102465000Y-109348691D01*
X102465000Y-109964250D01*
X102623750Y-110123000D01*
X103623000Y-110123000D01*
X103623000Y-108998750D01*
X103877000Y-108998750D01*
X103877000Y-110123000D01*
X104876250Y-110123000D01*
X105035000Y-109964250D01*
X105035000Y-109348691D01*
X104938327Y-109115302D01*
X104759699Y-108936673D01*
X104526310Y-108840000D01*
X104035750Y-108840000D01*
X103877000Y-108998750D01*
X103623000Y-108998750D01*
X103464250Y-108840000D01*
X102973690Y-108840000D01*
X102740301Y-108936673D01*
X102561673Y-109115302D01*
X102465000Y-109348691D01*
X100327000Y-109348691D01*
X100327000Y-103032207D01*
X100536389Y-101979538D01*
X100923624Y-101400000D01*
X114273000Y-101400000D01*
X114273000Y-107600000D01*
X114281685Y-107646159D01*
X114308965Y-107688553D01*
X114350590Y-107716994D01*
X114400000Y-107727000D01*
X130600000Y-107727000D01*
X130646159Y-107718315D01*
X130688553Y-107691035D01*
X130716994Y-107649410D01*
X130727000Y-107600000D01*
X130727000Y-101400000D01*
X130718315Y-101353841D01*
X130691035Y-101311447D01*
X130649410Y-101283006D01*
X130600000Y-101273000D01*
X114400000Y-101273000D01*
X114353841Y-101281685D01*
X114311447Y-101308965D01*
X114283006Y-101350590D01*
X114273000Y-101400000D01*
X100923624Y-101400000D01*
X101114434Y-101114434D01*
X101979539Y-100536388D01*
X103032208Y-100327000D01*
X116500000Y-100327000D01*
X116531587Y-100320717D01*
X116563794Y-100320717D01*
X117711845Y-100092356D01*
X117829721Y-100043530D01*
X117829722Y-100043529D01*
X118802991Y-99393211D01*
X118893210Y-99302992D01*
X119543529Y-98329722D01*
X119543530Y-98329721D01*
X119563754Y-98280896D01*
X119592356Y-98211846D01*
X119592356Y-98211844D01*
X119773253Y-97302407D01*
X120947735Y-97302407D01*
X121179717Y-97863846D01*
X121608894Y-98293773D01*
X122169928Y-98526735D01*
X122777407Y-98527265D01*
X123338846Y-98295283D01*
X123768773Y-97866106D01*
X124001735Y-97305072D01*
X124002265Y-96697593D01*
X123770283Y-96136154D01*
X123341106Y-95706227D01*
X122780072Y-95473265D01*
X122172593Y-95472735D01*
X121611154Y-95704717D01*
X121181227Y-96133894D01*
X120948265Y-96694928D01*
X120947735Y-97302407D01*
X119773253Y-97302407D01*
X119820717Y-97063794D01*
X120036389Y-95979538D01*
X120614434Y-95114434D01*
X121479539Y-94536388D01*
X122500000Y-94333406D01*
X123520462Y-94536389D01*
X123520462Y-94536389D01*
G37*
X123520462Y-94536389D02*
X124385566Y-95114434D01*
X124963612Y-95979539D01*
X125179283Y-97063794D01*
X125407644Y-98211845D01*
X125456470Y-98329721D01*
X125456471Y-98329722D01*
X126106789Y-99302991D01*
X126197008Y-99393210D01*
X127170278Y-100043529D01*
X127170279Y-100043530D01*
X127219104Y-100063754D01*
X127288154Y-100092356D01*
X127288156Y-100092356D01*
X128436206Y-100320717D01*
X128468413Y-100320717D01*
X128500000Y-100327000D01*
X141967793Y-100327000D01*
X143020462Y-100536389D01*
X143885566Y-101114434D01*
X144463612Y-101979539D01*
X144673000Y-103032208D01*
X144673000Y-141967792D01*
X144463612Y-143020461D01*
X143885566Y-143885566D01*
X143020462Y-144463611D01*
X141967793Y-144673000D01*
X127401580Y-144673000D01*
X129339530Y-142735050D01*
X131666220Y-142735050D01*
X131666220Y-142974389D01*
X131762893Y-143207778D01*
X131941521Y-143386407D01*
X132174910Y-143483080D01*
X132414250Y-143483080D01*
X132573000Y-143324330D01*
X132573000Y-142576300D01*
X132827000Y-142576300D01*
X132827000Y-143324330D01*
X132985750Y-143483080D01*
X133225090Y-143483080D01*
X133458479Y-143386407D01*
X133637107Y-143207778D01*
X133733780Y-142974389D01*
X133733780Y-142735050D01*
X133575030Y-142576300D01*
X132827000Y-142576300D01*
X132573000Y-142576300D01*
X131824970Y-142576300D01*
X131666220Y-142735050D01*
X129339530Y-142735050D01*
X131337290Y-140737290D01*
X131440691Y-140582540D01*
X131477000Y-140400000D01*
X131477000Y-137947442D01*
X131546927Y-137902445D01*
X131610175Y-137809880D01*
X131632426Y-137700000D01*
X131632426Y-137100000D01*
X131613111Y-136997350D01*
X131552445Y-136903073D01*
X131477000Y-136851523D01*
X131477000Y-135347442D01*
X131546927Y-135302445D01*
X131610175Y-135209880D01*
X131632426Y-135100000D01*
X131632426Y-134500000D01*
X131613111Y-134397350D01*
X131552445Y-134303073D01*
X131459880Y-134239825D01*
X131350000Y-134217574D01*
X130650000Y-134217574D01*
X130547350Y-134236889D01*
X130453073Y-134297555D01*
X130399421Y-134376076D01*
X130352445Y-134303073D01*
X130259880Y-134239825D01*
X130150000Y-134217574D01*
X129450000Y-134217574D01*
X129347350Y-134236889D01*
X129253073Y-134297555D01*
X129235687Y-134323000D01*
X129215788Y-134323000D01*
X129211191Y-134298570D01*
X129150525Y-134204293D01*
X129057960Y-134141045D01*
X128948080Y-134118794D01*
X128150520Y-134118794D01*
X128047870Y-134138109D01*
X127953593Y-134198775D01*
X127890345Y-134291340D01*
X127868094Y-134401220D01*
X127868094Y-135198780D01*
X127887409Y-135301430D01*
X127948075Y-135395707D01*
X128040640Y-135458955D01*
X128150520Y-135481206D01*
X128948080Y-135481206D01*
X129050730Y-135461891D01*
X129145007Y-135401225D01*
X129208255Y-135308660D01*
X129214666Y-135277000D01*
X129234732Y-135277000D01*
X129247555Y-135296927D01*
X129340120Y-135360175D01*
X129450000Y-135382426D01*
X130150000Y-135382426D01*
X130252650Y-135363111D01*
X130346927Y-135302445D01*
X130400579Y-135223924D01*
X130447555Y-135296927D01*
X130523000Y-135348477D01*
X130523000Y-136852558D01*
X130453073Y-136897555D01*
X130399421Y-136976076D01*
X130352445Y-136903073D01*
X130259880Y-136839825D01*
X130150000Y-136817574D01*
X129450000Y-136817574D01*
X129347350Y-136836889D01*
X129253073Y-136897555D01*
X129235687Y-136923000D01*
X129166488Y-136923000D01*
X129161891Y-136898570D01*
X129101225Y-136804293D01*
X129008660Y-136741045D01*
X128898780Y-136718794D01*
X128101220Y-136718794D01*
X127998570Y-136738109D01*
X127904293Y-136798775D01*
X127841045Y-136891340D01*
X127818794Y-137001220D01*
X127818794Y-137798780D01*
X127838109Y-137901430D01*
X127898775Y-137995707D01*
X127991340Y-138058955D01*
X128101220Y-138081206D01*
X128898780Y-138081206D01*
X129001430Y-138061891D01*
X129095707Y-138001225D01*
X129158955Y-137908660D01*
X129165366Y-137877000D01*
X129234732Y-137877000D01*
X129247555Y-137896927D01*
X129340120Y-137960175D01*
X129450000Y-137982426D01*
X130150000Y-137982426D01*
X130252650Y-137963111D01*
X130346927Y-137902445D01*
X130400579Y-137823924D01*
X130447555Y-137896927D01*
X130523000Y-137948477D01*
X130523000Y-140202420D01*
X126802420Y-143923000D01*
X125385000Y-143923000D01*
X125385000Y-143835750D01*
X125226250Y-143677000D01*
X124577000Y-143677000D01*
X124577000Y-143697000D01*
X124323000Y-143697000D01*
X124323000Y-143677000D01*
X124303000Y-143677000D01*
X124303000Y-143423000D01*
X124323000Y-143423000D01*
X124323000Y-143403000D01*
X124577000Y-143403000D01*
X124577000Y-143423000D01*
X125226250Y-143423000D01*
X125385000Y-143264250D01*
X125385000Y-143073691D01*
X125288327Y-142840302D01*
X125236242Y-142788217D01*
X125387290Y-142687290D01*
X125497495Y-142577085D01*
X125514269Y-142577100D01*
X125726417Y-142489442D01*
X125888871Y-142327271D01*
X125976900Y-142115276D01*
X125977100Y-141885731D01*
X125889442Y-141673583D01*
X125727271Y-141511129D01*
X125515276Y-141423100D01*
X125376980Y-141422980D01*
X125377039Y-141356119D01*
X127267979Y-139465179D01*
X127349703Y-139342872D01*
X127378400Y-139198600D01*
X127378400Y-138081206D01*
X127400180Y-138081206D01*
X127502830Y-138061891D01*
X127597107Y-138001225D01*
X127660355Y-137908660D01*
X127682606Y-137798780D01*
X127682606Y-137001220D01*
X127663291Y-136898570D01*
X127602625Y-136804293D01*
X127510060Y-136741045D01*
X127400180Y-136718794D01*
X126602620Y-136718794D01*
X126499970Y-136738109D01*
X126405693Y-136798775D01*
X126342445Y-136891340D01*
X126320194Y-137001220D01*
X126320194Y-137798780D01*
X126339509Y-137901430D01*
X126400175Y-137995707D01*
X126492740Y-138058955D01*
X126602620Y-138081206D01*
X126624400Y-138081206D01*
X126624400Y-139042442D01*
X124843804Y-140823038D01*
X124685731Y-140822900D01*
X124473583Y-140910558D01*
X124311129Y-141072729D01*
X124223100Y-141284724D01*
X124222900Y-141514269D01*
X124306904Y-141717574D01*
X124150000Y-141717574D01*
X124047350Y-141736889D01*
X123953073Y-141797555D01*
X123889825Y-141890120D01*
X123873042Y-141973000D01*
X123656158Y-141973000D01*
X123165584Y-141482426D01*
X123422500Y-141482426D01*
X123525150Y-141463111D01*
X123619427Y-141402445D01*
X123682675Y-141309880D01*
X123704926Y-141200000D01*
X123704926Y-140000000D01*
X123685611Y-139897350D01*
X123624945Y-139803073D01*
X123599500Y-139785687D01*
X123599500Y-138422500D01*
X123570803Y-138278228D01*
X123489079Y-138155921D01*
X122866579Y-137533421D01*
X122744272Y-137451697D01*
X122691882Y-137441276D01*
X122966579Y-137166580D01*
X122966581Y-137166577D01*
X123489080Y-136644079D01*
X123543181Y-136563111D01*
X123570803Y-136521772D01*
X123599500Y-136377500D01*
X123599500Y-136215268D01*
X123619427Y-136202445D01*
X123682675Y-136109880D01*
X123704926Y-136000000D01*
X123704926Y-134800000D01*
X123685611Y-134697350D01*
X123624945Y-134603073D01*
X123532380Y-134539825D01*
X123422500Y-134517574D01*
X123022500Y-134517574D01*
X122964500Y-134528487D01*
X122964500Y-134368658D01*
X123356158Y-133977000D01*
X125095762Y-133977000D01*
X126185341Y-135066579D01*
X126307648Y-135148303D01*
X126369494Y-135160605D01*
X126369494Y-135198780D01*
X126388809Y-135301430D01*
X126449475Y-135395707D01*
X126542040Y-135458955D01*
X126651920Y-135481206D01*
X127449480Y-135481206D01*
X127552130Y-135461891D01*
X127646407Y-135401225D01*
X127709655Y-135308660D01*
X127731906Y-135198780D01*
X127731906Y-134401220D01*
X127712591Y-134298570D01*
X127651925Y-134204293D01*
X127559360Y-134141045D01*
X127449480Y-134118794D01*
X126651920Y-134118794D01*
X126549270Y-134138109D01*
X126454993Y-134198775D01*
X126426116Y-134241038D01*
X125518499Y-133333421D01*
X125396192Y-133251697D01*
X125251920Y-133223000D01*
X123200000Y-133223000D01*
X123055728Y-133251697D01*
X122933421Y-133333421D01*
X122320921Y-133945921D01*
X122239197Y-134068228D01*
X122210500Y-134212500D01*
X122210500Y-134529319D01*
X122152500Y-134517574D01*
X122087834Y-134517574D01*
X122055827Y-134440302D01*
X121877199Y-134261673D01*
X121643810Y-134165000D01*
X121576250Y-134165000D01*
X121417500Y-134323750D01*
X121417500Y-135273000D01*
X121464500Y-135273000D01*
X121464500Y-135527000D01*
X121417500Y-135527000D01*
X121417500Y-136476250D01*
X121576250Y-136635000D01*
X121643810Y-136635000D01*
X121877199Y-136538327D01*
X122055827Y-136359698D01*
X122087834Y-136282426D01*
X122152500Y-136282426D01*
X122255150Y-136263111D01*
X122268935Y-136254241D01*
X122277620Y-136260175D01*
X122387500Y-136282426D01*
X122784415Y-136282426D01*
X122433423Y-136633419D01*
X122433420Y-136633421D01*
X122143842Y-136923000D01*
X117256158Y-136923000D01*
X117087850Y-136754692D01*
X117200000Y-136777000D01*
X119847500Y-136777000D01*
X119991772Y-136748303D01*
X120114079Y-136666579D01*
X120314079Y-136466579D01*
X120395803Y-136344272D01*
X120410985Y-136267944D01*
X120482500Y-136282426D01*
X120547166Y-136282426D01*
X120579173Y-136359698D01*
X120757801Y-136538327D01*
X120991190Y-136635000D01*
X121058750Y-136635000D01*
X121217500Y-136476250D01*
X121217500Y-135527000D01*
X121170500Y-135527000D01*
X121170500Y-135273000D01*
X121217500Y-135273000D01*
X121217500Y-134323750D01*
X121059500Y-134165750D01*
X121059500Y-133032426D01*
X121100000Y-133032426D01*
X121202650Y-133013111D01*
X121296927Y-132952445D01*
X121360175Y-132859880D01*
X121382426Y-132750000D01*
X121382426Y-132050000D01*
X121363111Y-131947350D01*
X121302445Y-131853073D01*
X121223924Y-131799421D01*
X121296927Y-131752445D01*
X121360175Y-131659880D01*
X121382426Y-131550000D01*
X121382426Y-130850000D01*
X121363111Y-130747350D01*
X121302445Y-130653073D01*
X121209880Y-130589825D01*
X121177000Y-130583167D01*
X121177000Y-128821384D01*
X121148303Y-128677112D01*
X121104803Y-128612010D01*
X121066580Y-128554805D01*
X119724953Y-127213179D01*
X119826479Y-127192984D01*
X120094777Y-127013713D01*
X120274048Y-126745415D01*
X120337000Y-126428936D01*
X120337000Y-125071064D01*
X120683000Y-125071064D01*
X120683000Y-126428936D01*
X120745952Y-126745415D01*
X120925223Y-127013713D01*
X121193521Y-127192984D01*
X121510000Y-127255936D01*
X121826479Y-127192984D01*
X122094777Y-127013713D01*
X122274048Y-126745415D01*
X122337000Y-126428936D01*
X122337000Y-125071064D01*
X122683000Y-125071064D01*
X122683000Y-126428936D01*
X122745952Y-126745415D01*
X122925223Y-127013713D01*
X123193521Y-127192984D01*
X123510000Y-127255936D01*
X123826479Y-127192984D01*
X124094777Y-127013713D01*
X124274048Y-126745415D01*
X124337000Y-126428936D01*
X124337000Y-125071064D01*
X124683000Y-125071064D01*
X124683000Y-126428936D01*
X124745952Y-126745415D01*
X124925223Y-127013713D01*
X125193521Y-127192984D01*
X125510000Y-127255936D01*
X125826479Y-127192984D01*
X126094777Y-127013713D01*
X126274048Y-126745415D01*
X126337000Y-126428936D01*
X126337000Y-125071064D01*
X126683000Y-125071064D01*
X126683000Y-126428936D01*
X126745952Y-126745415D01*
X126925223Y-127013713D01*
X127193521Y-127192984D01*
X127510000Y-127255936D01*
X127826479Y-127192984D01*
X128094777Y-127013713D01*
X128096437Y-127011229D01*
X128133421Y-127066579D01*
X132333421Y-131266579D01*
X132455728Y-131348303D01*
X132600000Y-131377000D01*
X134200000Y-131377000D01*
X134344272Y-131348303D01*
X134466579Y-131266579D01*
X136466579Y-129266579D01*
X136548303Y-129144272D01*
X136577000Y-129000000D01*
X136577000Y-128217937D01*
X136602650Y-128213111D01*
X136696927Y-128152445D01*
X136760175Y-128059880D01*
X136782426Y-127950000D01*
X136782426Y-127565584D01*
X137373000Y-128156158D01*
X137373000Y-131550000D01*
X137401697Y-131694272D01*
X137483421Y-131816579D01*
X137933421Y-132266579D01*
X138055728Y-132348303D01*
X138200000Y-132377000D01*
X138519563Y-132377000D01*
X138524389Y-132402650D01*
X138585055Y-132496927D01*
X138589109Y-132499697D01*
X138527325Y-132590120D01*
X138520667Y-132623000D01*
X137176980Y-132623000D01*
X137177100Y-132485731D01*
X137089442Y-132273583D01*
X136927271Y-132111129D01*
X136715276Y-132023100D01*
X136485731Y-132022900D01*
X136273583Y-132110558D01*
X136111129Y-132272729D01*
X136023100Y-132484724D01*
X136022900Y-132714269D01*
X136110558Y-132926417D01*
X136272729Y-133088871D01*
X136484724Y-133176900D01*
X136607018Y-133177007D01*
X136511129Y-133272729D01*
X136423100Y-133484724D01*
X136422900Y-133714269D01*
X136510558Y-133926417D01*
X136672729Y-134088871D01*
X136884724Y-134176900D01*
X137043880Y-134177039D01*
X137133420Y-134266579D01*
X137179779Y-134297555D01*
X137255728Y-134348303D01*
X137400000Y-134377000D01*
X138519563Y-134377000D01*
X138524389Y-134402650D01*
X138585055Y-134496927D01*
X138589109Y-134499697D01*
X138527325Y-134590120D01*
X138520667Y-134623000D01*
X138238947Y-134623000D01*
X138127271Y-134511129D01*
X137915276Y-134423100D01*
X137685731Y-134422900D01*
X137473583Y-134510558D01*
X137311129Y-134672729D01*
X137223100Y-134884724D01*
X137222900Y-135114269D01*
X137310558Y-135326417D01*
X137472729Y-135488871D01*
X137499333Y-135499918D01*
X137473583Y-135510558D01*
X137311129Y-135672729D01*
X137223100Y-135884724D01*
X137222900Y-136114269D01*
X137310558Y-136326417D01*
X137406978Y-136423006D01*
X137285731Y-136422900D01*
X137073583Y-136510558D01*
X136911129Y-136672729D01*
X136823100Y-136884724D01*
X136822961Y-137043880D01*
X136243842Y-137623000D01*
X133100000Y-137623000D01*
X132955728Y-137651697D01*
X132833420Y-137733421D01*
X132799267Y-137767574D01*
X132400000Y-137767574D01*
X132297350Y-137786889D01*
X132203073Y-137847555D01*
X132139825Y-137940120D01*
X132117574Y-138050000D01*
X132117574Y-138750000D01*
X132136889Y-138852650D01*
X132197555Y-138946927D01*
X132276076Y-139000579D01*
X132203073Y-139047555D01*
X132139825Y-139140120D01*
X132117574Y-139250000D01*
X132117574Y-139950000D01*
X132136889Y-140052650D01*
X132197555Y-140146927D01*
X132290120Y-140210175D01*
X132323000Y-140216833D01*
X132323000Y-140269494D01*
X132301220Y-140269494D01*
X132198570Y-140288809D01*
X132104293Y-140349475D01*
X132041045Y-140442040D01*
X132018794Y-140551920D01*
X132018794Y-141349480D01*
X132038109Y-141452130D01*
X132048298Y-141467964D01*
X131941521Y-141512193D01*
X131762893Y-141690822D01*
X131666220Y-141924211D01*
X131666220Y-142163550D01*
X131824970Y-142322300D01*
X132573000Y-142322300D01*
X132573000Y-142302300D01*
X132827000Y-142302300D01*
X132827000Y-142322300D01*
X133575030Y-142322300D01*
X133733780Y-142163550D01*
X133733780Y-141924211D01*
X133637107Y-141690822D01*
X133458479Y-141512193D01*
X133352773Y-141468408D01*
X133358955Y-141459360D01*
X133381206Y-141349480D01*
X133381206Y-140551920D01*
X133361891Y-140449270D01*
X133301225Y-140354993D01*
X133208660Y-140291745D01*
X133098780Y-140269494D01*
X133077000Y-140269494D01*
X133077000Y-140217937D01*
X133102650Y-140213111D01*
X133196927Y-140152445D01*
X133260175Y-140059880D01*
X133282426Y-139950000D01*
X133282426Y-139285750D01*
X138152500Y-139285750D01*
X138152500Y-139426309D01*
X138249173Y-139659698D01*
X138427801Y-139838327D01*
X138661190Y-139935000D01*
X139276750Y-139935000D01*
X139435500Y-139776250D01*
X139435500Y-139127000D01*
X139689500Y-139127000D01*
X139689500Y-139776250D01*
X139848250Y-139935000D01*
X140463810Y-139935000D01*
X140697199Y-139838327D01*
X140835525Y-139700000D01*
X142255074Y-139700000D01*
X142255074Y-140900000D01*
X142274389Y-141002650D01*
X142335055Y-141096927D01*
X142427620Y-141160175D01*
X142537500Y-141182426D01*
X144337500Y-141182426D01*
X144440150Y-141163111D01*
X144534427Y-141102445D01*
X144597675Y-141009880D01*
X144619926Y-140900000D01*
X144619926Y-139700000D01*
X144600611Y-139597350D01*
X144539945Y-139503073D01*
X144447380Y-139439825D01*
X144337500Y-139417574D01*
X142537500Y-139417574D01*
X142434850Y-139436889D01*
X142340573Y-139497555D01*
X142277325Y-139590120D01*
X142255074Y-139700000D01*
X140835525Y-139700000D01*
X140875827Y-139659698D01*
X140972500Y-139426309D01*
X140972500Y-139285750D01*
X140813750Y-139127000D01*
X139689500Y-139127000D01*
X139435500Y-139127000D01*
X138311250Y-139127000D01*
X138152500Y-139285750D01*
X133282426Y-139285750D01*
X133282426Y-139250000D01*
X133263111Y-139147350D01*
X133202445Y-139053073D01*
X133123924Y-138999421D01*
X133196927Y-138952445D01*
X133260175Y-138859880D01*
X133282426Y-138750000D01*
X133282426Y-138377000D01*
X136400000Y-138377000D01*
X136544272Y-138348303D01*
X136666579Y-138266579D01*
X137356196Y-137576962D01*
X137514269Y-137577100D01*
X137726417Y-137489442D01*
X137839055Y-137377000D01*
X138519563Y-137377000D01*
X138524389Y-137402650D01*
X138585055Y-137496927D01*
X138589109Y-137499697D01*
X138527325Y-137590120D01*
X138505074Y-137700000D01*
X138505074Y-138129665D01*
X138427801Y-138161673D01*
X138249173Y-138340302D01*
X138152500Y-138573691D01*
X138152500Y-138714250D01*
X138311250Y-138873000D01*
X139435500Y-138873000D01*
X139435500Y-138853000D01*
X139689500Y-138853000D01*
X139689500Y-138873000D01*
X140813750Y-138873000D01*
X140972500Y-138714250D01*
X140972500Y-138573691D01*
X140875827Y-138340302D01*
X140697199Y-138161673D01*
X140619926Y-138129665D01*
X140619926Y-137950732D01*
X140854080Y-137716578D01*
X140935804Y-137594271D01*
X140964501Y-137449999D01*
X140964501Y-130100000D01*
X142255074Y-130100000D01*
X142255074Y-131300000D01*
X142274389Y-131402650D01*
X142335055Y-131496927D01*
X142427620Y-131560175D01*
X142537500Y-131582426D01*
X144337500Y-131582426D01*
X144440150Y-131563111D01*
X144534427Y-131502445D01*
X144597675Y-131409880D01*
X144619926Y-131300000D01*
X144619926Y-130100000D01*
X144600611Y-129997350D01*
X144539945Y-129903073D01*
X144447380Y-129839825D01*
X144337500Y-129817574D01*
X142537500Y-129817574D01*
X142434850Y-129836889D01*
X142340573Y-129897555D01*
X142277325Y-129990120D01*
X142255074Y-130100000D01*
X140964501Y-130100000D01*
X140964501Y-121159749D01*
X141123000Y-121001250D01*
X141123000Y-119877000D01*
X141377000Y-119877000D01*
X141377000Y-121001250D01*
X141535750Y-121160000D01*
X142026310Y-121160000D01*
X142259699Y-121063327D01*
X142438327Y-120884698D01*
X142535000Y-120651309D01*
X142535000Y-120035750D01*
X142376250Y-119877000D01*
X141377000Y-119877000D01*
X141123000Y-119877000D01*
X140123750Y-119877000D01*
X140079453Y-119921297D01*
X139006847Y-118848691D01*
X139965000Y-118848691D01*
X139965000Y-119464250D01*
X140123750Y-119623000D01*
X141123000Y-119623000D01*
X141123000Y-118498750D01*
X141377000Y-118498750D01*
X141377000Y-119623000D01*
X142376250Y-119623000D01*
X142535000Y-119464250D01*
X142535000Y-118848691D01*
X142438327Y-118615302D01*
X142259699Y-118436673D01*
X142026310Y-118340000D01*
X141535750Y-118340000D01*
X141377000Y-118498750D01*
X141123000Y-118498750D01*
X140964250Y-118340000D01*
X140473690Y-118340000D01*
X140240301Y-118436673D01*
X140061673Y-118615302D01*
X139965000Y-118848691D01*
X139006847Y-118848691D01*
X138777000Y-118618844D01*
X138777000Y-114038947D01*
X138888871Y-113927271D01*
X138976900Y-113715276D01*
X138977100Y-113485731D01*
X138889442Y-113273583D01*
X138727271Y-113111129D01*
X138515276Y-113023100D01*
X138285731Y-113022900D01*
X138073583Y-113110558D01*
X137911129Y-113272729D01*
X137823100Y-113484724D01*
X137822900Y-113714269D01*
X137910558Y-113926417D01*
X138023000Y-114039055D01*
X138023000Y-118775002D01*
X138051697Y-118919274D01*
X138133421Y-119041581D01*
X140210501Y-121118662D01*
X140210501Y-131417574D01*
X138787500Y-131417574D01*
X138684850Y-131436889D01*
X138590573Y-131497555D01*
X138527325Y-131590120D01*
X138520667Y-131623000D01*
X138356158Y-131623000D01*
X138127000Y-131393842D01*
X138127000Y-128000000D01*
X138098303Y-127855728D01*
X138016579Y-127733421D01*
X136782426Y-126499268D01*
X136782426Y-126050000D01*
X136763111Y-125947350D01*
X136732700Y-125900090D01*
X136760175Y-125859880D01*
X136782426Y-125750000D01*
X136782426Y-125050000D01*
X136763111Y-124947350D01*
X136702445Y-124853073D01*
X136623924Y-124799421D01*
X136696927Y-124752445D01*
X136760175Y-124659880D01*
X136782426Y-124550000D01*
X136782426Y-123850000D01*
X136763111Y-123747350D01*
X136702445Y-123653073D01*
X136609880Y-123589825D01*
X136577000Y-123583167D01*
X136577000Y-120807426D01*
X137400000Y-120807426D01*
X137502650Y-120788111D01*
X137596927Y-120727445D01*
X137660175Y-120634880D01*
X137682426Y-120525000D01*
X137682426Y-118975000D01*
X137663111Y-118872350D01*
X137602445Y-118778073D01*
X137509880Y-118714825D01*
X137400000Y-118692574D01*
X137127000Y-118692574D01*
X137127000Y-111307426D01*
X137400000Y-111307426D01*
X137502650Y-111288111D01*
X137596927Y-111227445D01*
X137660175Y-111134880D01*
X137682426Y-111025000D01*
X137682426Y-110535750D01*
X139965000Y-110535750D01*
X139965000Y-111151309D01*
X140061673Y-111384698D01*
X140240301Y-111563327D01*
X140473690Y-111660000D01*
X140964250Y-111660000D01*
X141123000Y-111501250D01*
X141123000Y-110377000D01*
X141377000Y-110377000D01*
X141377000Y-111501250D01*
X141535750Y-111660000D01*
X142026310Y-111660000D01*
X142259699Y-111563327D01*
X142438327Y-111384698D01*
X142535000Y-111151309D01*
X142535000Y-110535750D01*
X142376250Y-110377000D01*
X141377000Y-110377000D01*
X141123000Y-110377000D01*
X140123750Y-110377000D01*
X139965000Y-110535750D01*
X137682426Y-110535750D01*
X137682426Y-109475000D01*
X137663111Y-109372350D01*
X137647887Y-109348691D01*
X139965000Y-109348691D01*
X139965000Y-109964250D01*
X140123750Y-110123000D01*
X141123000Y-110123000D01*
X141123000Y-108998750D01*
X141377000Y-108998750D01*
X141377000Y-110123000D01*
X142376250Y-110123000D01*
X142535000Y-109964250D01*
X142535000Y-109348691D01*
X142438327Y-109115302D01*
X142259699Y-108936673D01*
X142026310Y-108840000D01*
X141535750Y-108840000D01*
X141377000Y-108998750D01*
X141123000Y-108998750D01*
X140964250Y-108840000D01*
X140473690Y-108840000D01*
X140240301Y-108936673D01*
X140061673Y-109115302D01*
X139965000Y-109348691D01*
X137647887Y-109348691D01*
X137602445Y-109278073D01*
X137509880Y-109214825D01*
X137400000Y-109192574D01*
X136100000Y-109192574D01*
X135997350Y-109211889D01*
X135903073Y-109272555D01*
X135839825Y-109365120D01*
X135817574Y-109475000D01*
X135817574Y-109873000D01*
X131732426Y-109873000D01*
X131732426Y-109450000D01*
X131713111Y-109347350D01*
X131652445Y-109253073D01*
X131559880Y-109189825D01*
X131450000Y-109167574D01*
X128950000Y-109167574D01*
X128847350Y-109186889D01*
X128753073Y-109247555D01*
X128689825Y-109340120D01*
X128667574Y-109450000D01*
X128667574Y-110550000D01*
X128686889Y-110652650D01*
X128747555Y-110746927D01*
X128840120Y-110810175D01*
X128950000Y-110832426D01*
X131450000Y-110832426D01*
X131552650Y-110813111D01*
X131646927Y-110752445D01*
X131710175Y-110659880D01*
X131716833Y-110627000D01*
X135817574Y-110627000D01*
X135817574Y-111025000D01*
X135836889Y-111127650D01*
X135897555Y-111221927D01*
X135990120Y-111285175D01*
X136100000Y-111307426D01*
X136373000Y-111307426D01*
X136373000Y-118692574D01*
X136100000Y-118692574D01*
X135997350Y-118711889D01*
X135903073Y-118772555D01*
X135839825Y-118865120D01*
X135817574Y-118975000D01*
X135817574Y-120073000D01*
X134382426Y-120073000D01*
X134382426Y-119950000D01*
X134363111Y-119847350D01*
X134332700Y-119800090D01*
X134360175Y-119759880D01*
X134382426Y-119650000D01*
X134382426Y-118650000D01*
X134363111Y-118547350D01*
X134302445Y-118453073D01*
X134209880Y-118389825D01*
X134100000Y-118367574D01*
X133960605Y-118367574D01*
X133948303Y-118305728D01*
X133866579Y-118183421D01*
X131744679Y-116061521D01*
X131756916Y-116000000D01*
X131693964Y-115683521D01*
X131514693Y-115415223D01*
X131246395Y-115235952D01*
X130929916Y-115173000D01*
X129470084Y-115173000D01*
X129153605Y-115235952D01*
X128885307Y-115415223D01*
X128777000Y-115577316D01*
X128777000Y-115256158D01*
X129249946Y-114783212D01*
X129470084Y-114827000D01*
X130929916Y-114827000D01*
X131246395Y-114764048D01*
X131514693Y-114584777D01*
X131693964Y-114316479D01*
X131756916Y-114000000D01*
X131693964Y-113683521D01*
X131514693Y-113415223D01*
X131246395Y-113235952D01*
X130929916Y-113173000D01*
X129470084Y-113173000D01*
X129153605Y-113235952D01*
X128885307Y-113415223D01*
X128706036Y-113683521D01*
X128643084Y-114000000D01*
X128696799Y-114270043D01*
X128133421Y-114833421D01*
X128051697Y-114955728D01*
X128023000Y-115100000D01*
X128023000Y-124438327D01*
X127826479Y-124307016D01*
X127510000Y-124244064D01*
X127193521Y-124307016D01*
X126925223Y-124486287D01*
X126745952Y-124754585D01*
X126683000Y-125071064D01*
X126337000Y-125071064D01*
X126274048Y-124754585D01*
X126094777Y-124486287D01*
X125826479Y-124307016D01*
X125510000Y-124244064D01*
X125193521Y-124307016D01*
X124925223Y-124486287D01*
X124745952Y-124754585D01*
X124683000Y-125071064D01*
X124337000Y-125071064D01*
X124274048Y-124754585D01*
X124094777Y-124486287D01*
X123826479Y-124307016D01*
X123510000Y-124244064D01*
X123193521Y-124307016D01*
X122925223Y-124486287D01*
X122745952Y-124754585D01*
X122683000Y-125071064D01*
X122337000Y-125071064D01*
X122274048Y-124754585D01*
X122094777Y-124486287D01*
X121826479Y-124307016D01*
X121510000Y-124244064D01*
X121193521Y-124307016D01*
X120925223Y-124486287D01*
X120745952Y-124754585D01*
X120683000Y-125071064D01*
X120337000Y-125071064D01*
X120274048Y-124754585D01*
X120094777Y-124486287D01*
X119826479Y-124307016D01*
X119510000Y-124244064D01*
X119193521Y-124307016D01*
X118925223Y-124486287D01*
X118745952Y-124754585D01*
X118687010Y-125050905D01*
X118687010Y-112810010D01*
X118658313Y-112665738D01*
X118576589Y-112543431D01*
X118033158Y-112000000D01*
X128643084Y-112000000D01*
X128706036Y-112316479D01*
X128885307Y-112584777D01*
X129153605Y-112764048D01*
X129470084Y-112827000D01*
X130929916Y-112827000D01*
X131246395Y-112764048D01*
X131514693Y-112584777D01*
X131653525Y-112377000D01*
X132761053Y-112377000D01*
X132872729Y-112488871D01*
X133084724Y-112576900D01*
X133314269Y-112577100D01*
X133526417Y-112489442D01*
X133688871Y-112327271D01*
X133776900Y-112115276D01*
X133777100Y-111885731D01*
X133689442Y-111673583D01*
X133527271Y-111511129D01*
X133315276Y-111423100D01*
X133085731Y-111422900D01*
X132873583Y-111510558D01*
X132760945Y-111623000D01*
X131653525Y-111623000D01*
X131514693Y-111415223D01*
X131246395Y-111235952D01*
X130929916Y-111173000D01*
X129470084Y-111173000D01*
X129153605Y-111235952D01*
X128885307Y-111415223D01*
X128706036Y-111683521D01*
X128643084Y-112000000D01*
X118033158Y-112000000D01*
X116303201Y-110270043D01*
X116356916Y-110000000D01*
X116293964Y-109683521D01*
X116114693Y-109415223D01*
X115846395Y-109235952D01*
X115529916Y-109173000D01*
X114070084Y-109173000D01*
X113753605Y-109235952D01*
X113485307Y-109415223D01*
X113306036Y-109683521D01*
X113243084Y-110000000D01*
X113306036Y-110316479D01*
X113485307Y-110584777D01*
X113753605Y-110764048D01*
X114070084Y-110827000D01*
X115529916Y-110827000D01*
X115750054Y-110783212D01*
X117933010Y-112966168D01*
X117933010Y-113899852D01*
X116666591Y-112633433D01*
X116666589Y-112633430D01*
X116303201Y-112270042D01*
X116356916Y-112000000D01*
X116293964Y-111683521D01*
X116114693Y-111415223D01*
X115846395Y-111235952D01*
X115529916Y-111173000D01*
X114070084Y-111173000D01*
X113753605Y-111235952D01*
X113485307Y-111415223D01*
X113306036Y-111683521D01*
X113243084Y-112000000D01*
X113306036Y-112316479D01*
X113485307Y-112584777D01*
X113753605Y-112764048D01*
X114070084Y-112827000D01*
X115529916Y-112827000D01*
X115750053Y-112783212D01*
X116133430Y-113166589D01*
X116133433Y-113166591D01*
X117423000Y-114456158D01*
X117423000Y-123043842D01*
X116593844Y-123872998D01*
X116518362Y-123872998D01*
X116643803Y-123690256D01*
X116643398Y-123663854D01*
X116427724Y-123251882D01*
X116070813Y-122953804D01*
X115651586Y-122822689D01*
X115946395Y-122764048D01*
X116214693Y-122584777D01*
X116393964Y-122316479D01*
X116456916Y-122000000D01*
X116393964Y-121683521D01*
X116376209Y-121656949D01*
X116566589Y-121466569D01*
X116648313Y-121344262D01*
X116677010Y-121199990D01*
X116677010Y-119668626D01*
X116648313Y-119524354D01*
X116609702Y-119466569D01*
X116566589Y-119402046D01*
X116097953Y-118933411D01*
X115975646Y-118851687D01*
X115831374Y-118822990D01*
X115550075Y-118822990D01*
X115846395Y-118764048D01*
X116114693Y-118584777D01*
X116293964Y-118316479D01*
X116356916Y-118000000D01*
X116293964Y-117683521D01*
X116114693Y-117415223D01*
X115846395Y-117235952D01*
X115529916Y-117173000D01*
X114070084Y-117173000D01*
X113753605Y-117235952D01*
X113485307Y-117415223D01*
X113346475Y-117623000D01*
X109181159Y-117623000D01*
X108627000Y-117068842D01*
X108627000Y-116114269D01*
X111422900Y-116114269D01*
X111510558Y-116326417D01*
X111672729Y-116488871D01*
X111884724Y-116576900D01*
X112114269Y-116577100D01*
X112326417Y-116489442D01*
X112439055Y-116377000D01*
X113346475Y-116377000D01*
X113485307Y-116584777D01*
X113753605Y-116764048D01*
X114070084Y-116827000D01*
X115529916Y-116827000D01*
X115846395Y-116764048D01*
X116114693Y-116584777D01*
X116293964Y-116316479D01*
X116356916Y-116000000D01*
X116293964Y-115683521D01*
X116114693Y-115415223D01*
X115846395Y-115235952D01*
X115529916Y-115173000D01*
X114070084Y-115173000D01*
X113753605Y-115235952D01*
X113485307Y-115415223D01*
X113346475Y-115623000D01*
X112438947Y-115623000D01*
X112327271Y-115511129D01*
X112115276Y-115423100D01*
X111885731Y-115422900D01*
X111673583Y-115510558D01*
X111511129Y-115672729D01*
X111423100Y-115884724D01*
X111422900Y-116114269D01*
X108627000Y-116114269D01*
X108627000Y-114114269D01*
X111172899Y-114114269D01*
X111260557Y-114326417D01*
X111422728Y-114488871D01*
X111634723Y-114576900D01*
X111864268Y-114577100D01*
X112076416Y-114489442D01*
X112189054Y-114377000D01*
X113346475Y-114377000D01*
X113485307Y-114584777D01*
X113753605Y-114764048D01*
X114070084Y-114827000D01*
X115529916Y-114827000D01*
X115846395Y-114764048D01*
X116114693Y-114584777D01*
X116293964Y-114316479D01*
X116356916Y-114000000D01*
X116293964Y-113683521D01*
X116114693Y-113415223D01*
X115846395Y-113235952D01*
X115529916Y-113173000D01*
X114070084Y-113173000D01*
X113753605Y-113235952D01*
X113485307Y-113415223D01*
X113346475Y-113623000D01*
X112188946Y-113623000D01*
X112077270Y-113511129D01*
X111865275Y-113423100D01*
X111635730Y-113422900D01*
X111423582Y-113510558D01*
X111261128Y-113672729D01*
X111173099Y-113884724D01*
X111172899Y-114114269D01*
X108627000Y-114114269D01*
X108627000Y-111307426D01*
X108900000Y-111307426D01*
X109002650Y-111288111D01*
X109096927Y-111227445D01*
X109160175Y-111134880D01*
X109182426Y-111025000D01*
X109182426Y-109475000D01*
X109163111Y-109372350D01*
X109102445Y-109278073D01*
X109009880Y-109214825D01*
X108900000Y-109192574D01*
X107600000Y-109192574D01*
X107497350Y-109211889D01*
X107403073Y-109272555D01*
X107339825Y-109365120D01*
X107317574Y-109475000D01*
X107317574Y-111025000D01*
X107336889Y-111127650D01*
X107397555Y-111221927D01*
X107490120Y-111285175D01*
X107600000Y-111307426D01*
X107873000Y-111307426D01*
X107873000Y-117225000D01*
X107901697Y-117369272D01*
X107983421Y-117491579D01*
X108491841Y-118000000D01*
X107983421Y-118508421D01*
X107901697Y-118630728D01*
X107889395Y-118692574D01*
X107600000Y-118692574D01*
X107497350Y-118711889D01*
X107403073Y-118772555D01*
X107339825Y-118865120D01*
X107317574Y-118975000D01*
X107317574Y-120525000D01*
X107336889Y-120627650D01*
X107397555Y-120721927D01*
X107490120Y-120785175D01*
X107600000Y-120807426D01*
X108900000Y-120807426D01*
X109002650Y-120788111D01*
X109096927Y-120727445D01*
X109160175Y-120634880D01*
X109182426Y-120525000D01*
X109182426Y-120365584D01*
X110890386Y-122073544D01*
X110853073Y-122097555D01*
X110799421Y-122176076D01*
X110752445Y-122103073D01*
X110659880Y-122039825D01*
X110550000Y-122017574D01*
X109850000Y-122017574D01*
X109747350Y-122036889D01*
X109653073Y-122097555D01*
X109589825Y-122190120D01*
X109567574Y-122300000D01*
X109567574Y-122900000D01*
X109586889Y-123002650D01*
X109647555Y-123096927D01*
X109740120Y-123160175D01*
X109823000Y-123176958D01*
X109823000Y-123622654D01*
X109747350Y-123636889D01*
X109653073Y-123697555D01*
X109589825Y-123790120D01*
X109567574Y-123900000D01*
X109567574Y-124500000D01*
X109586889Y-124602650D01*
X109647555Y-124696927D01*
X109740120Y-124760175D01*
X109823000Y-124776958D01*
X109823000Y-126769494D01*
X109801220Y-126769494D01*
X109698570Y-126788809D01*
X109604293Y-126849475D01*
X109541045Y-126942040D01*
X109518794Y-127051920D01*
X109518794Y-127123000D01*
X109147442Y-127123000D01*
X109102445Y-127053073D01*
X109009880Y-126989825D01*
X108900000Y-126967574D01*
X108300000Y-126967574D01*
X108197350Y-126986889D01*
X108103073Y-127047555D01*
X108085687Y-127073000D01*
X107661355Y-127073000D01*
X107632445Y-127028073D01*
X107539880Y-126964825D01*
X107430000Y-126942574D01*
X106370000Y-126942574D01*
X106267350Y-126961889D01*
X106173073Y-127022555D01*
X106109825Y-127115120D01*
X106087574Y-127225000D01*
X106087574Y-127875000D01*
X106106889Y-127977650D01*
X106167555Y-128071927D01*
X106260120Y-128135175D01*
X106370000Y-128157426D01*
X107430000Y-128157426D01*
X107532650Y-128138111D01*
X107626927Y-128077445D01*
X107661395Y-128027000D01*
X107824975Y-128027000D01*
X107761673Y-128090302D01*
X107665000Y-128323691D01*
X107665000Y-128514250D01*
X107823750Y-128673000D01*
X108473000Y-128673000D01*
X108473000Y-128653000D01*
X108727000Y-128653000D01*
X108727000Y-128673000D01*
X108747000Y-128673000D01*
X108747000Y-128927000D01*
X108727000Y-128927000D01*
X108727000Y-128947000D01*
X108473000Y-128947000D01*
X108473000Y-128927000D01*
X107823750Y-128927000D01*
X107665000Y-129085750D01*
X107665000Y-129276309D01*
X107761673Y-129509698D01*
X107876702Y-129624728D01*
X107815000Y-129773690D01*
X107815000Y-129914250D01*
X107973750Y-130073000D01*
X108673000Y-130073000D01*
X108673000Y-130053000D01*
X108927000Y-130053000D01*
X108927000Y-130073000D01*
X108947000Y-130073000D01*
X108947000Y-130327000D01*
X108927000Y-130327000D01*
X108927000Y-130976250D01*
X109085750Y-131135000D01*
X109276309Y-131135000D01*
X109509698Y-131038327D01*
X109688327Y-130859699D01*
X109720335Y-130782426D01*
X110350000Y-130782426D01*
X110452650Y-130763111D01*
X110546927Y-130702445D01*
X110610175Y-130609880D01*
X110632426Y-130500000D01*
X110632426Y-129900000D01*
X110613111Y-129797350D01*
X110552445Y-129703073D01*
X110477000Y-129651523D01*
X110477000Y-129630506D01*
X110598780Y-129630506D01*
X110701430Y-129611191D01*
X110795707Y-129550525D01*
X110858955Y-129457960D01*
X110881206Y-129348080D01*
X110881206Y-128550520D01*
X110861891Y-128447870D01*
X110801225Y-128353593D01*
X110708660Y-128290345D01*
X110598780Y-128268094D01*
X109801220Y-128268094D01*
X109698570Y-128287409D01*
X109604293Y-128348075D01*
X109541045Y-128440640D01*
X109535000Y-128470491D01*
X109535000Y-128323691D01*
X109438327Y-128090302D01*
X109425025Y-128077000D01*
X109643549Y-128077000D01*
X109691340Y-128109655D01*
X109801220Y-128131906D01*
X110598780Y-128131906D01*
X110701430Y-128112591D01*
X110795707Y-128051925D01*
X110848362Y-127974862D01*
X111923000Y-129049500D01*
X111923000Y-131260879D01*
X111911129Y-131272729D01*
X111823100Y-131484724D01*
X111822900Y-131714269D01*
X111910558Y-131926417D01*
X112072729Y-132088871D01*
X112284724Y-132176900D01*
X112302335Y-132176915D01*
X114262710Y-134137290D01*
X114417460Y-134240691D01*
X114529898Y-134263056D01*
X116312150Y-136045308D01*
X116200000Y-136023000D01*
X115417937Y-136023000D01*
X115413111Y-135997350D01*
X115352445Y-135903073D01*
X115259880Y-135839825D01*
X115150000Y-135817574D01*
X114450000Y-135817574D01*
X114347350Y-135836889D01*
X114253073Y-135897555D01*
X114199421Y-135976076D01*
X114152445Y-135903073D01*
X114059880Y-135839825D01*
X113950000Y-135817574D01*
X113335000Y-135817574D01*
X113335000Y-135685750D01*
X113176250Y-135527000D01*
X112527000Y-135527000D01*
X112527000Y-135547000D01*
X112273000Y-135547000D01*
X112273000Y-135527000D01*
X111623750Y-135527000D01*
X111465000Y-135685750D01*
X111465000Y-135876309D01*
X111561673Y-136109698D01*
X111575875Y-136123900D01*
X106005183Y-136123900D01*
X106019966Y-136050900D01*
X106019966Y-135971234D01*
X106097238Y-135939227D01*
X106275867Y-135760599D01*
X106372540Y-135527210D01*
X106372540Y-135459650D01*
X106213790Y-135300900D01*
X105189540Y-135300900D01*
X105189540Y-135347900D01*
X104935540Y-135347900D01*
X104935540Y-135300900D01*
X103911290Y-135300900D01*
X103752540Y-135459650D01*
X103752540Y-135527210D01*
X103849213Y-135760599D01*
X104027842Y-135939227D01*
X104105114Y-135971234D01*
X104105114Y-136050900D01*
X104124429Y-136153550D01*
X104138270Y-136175060D01*
X104127365Y-136191020D01*
X104105114Y-136300900D01*
X104105114Y-136700900D01*
X104124429Y-136803550D01*
X104138270Y-136825060D01*
X104127365Y-136841020D01*
X104105114Y-136950900D01*
X104105114Y-137350900D01*
X104124429Y-137453550D01*
X104138270Y-137475060D01*
X104127365Y-137491020D01*
X104105114Y-137600900D01*
X104105114Y-138000900D01*
X104124429Y-138103550D01*
X104185095Y-138197827D01*
X104277660Y-138261075D01*
X104387540Y-138283326D01*
X104557973Y-138283326D01*
X104530796Y-138301485D01*
X104367783Y-138545451D01*
X104310540Y-138833229D01*
X104310540Y-139168571D01*
X104367783Y-139456349D01*
X104530796Y-139700315D01*
X104774762Y-139863328D01*
X105062540Y-139920571D01*
X105350318Y-139863328D01*
X105594284Y-139700315D01*
X105757297Y-139456349D01*
X105814540Y-139168571D01*
X105814540Y-138833229D01*
X105757297Y-138545451D01*
X105594284Y-138301485D01*
X105567107Y-138283326D01*
X105737540Y-138283326D01*
X105840190Y-138264011D01*
X105934467Y-138203345D01*
X105951853Y-138177900D01*
X106371285Y-138177900D01*
X106391999Y-138208901D01*
X106579192Y-138333978D01*
X106758179Y-138369581D01*
X108520474Y-140131875D01*
X108520474Y-141401700D01*
X108539789Y-141504350D01*
X108600455Y-141598627D01*
X108693020Y-141661875D01*
X108802900Y-141684126D01*
X108917574Y-141684126D01*
X108917574Y-142179665D01*
X108840301Y-142211673D01*
X108661673Y-142390302D01*
X108565000Y-142623691D01*
X108565000Y-142814250D01*
X108723750Y-142973000D01*
X109373000Y-142973000D01*
X109373000Y-142953000D01*
X109627000Y-142953000D01*
X109627000Y-142973000D01*
X110276250Y-142973000D01*
X110435000Y-142814250D01*
X110435000Y-142623691D01*
X110338327Y-142390302D01*
X110159699Y-142211673D01*
X110082426Y-142179665D01*
X110082426Y-142098105D01*
X110136078Y-142017808D01*
X110180001Y-141797000D01*
X110180000Y-141796995D01*
X110180000Y-141684126D01*
X110403100Y-141684126D01*
X110505750Y-141664811D01*
X110600027Y-141604145D01*
X110663275Y-141511580D01*
X110685526Y-141401700D01*
X110685526Y-139598300D01*
X110666211Y-139495650D01*
X110605545Y-139401373D01*
X110512980Y-139338125D01*
X110403100Y-139315874D01*
X109336475Y-139315874D01*
X107548502Y-137527900D01*
X111494740Y-137527900D01*
X111817574Y-137850734D01*
X111817574Y-137879665D01*
X111740301Y-137911673D01*
X111561673Y-138090302D01*
X111465000Y-138323691D01*
X111465000Y-138514250D01*
X111623750Y-138673000D01*
X112273000Y-138673000D01*
X112273000Y-138653000D01*
X112527000Y-138653000D01*
X112527000Y-138673000D01*
X113176250Y-138673000D01*
X113335000Y-138514250D01*
X113335000Y-138382426D01*
X113950000Y-138382426D01*
X114052650Y-138363111D01*
X114146927Y-138302445D01*
X114200579Y-138223924D01*
X114247555Y-138296927D01*
X114340120Y-138360175D01*
X114450000Y-138382426D01*
X115150000Y-138382426D01*
X115252650Y-138363111D01*
X115346927Y-138302445D01*
X115410175Y-138209880D01*
X115416833Y-138177000D01*
X119113651Y-138177000D01*
X119060209Y-138212709D01*
X117262710Y-140010208D01*
X117159309Y-140164958D01*
X117123000Y-140347498D01*
X117123000Y-140824009D01*
X117088327Y-140740301D01*
X116909698Y-140561673D01*
X116676309Y-140465000D01*
X116485750Y-140465000D01*
X116327000Y-140623750D01*
X116327000Y-141273000D01*
X116347000Y-141273000D01*
X116347000Y-141527000D01*
X116327000Y-141527000D01*
X116327000Y-141547000D01*
X116073000Y-141547000D01*
X116073000Y-141527000D01*
X116053000Y-141527000D01*
X116053000Y-141273000D01*
X116073000Y-141273000D01*
X116073000Y-140623750D01*
X115914250Y-140465000D01*
X115723691Y-140465000D01*
X115490302Y-140561673D01*
X115311673Y-140740301D01*
X115279665Y-140817574D01*
X115233575Y-140817574D01*
X114508001Y-140091999D01*
X114320808Y-139966922D01*
X114100000Y-139922999D01*
X114099995Y-139923000D01*
X113479526Y-139923000D01*
X113479526Y-139598300D01*
X113460211Y-139495650D01*
X113399545Y-139401373D01*
X113308862Y-139339411D01*
X113335000Y-139276309D01*
X113335000Y-139085750D01*
X113176250Y-138927000D01*
X112527000Y-138927000D01*
X112527000Y-138947000D01*
X112273000Y-138947000D01*
X112273000Y-138927000D01*
X111623750Y-138927000D01*
X111465000Y-139085750D01*
X111465000Y-139276309D01*
X111490412Y-139337659D01*
X111399973Y-139395855D01*
X111336725Y-139488420D01*
X111314474Y-139598300D01*
X111314474Y-141401700D01*
X111333789Y-141504350D01*
X111394455Y-141598627D01*
X111487020Y-141661875D01*
X111596900Y-141684126D01*
X111820000Y-141684126D01*
X111820000Y-142363999D01*
X111706081Y-142477918D01*
X111657015Y-142477875D01*
X111391554Y-142587561D01*
X111188275Y-142790486D01*
X111078125Y-143055755D01*
X111077875Y-143342985D01*
X111187561Y-143608446D01*
X111390486Y-143811725D01*
X111655755Y-143921875D01*
X111942985Y-143922125D01*
X112208446Y-143812439D01*
X112411725Y-143609514D01*
X112521875Y-143344245D01*
X112521919Y-143294083D01*
X112804998Y-143011003D01*
X112805001Y-143011001D01*
X112895098Y-142876160D01*
X112930078Y-142823809D01*
X112974000Y-142603000D01*
X112974000Y-141684126D01*
X113197100Y-141684126D01*
X113299750Y-141664811D01*
X113394027Y-141604145D01*
X113457275Y-141511580D01*
X113479526Y-141401700D01*
X113479526Y-141077000D01*
X113860998Y-141077000D01*
X114367574Y-141583575D01*
X114367574Y-141700000D01*
X114386889Y-141802650D01*
X114423000Y-141858768D01*
X114423000Y-142549995D01*
X114422999Y-142550000D01*
X114466922Y-142770808D01*
X114591999Y-142958001D01*
X114617574Y-142983576D01*
X114617574Y-143850000D01*
X114636889Y-143952650D01*
X114697555Y-144046927D01*
X114790120Y-144110175D01*
X114900000Y-144132426D01*
X115866424Y-144132426D01*
X116406998Y-144673000D01*
X103032208Y-144673000D01*
X101979539Y-144463612D01*
X101114434Y-143885566D01*
X100780468Y-143385750D01*
X108565000Y-143385750D01*
X108565000Y-143576309D01*
X108661673Y-143809698D01*
X108840301Y-143988327D01*
X109073690Y-144085000D01*
X109214250Y-144085000D01*
X109373000Y-143926250D01*
X109373000Y-143227000D01*
X109627000Y-143227000D01*
X109627000Y-143926250D01*
X109785750Y-144085000D01*
X109926310Y-144085000D01*
X110159699Y-143988327D01*
X110338327Y-143809698D01*
X110435000Y-143576309D01*
X110435000Y-143385750D01*
X110276250Y-143227000D01*
X109627000Y-143227000D01*
X109373000Y-143227000D01*
X108723750Y-143227000D01*
X108565000Y-143385750D01*
X100780468Y-143385750D01*
X100536389Y-143020462D01*
X100327000Y-141967793D01*
X100327000Y-140000900D01*
X101289930Y-140000900D01*
X101349076Y-140298245D01*
X101517508Y-140550322D01*
X101769585Y-140718754D01*
X102066930Y-140777900D01*
X102658150Y-140777900D01*
X102955495Y-140718754D01*
X103207572Y-140550322D01*
X103376004Y-140298245D01*
X103435150Y-140000900D01*
X103376004Y-139703555D01*
X103207572Y-139451478D01*
X102955495Y-139283046D01*
X102658150Y-139223900D01*
X102066930Y-139223900D01*
X101769585Y-139283046D01*
X101517508Y-139451478D01*
X101349076Y-139703555D01*
X101289930Y-140000900D01*
X100327000Y-140000900D01*
X100327000Y-134874590D01*
X103752540Y-134874590D01*
X103752540Y-134942150D01*
X103911290Y-135100900D01*
X104935540Y-135100900D01*
X104935540Y-135053900D01*
X105189540Y-135053900D01*
X105189540Y-135100900D01*
X106213790Y-135100900D01*
X106372540Y-134942150D01*
X106372540Y-134923691D01*
X111465000Y-134923691D01*
X111465000Y-135114250D01*
X111623750Y-135273000D01*
X112273000Y-135273000D01*
X112273000Y-134573750D01*
X112527000Y-134573750D01*
X112527000Y-135273000D01*
X113176250Y-135273000D01*
X113335000Y-135114250D01*
X113335000Y-134923691D01*
X113238327Y-134690302D01*
X113059699Y-134511673D01*
X112826310Y-134415000D01*
X112685750Y-134415000D01*
X112527000Y-134573750D01*
X112273000Y-134573750D01*
X112114250Y-134415000D01*
X111973690Y-134415000D01*
X111740301Y-134511673D01*
X111561673Y-134690302D01*
X111465000Y-134923691D01*
X106372540Y-134923691D01*
X106372540Y-134874590D01*
X106275867Y-134641201D01*
X106097238Y-134462573D01*
X105863849Y-134365900D01*
X105775289Y-134365900D01*
X105814540Y-134168571D01*
X105814540Y-133833229D01*
X105757297Y-133545451D01*
X105594284Y-133301485D01*
X105350318Y-133138472D01*
X105062540Y-133081229D01*
X104774762Y-133138472D01*
X104530796Y-133301485D01*
X104367783Y-133545451D01*
X104310540Y-133833229D01*
X104310540Y-134168571D01*
X104349791Y-134365900D01*
X104261231Y-134365900D01*
X104027842Y-134462573D01*
X103849213Y-134641201D01*
X103752540Y-134874590D01*
X100327000Y-134874590D01*
X100327000Y-133000900D01*
X101289930Y-133000900D01*
X101349076Y-133298245D01*
X101517508Y-133550322D01*
X101769585Y-133718754D01*
X102066930Y-133777900D01*
X102658150Y-133777900D01*
X102955495Y-133718754D01*
X103207572Y-133550322D01*
X103376004Y-133298245D01*
X103435150Y-133000900D01*
X103376004Y-132703555D01*
X103207572Y-132451478D01*
X102955495Y-132283046D01*
X102658150Y-132223900D01*
X102066930Y-132223900D01*
X101769585Y-132283046D01*
X101517508Y-132451478D01*
X101349076Y-132703555D01*
X101289930Y-133000900D01*
X100327000Y-133000900D01*
X100327000Y-130485750D01*
X107815000Y-130485750D01*
X107815000Y-130626310D01*
X107911673Y-130859699D01*
X108090302Y-131038327D01*
X108323691Y-131135000D01*
X108514250Y-131135000D01*
X108673000Y-130976250D01*
X108673000Y-130327000D01*
X107973750Y-130327000D01*
X107815000Y-130485750D01*
X100327000Y-130485750D01*
X100327000Y-126000000D01*
X101923000Y-126000000D01*
X101923000Y-126800000D01*
X101959309Y-126982540D01*
X102062710Y-127137290D01*
X102812710Y-127887290D01*
X102967460Y-127990691D01*
X103150000Y-128027000D01*
X103923000Y-128027000D01*
X103923000Y-128852558D01*
X103853073Y-128897555D01*
X103789825Y-128990120D01*
X103767574Y-129100000D01*
X103767574Y-129700000D01*
X103786889Y-129802650D01*
X103847555Y-129896927D01*
X103940120Y-129960175D01*
X104050000Y-129982426D01*
X104679665Y-129982426D01*
X104711673Y-130059699D01*
X104890302Y-130238327D01*
X105123691Y-130335000D01*
X105314250Y-130335000D01*
X105473000Y-130176250D01*
X105473000Y-129527000D01*
X105727000Y-129527000D01*
X105727000Y-130176250D01*
X105885750Y-130335000D01*
X106076309Y-130335000D01*
X106309698Y-130238327D01*
X106488327Y-130059699D01*
X106585000Y-129826310D01*
X106585000Y-129685750D01*
X106426250Y-129527000D01*
X105727000Y-129527000D01*
X105473000Y-129527000D01*
X105453000Y-129527000D01*
X105453000Y-129273000D01*
X105473000Y-129273000D01*
X105473000Y-128623750D01*
X105727000Y-128623750D01*
X105727000Y-129273000D01*
X106426250Y-129273000D01*
X106585000Y-129114250D01*
X106585000Y-128973690D01*
X106488327Y-128740301D01*
X106309698Y-128561673D01*
X106076309Y-128465000D01*
X105885750Y-128465000D01*
X105727000Y-128623750D01*
X105473000Y-128623750D01*
X105314250Y-128465000D01*
X105123691Y-128465000D01*
X104890302Y-128561673D01*
X104877000Y-128574975D01*
X104877000Y-128157426D01*
X105230000Y-128157426D01*
X105332650Y-128138111D01*
X105426927Y-128077445D01*
X105490175Y-127984880D01*
X105512426Y-127875000D01*
X105512426Y-127495334D01*
X105589698Y-127463327D01*
X105768327Y-127284699D01*
X105865000Y-127051310D01*
X105865000Y-126885750D01*
X105706250Y-126727000D01*
X104827000Y-126727000D01*
X104827000Y-126747000D01*
X104573000Y-126747000D01*
X104573000Y-126727000D01*
X103693750Y-126727000D01*
X103535000Y-126885750D01*
X103535000Y-127051310D01*
X103543984Y-127073000D01*
X103347580Y-127073000D01*
X102877000Y-126602420D01*
X102877000Y-126197580D01*
X102947580Y-126127000D01*
X103543984Y-126127000D01*
X103535000Y-126148690D01*
X103535000Y-126314250D01*
X103693750Y-126473000D01*
X104573000Y-126473000D01*
X104573000Y-126453000D01*
X104827000Y-126453000D01*
X104827000Y-126473000D01*
X105706250Y-126473000D01*
X105865000Y-126314250D01*
X105865000Y-126148690D01*
X105768327Y-125915301D01*
X105589698Y-125736673D01*
X105512426Y-125704666D01*
X105512426Y-125325000D01*
X106087574Y-125325000D01*
X106087574Y-125975000D01*
X106106889Y-126077650D01*
X106167555Y-126171927D01*
X106260120Y-126235175D01*
X106370000Y-126257426D01*
X107430000Y-126257426D01*
X107532650Y-126238111D01*
X107626927Y-126177445D01*
X107690175Y-126084880D01*
X107712426Y-125975000D01*
X107712426Y-125325000D01*
X107693111Y-125222350D01*
X107632445Y-125128073D01*
X107539880Y-125064825D01*
X107430000Y-125042574D01*
X106370000Y-125042574D01*
X106267350Y-125061889D01*
X106173073Y-125122555D01*
X106109825Y-125215120D01*
X106087574Y-125325000D01*
X105512426Y-125325000D01*
X105493111Y-125222350D01*
X105432445Y-125128073D01*
X105339880Y-125064825D01*
X105230000Y-125042574D01*
X104827000Y-125042574D01*
X104827000Y-124682426D01*
X105100000Y-124682426D01*
X105202650Y-124663111D01*
X105296927Y-124602445D01*
X105360175Y-124509880D01*
X105382426Y-124400000D01*
X105382426Y-123200000D01*
X105363111Y-123097350D01*
X105302445Y-123003073D01*
X105209880Y-122939825D01*
X105100000Y-122917574D01*
X103600000Y-122917574D01*
X103497350Y-122936889D01*
X103403073Y-122997555D01*
X103339825Y-123090120D01*
X103317574Y-123200000D01*
X103317574Y-124400000D01*
X103336889Y-124502650D01*
X103397555Y-124596927D01*
X103490120Y-124660175D01*
X103600000Y-124682426D01*
X103873000Y-124682426D01*
X103873000Y-125173000D01*
X102750000Y-125173000D01*
X102567460Y-125209309D01*
X102412710Y-125312710D01*
X102062710Y-125662710D01*
X101959309Y-125817460D01*
X101923000Y-126000000D01*
X100327000Y-126000000D01*
X100327000Y-123942985D01*
X101677875Y-123942985D01*
X101787561Y-124208446D01*
X101990486Y-124411725D01*
X102255755Y-124521875D01*
X102542985Y-124522125D01*
X102808446Y-124412439D01*
X103011725Y-124209514D01*
X103121875Y-123944245D01*
X103122125Y-123657015D01*
X103012439Y-123391554D01*
X103003788Y-123382888D01*
X103609676Y-122777000D01*
X105260998Y-122777000D01*
X106217574Y-123733575D01*
X106217574Y-124400000D01*
X106236889Y-124502650D01*
X106297555Y-124596927D01*
X106390120Y-124660175D01*
X106500000Y-124682426D01*
X108000000Y-124682426D01*
X108102650Y-124663111D01*
X108196927Y-124602445D01*
X108260175Y-124509880D01*
X108282426Y-124400000D01*
X108282426Y-123200000D01*
X108263111Y-123097350D01*
X108202445Y-123003073D01*
X108109880Y-122939825D01*
X108000000Y-122917574D01*
X107033575Y-122917574D01*
X105908001Y-121791999D01*
X105720808Y-121666922D01*
X105500000Y-121622999D01*
X105499995Y-121623000D01*
X103370680Y-121623000D01*
X103370675Y-121622999D01*
X103169076Y-121663101D01*
X103149867Y-121666922D01*
X102962674Y-121791999D01*
X102962672Y-121792002D01*
X101991999Y-122762674D01*
X101866922Y-122949867D01*
X101822999Y-123170675D01*
X101823000Y-123170680D01*
X101823000Y-123355821D01*
X101788275Y-123390486D01*
X101678125Y-123655755D01*
X101677875Y-123942985D01*
X100327000Y-123942985D01*
X100327000Y-120035750D01*
X102465000Y-120035750D01*
X102465000Y-120651309D01*
X102561673Y-120884698D01*
X102740301Y-121063327D01*
X102973690Y-121160000D01*
X103464250Y-121160000D01*
X103623000Y-121001250D01*
X103623000Y-119877000D01*
X103877000Y-119877000D01*
X103877000Y-121001250D01*
X104035750Y-121160000D01*
X104526310Y-121160000D01*
X104759699Y-121063327D01*
X104938327Y-120884698D01*
X105035000Y-120651309D01*
X105035000Y-120035750D01*
X104876250Y-119877000D01*
X103877000Y-119877000D01*
X103623000Y-119877000D01*
X102623750Y-119877000D01*
X102465000Y-120035750D01*
X100327000Y-120035750D01*
X100327000Y-118848691D01*
X102465000Y-118848691D01*
X102465000Y-119464250D01*
X102623750Y-119623000D01*
X103623000Y-119623000D01*
X103623000Y-118498750D01*
X103877000Y-118498750D01*
X103877000Y-119623000D01*
X104876250Y-119623000D01*
X105035000Y-119464250D01*
X105035000Y-118848691D01*
X104938327Y-118615302D01*
X104759699Y-118436673D01*
X104526310Y-118340000D01*
X104035750Y-118340000D01*
X103877000Y-118498750D01*
X103623000Y-118498750D01*
X103464250Y-118340000D01*
X102973690Y-118340000D01*
X102740301Y-118436673D01*
X102561673Y-118615302D01*
X102465000Y-118848691D01*
X100327000Y-118848691D01*
X100327000Y-110535750D01*
X102465000Y-110535750D01*
X102465000Y-111151309D01*
X102561673Y-111384698D01*
X102740301Y-111563327D01*
X102973690Y-111660000D01*
X103464250Y-111660000D01*
X103623000Y-111501250D01*
X103623000Y-110377000D01*
X103877000Y-110377000D01*
X103877000Y-111501250D01*
X104035750Y-111660000D01*
X104526310Y-111660000D01*
X104759699Y-111563327D01*
X104938327Y-111384698D01*
X105035000Y-111151309D01*
X105035000Y-110535750D01*
X104876250Y-110377000D01*
X103877000Y-110377000D01*
X103623000Y-110377000D01*
X102623750Y-110377000D01*
X102465000Y-110535750D01*
X100327000Y-110535750D01*
X100327000Y-109348691D01*
X102465000Y-109348691D01*
X102465000Y-109964250D01*
X102623750Y-110123000D01*
X103623000Y-110123000D01*
X103623000Y-108998750D01*
X103877000Y-108998750D01*
X103877000Y-110123000D01*
X104876250Y-110123000D01*
X105035000Y-109964250D01*
X105035000Y-109348691D01*
X104938327Y-109115302D01*
X104759699Y-108936673D01*
X104526310Y-108840000D01*
X104035750Y-108840000D01*
X103877000Y-108998750D01*
X103623000Y-108998750D01*
X103464250Y-108840000D01*
X102973690Y-108840000D01*
X102740301Y-108936673D01*
X102561673Y-109115302D01*
X102465000Y-109348691D01*
X100327000Y-109348691D01*
X100327000Y-103032207D01*
X100536389Y-101979538D01*
X100923624Y-101400000D01*
X114273000Y-101400000D01*
X114273000Y-107600000D01*
X114281685Y-107646159D01*
X114308965Y-107688553D01*
X114350590Y-107716994D01*
X114400000Y-107727000D01*
X130600000Y-107727000D01*
X130646159Y-107718315D01*
X130688553Y-107691035D01*
X130716994Y-107649410D01*
X130727000Y-107600000D01*
X130727000Y-101400000D01*
X130718315Y-101353841D01*
X130691035Y-101311447D01*
X130649410Y-101283006D01*
X130600000Y-101273000D01*
X114400000Y-101273000D01*
X114353841Y-101281685D01*
X114311447Y-101308965D01*
X114283006Y-101350590D01*
X114273000Y-101400000D01*
X100923624Y-101400000D01*
X101114434Y-101114434D01*
X101979539Y-100536388D01*
X103032208Y-100327000D01*
X116500000Y-100327000D01*
X116531587Y-100320717D01*
X116563794Y-100320717D01*
X117711845Y-100092356D01*
X117829721Y-100043530D01*
X117829722Y-100043529D01*
X118802991Y-99393211D01*
X118893210Y-99302992D01*
X119543529Y-98329722D01*
X119543530Y-98329721D01*
X119563754Y-98280896D01*
X119592356Y-98211846D01*
X119592356Y-98211844D01*
X119773253Y-97302407D01*
X120947735Y-97302407D01*
X121179717Y-97863846D01*
X121608894Y-98293773D01*
X122169928Y-98526735D01*
X122777407Y-98527265D01*
X123338846Y-98295283D01*
X123768773Y-97866106D01*
X124001735Y-97305072D01*
X124002265Y-96697593D01*
X123770283Y-96136154D01*
X123341106Y-95706227D01*
X122780072Y-95473265D01*
X122172593Y-95472735D01*
X121611154Y-95704717D01*
X121181227Y-96133894D01*
X120948265Y-96694928D01*
X120947735Y-97302407D01*
X119773253Y-97302407D01*
X119820717Y-97063794D01*
X120036389Y-95979538D01*
X120614434Y-95114434D01*
X121479539Y-94536388D01*
X122500000Y-94333406D01*
X123520462Y-94536389D01*
G36*
X128885307Y-124584777D02*
X129153605Y-124764048D01*
X129470084Y-124827000D01*
X130929916Y-124827000D01*
X131246395Y-124764048D01*
X131514693Y-124584777D01*
X131586707Y-124477000D01*
X131602420Y-124477000D01*
X131923000Y-124797580D01*
X131923000Y-127860879D01*
X131911129Y-127872729D01*
X131823100Y-128084724D01*
X131822900Y-128314269D01*
X131910558Y-128526417D01*
X132072729Y-128688871D01*
X132284724Y-128776900D01*
X132514269Y-128777100D01*
X132726417Y-128689442D01*
X132888871Y-128527271D01*
X132976900Y-128315276D01*
X132977100Y-128085731D01*
X132889442Y-127873583D01*
X132877000Y-127861119D01*
X132877000Y-127385000D01*
X133314250Y-127385000D01*
X133473000Y-127226250D01*
X133473000Y-126377000D01*
X133727000Y-126377000D01*
X133727000Y-127226250D01*
X133885750Y-127385000D01*
X134351310Y-127385000D01*
X134584699Y-127288327D01*
X134763327Y-127109698D01*
X134860000Y-126876309D01*
X134860000Y-126535750D01*
X134701250Y-126377000D01*
X133727000Y-126377000D01*
X133473000Y-126377000D01*
X133453000Y-126377000D01*
X133453000Y-126123000D01*
X133473000Y-126123000D01*
X133473000Y-125273750D01*
X133314250Y-125115000D01*
X132877000Y-125115000D01*
X132877000Y-125012581D01*
X132975000Y-125032426D01*
X133957846Y-125032426D01*
X134040420Y-125115000D01*
X133885750Y-125115000D01*
X133727000Y-125273750D01*
X133727000Y-126123000D01*
X134701250Y-126123000D01*
X134860000Y-125964250D01*
X134860000Y-125849153D01*
X135000000Y-125877000D01*
X135652558Y-125877000D01*
X135667300Y-125899910D01*
X135639825Y-125940120D01*
X135617574Y-126050000D01*
X135617574Y-126750000D01*
X135636889Y-126852650D01*
X135697555Y-126946927D01*
X135776076Y-127000579D01*
X135703073Y-127047555D01*
X135639825Y-127140120D01*
X135617574Y-127250000D01*
X135617574Y-127950000D01*
X135636889Y-128052650D01*
X135697555Y-128146927D01*
X135790120Y-128210175D01*
X135823000Y-128216833D01*
X135823000Y-128843842D01*
X134043842Y-130623000D01*
X132756158Y-130623000D01*
X128777000Y-126643842D01*
X128777000Y-124422684D01*
X128885307Y-124584777D01*
X128885307Y-124584777D01*
G37*
X128885307Y-124584777D02*
X129153605Y-124764048D01*
X129470084Y-124827000D01*
X130929916Y-124827000D01*
X131246395Y-124764048D01*
X131514693Y-124584777D01*
X131586707Y-124477000D01*
X131602420Y-124477000D01*
X131923000Y-124797580D01*
X131923000Y-127860879D01*
X131911129Y-127872729D01*
X131823100Y-128084724D01*
X131822900Y-128314269D01*
X131910558Y-128526417D01*
X132072729Y-128688871D01*
X132284724Y-128776900D01*
X132514269Y-128777100D01*
X132726417Y-128689442D01*
X132888871Y-128527271D01*
X132976900Y-128315276D01*
X132977100Y-128085731D01*
X132889442Y-127873583D01*
X132877000Y-127861119D01*
X132877000Y-127385000D01*
X133314250Y-127385000D01*
X133473000Y-127226250D01*
X133473000Y-126377000D01*
X133727000Y-126377000D01*
X133727000Y-127226250D01*
X133885750Y-127385000D01*
X134351310Y-127385000D01*
X134584699Y-127288327D01*
X134763327Y-127109698D01*
X134860000Y-126876309D01*
X134860000Y-126535750D01*
X134701250Y-126377000D01*
X133727000Y-126377000D01*
X133473000Y-126377000D01*
X133453000Y-126377000D01*
X133453000Y-126123000D01*
X133473000Y-126123000D01*
X133473000Y-125273750D01*
X133314250Y-125115000D01*
X132877000Y-125115000D01*
X132877000Y-125012581D01*
X132975000Y-125032426D01*
X133957846Y-125032426D01*
X134040420Y-125115000D01*
X133885750Y-125115000D01*
X133727000Y-125273750D01*
X133727000Y-126123000D01*
X134701250Y-126123000D01*
X134860000Y-125964250D01*
X134860000Y-125849153D01*
X135000000Y-125877000D01*
X135652558Y-125877000D01*
X135667300Y-125899910D01*
X135639825Y-125940120D01*
X135617574Y-126050000D01*
X135617574Y-126750000D01*
X135636889Y-126852650D01*
X135697555Y-126946927D01*
X135776076Y-127000579D01*
X135703073Y-127047555D01*
X135639825Y-127140120D01*
X135617574Y-127250000D01*
X135617574Y-127950000D01*
X135636889Y-128052650D01*
X135697555Y-128146927D01*
X135790120Y-128210175D01*
X135823000Y-128216833D01*
X135823000Y-128843842D01*
X134043842Y-130623000D01*
X132756158Y-130623000D01*
X128777000Y-126643842D01*
X128777000Y-124422684D01*
X128885307Y-124584777D01*
G36*
X120840500Y-139153078D02*
X120840500Y-139465750D01*
X120782500Y-139523750D01*
X120782500Y-140473000D01*
X120829500Y-140473000D01*
X120829500Y-140727000D01*
X120782500Y-140727000D01*
X120782500Y-141676250D01*
X120941250Y-141835000D01*
X121008810Y-141835000D01*
X121242199Y-141738327D01*
X121420827Y-141559698D01*
X121452834Y-141482426D01*
X121517500Y-141482426D01*
X121620150Y-141463111D01*
X121633935Y-141454241D01*
X121642620Y-141460175D01*
X121752500Y-141482426D01*
X121901768Y-141482426D01*
X122672998Y-142253657D01*
X122672998Y-142298748D01*
X122514250Y-142140000D01*
X122173691Y-142140000D01*
X121940302Y-142236673D01*
X121761673Y-142415301D01*
X121665000Y-142648690D01*
X121665000Y-143114250D01*
X121823750Y-143273000D01*
X122673000Y-143273000D01*
X122673000Y-143253000D01*
X122927000Y-143253000D01*
X122927000Y-143273000D01*
X122947000Y-143273000D01*
X122947000Y-143527000D01*
X122927000Y-143527000D01*
X122927000Y-143547000D01*
X122673000Y-143547000D01*
X122673000Y-143527000D01*
X121823750Y-143527000D01*
X121737665Y-143613085D01*
X121582426Y-143457846D01*
X121582426Y-142775000D01*
X121563111Y-142672350D01*
X121502445Y-142578073D01*
X121409880Y-142514825D01*
X121300000Y-142492574D01*
X120503279Y-142492574D01*
X120576900Y-142315276D01*
X120577100Y-142085731D01*
X120489442Y-141873583D01*
X120437350Y-141821400D01*
X120582500Y-141676250D01*
X120582500Y-140727000D01*
X120535500Y-140727000D01*
X120535500Y-140473000D01*
X120582500Y-140473000D01*
X120582500Y-139523750D01*
X120423750Y-139365000D01*
X120356190Y-139365000D01*
X120122801Y-139461673D01*
X119944173Y-139640302D01*
X119912166Y-139717574D01*
X119847500Y-139717574D01*
X119744850Y-139736889D01*
X119731065Y-139745759D01*
X119722380Y-139739825D01*
X119612500Y-139717574D01*
X119212500Y-139717574D01*
X119109850Y-139736889D01*
X119096065Y-139745759D01*
X119087380Y-139739825D01*
X118977500Y-139717574D01*
X118904504Y-139717574D01*
X119595079Y-139026999D01*
X120714421Y-139026999D01*
X120840500Y-139153078D01*
X120840500Y-139153078D01*
G37*
X120840500Y-139153078D02*
X120840500Y-139465750D01*
X120782500Y-139523750D01*
X120782500Y-140473000D01*
X120829500Y-140473000D01*
X120829500Y-140727000D01*
X120782500Y-140727000D01*
X120782500Y-141676250D01*
X120941250Y-141835000D01*
X121008810Y-141835000D01*
X121242199Y-141738327D01*
X121420827Y-141559698D01*
X121452834Y-141482426D01*
X121517500Y-141482426D01*
X121620150Y-141463111D01*
X121633935Y-141454241D01*
X121642620Y-141460175D01*
X121752500Y-141482426D01*
X121901768Y-141482426D01*
X122672998Y-142253657D01*
X122672998Y-142298748D01*
X122514250Y-142140000D01*
X122173691Y-142140000D01*
X121940302Y-142236673D01*
X121761673Y-142415301D01*
X121665000Y-142648690D01*
X121665000Y-143114250D01*
X121823750Y-143273000D01*
X122673000Y-143273000D01*
X122673000Y-143253000D01*
X122927000Y-143253000D01*
X122927000Y-143273000D01*
X122947000Y-143273000D01*
X122947000Y-143527000D01*
X122927000Y-143527000D01*
X122927000Y-143547000D01*
X122673000Y-143547000D01*
X122673000Y-143527000D01*
X121823750Y-143527000D01*
X121737665Y-143613085D01*
X121582426Y-143457846D01*
X121582426Y-142775000D01*
X121563111Y-142672350D01*
X121502445Y-142578073D01*
X121409880Y-142514825D01*
X121300000Y-142492574D01*
X120503279Y-142492574D01*
X120576900Y-142315276D01*
X120577100Y-142085731D01*
X120489442Y-141873583D01*
X120437350Y-141821400D01*
X120582500Y-141676250D01*
X120582500Y-140727000D01*
X120535500Y-140727000D01*
X120535500Y-140473000D01*
X120582500Y-140473000D01*
X120582500Y-139523750D01*
X120423750Y-139365000D01*
X120356190Y-139365000D01*
X120122801Y-139461673D01*
X119944173Y-139640302D01*
X119912166Y-139717574D01*
X119847500Y-139717574D01*
X119744850Y-139736889D01*
X119731065Y-139745759D01*
X119722380Y-139739825D01*
X119612500Y-139717574D01*
X119212500Y-139717574D01*
X119109850Y-139736889D01*
X119096065Y-139745759D01*
X119087380Y-139739825D01*
X118977500Y-139717574D01*
X118904504Y-139717574D01*
X119595079Y-139026999D01*
X120714421Y-139026999D01*
X120840500Y-139153078D01*
G36*
X113406036Y-122316479D02*
X113585307Y-122584777D01*
X113853605Y-122764048D01*
X114109756Y-122815000D01*
X113973000Y-122815000D01*
X113529187Y-122953804D01*
X113172276Y-123251882D01*
X112956602Y-123663854D01*
X112956197Y-123690256D01*
X113081639Y-123873000D01*
X114673000Y-123873000D01*
X114673000Y-123853000D01*
X114927000Y-123853000D01*
X114927000Y-123873000D01*
X114947000Y-123873000D01*
X114947000Y-124127000D01*
X114927000Y-124127000D01*
X114927000Y-125185000D01*
X115627000Y-125185000D01*
X116070813Y-125046196D01*
X116223000Y-124919095D01*
X116223000Y-130900000D01*
X116251697Y-131044272D01*
X116333421Y-131166579D01*
X116859963Y-131693121D01*
X116853073Y-131697555D01*
X116789825Y-131790120D01*
X116767574Y-131900000D01*
X116767574Y-132500000D01*
X116786889Y-132602650D01*
X116847555Y-132696927D01*
X116940120Y-132760175D01*
X117050000Y-132782426D01*
X117750000Y-132782426D01*
X117852650Y-132763111D01*
X117946927Y-132702445D01*
X118000579Y-132623924D01*
X118047555Y-132696927D01*
X118140120Y-132760175D01*
X118250000Y-132782426D01*
X118400500Y-132782426D01*
X118400500Y-134584732D01*
X118380573Y-134597555D01*
X118317325Y-134690120D01*
X118295074Y-134800000D01*
X118295074Y-136000000D01*
X118299402Y-136023000D01*
X117356158Y-136023000D01*
X115063056Y-133729898D01*
X115040691Y-133617460D01*
X114937290Y-133462710D01*
X112977085Y-131502505D01*
X112977100Y-131485731D01*
X112889442Y-131273583D01*
X112877000Y-131261119D01*
X112877000Y-128851920D01*
X112854798Y-128740301D01*
X112840691Y-128669379D01*
X112737290Y-128514630D01*
X111336070Y-127113410D01*
X111181320Y-127010009D01*
X110998780Y-126973700D01*
X110866488Y-126973700D01*
X110861891Y-126949270D01*
X110801225Y-126854993D01*
X110708660Y-126791745D01*
X110598780Y-126769494D01*
X110577000Y-126769494D01*
X110577000Y-124777346D01*
X110652650Y-124763111D01*
X110746927Y-124702445D01*
X110800579Y-124623924D01*
X110847555Y-124696927D01*
X110940120Y-124760175D01*
X111050000Y-124782426D01*
X111750000Y-124782426D01*
X111852650Y-124763111D01*
X111946927Y-124702445D01*
X112010175Y-124609880D01*
X112032426Y-124500000D01*
X112032426Y-124309744D01*
X112956197Y-124309744D01*
X112956602Y-124336146D01*
X113172276Y-124748118D01*
X113529187Y-125046196D01*
X113973000Y-125185000D01*
X114673000Y-125185000D01*
X114673000Y-124127000D01*
X113081639Y-124127000D01*
X112956197Y-124309744D01*
X112032426Y-124309744D01*
X112032426Y-123900000D01*
X112013111Y-123797350D01*
X111952445Y-123703073D01*
X111920517Y-123681257D01*
X113386004Y-122215771D01*
X113406036Y-122316479D01*
X113406036Y-122316479D01*
G37*
X113406036Y-122316479D02*
X113585307Y-122584777D01*
X113853605Y-122764048D01*
X114109756Y-122815000D01*
X113973000Y-122815000D01*
X113529187Y-122953804D01*
X113172276Y-123251882D01*
X112956602Y-123663854D01*
X112956197Y-123690256D01*
X113081639Y-123873000D01*
X114673000Y-123873000D01*
X114673000Y-123853000D01*
X114927000Y-123853000D01*
X114927000Y-123873000D01*
X114947000Y-123873000D01*
X114947000Y-124127000D01*
X114927000Y-124127000D01*
X114927000Y-125185000D01*
X115627000Y-125185000D01*
X116070813Y-125046196D01*
X116223000Y-124919095D01*
X116223000Y-130900000D01*
X116251697Y-131044272D01*
X116333421Y-131166579D01*
X116859963Y-131693121D01*
X116853073Y-131697555D01*
X116789825Y-131790120D01*
X116767574Y-131900000D01*
X116767574Y-132500000D01*
X116786889Y-132602650D01*
X116847555Y-132696927D01*
X116940120Y-132760175D01*
X117050000Y-132782426D01*
X117750000Y-132782426D01*
X117852650Y-132763111D01*
X117946927Y-132702445D01*
X118000579Y-132623924D01*
X118047555Y-132696927D01*
X118140120Y-132760175D01*
X118250000Y-132782426D01*
X118400500Y-132782426D01*
X118400500Y-134584732D01*
X118380573Y-134597555D01*
X118317325Y-134690120D01*
X118295074Y-134800000D01*
X118295074Y-136000000D01*
X118299402Y-136023000D01*
X117356158Y-136023000D01*
X115063056Y-133729898D01*
X115040691Y-133617460D01*
X114937290Y-133462710D01*
X112977085Y-131502505D01*
X112977100Y-131485731D01*
X112889442Y-131273583D01*
X112877000Y-131261119D01*
X112877000Y-128851920D01*
X112854798Y-128740301D01*
X112840691Y-128669379D01*
X112737290Y-128514630D01*
X111336070Y-127113410D01*
X111181320Y-127010009D01*
X110998780Y-126973700D01*
X110866488Y-126973700D01*
X110861891Y-126949270D01*
X110801225Y-126854993D01*
X110708660Y-126791745D01*
X110598780Y-126769494D01*
X110577000Y-126769494D01*
X110577000Y-124777346D01*
X110652650Y-124763111D01*
X110746927Y-124702445D01*
X110800579Y-124623924D01*
X110847555Y-124696927D01*
X110940120Y-124760175D01*
X111050000Y-124782426D01*
X111750000Y-124782426D01*
X111852650Y-124763111D01*
X111946927Y-124702445D01*
X112010175Y-124609880D01*
X112032426Y-124500000D01*
X112032426Y-124309744D01*
X112956197Y-124309744D01*
X112956602Y-124336146D01*
X113172276Y-124748118D01*
X113529187Y-125046196D01*
X113973000Y-125185000D01*
X114673000Y-125185000D01*
X114673000Y-124127000D01*
X113081639Y-124127000D01*
X112956197Y-124309744D01*
X112032426Y-124309744D01*
X112032426Y-123900000D01*
X112013111Y-123797350D01*
X111952445Y-123703073D01*
X111920517Y-123681257D01*
X113386004Y-122215771D01*
X113406036Y-122316479D01*
G36*
X109615000Y-118514250D02*
X109773750Y-118673000D01*
X110473000Y-118673000D01*
X110473000Y-118653000D01*
X110727000Y-118653000D01*
X110727000Y-118673000D01*
X110747000Y-118673000D01*
X110747000Y-118927000D01*
X110727000Y-118927000D01*
X110727000Y-119576250D01*
X110885750Y-119735000D01*
X111076309Y-119735000D01*
X111309698Y-119638327D01*
X111488327Y-119459699D01*
X111520335Y-119382426D01*
X112150000Y-119382426D01*
X112252650Y-119363111D01*
X112346927Y-119302445D01*
X112410175Y-119209880D01*
X112416833Y-119177000D01*
X112543862Y-119177000D01*
X112833431Y-119466569D01*
X112955738Y-119548293D01*
X113100010Y-119576990D01*
X113377218Y-119576990D01*
X113306036Y-119683521D01*
X113243084Y-120000000D01*
X113306036Y-120316479D01*
X113485307Y-120584777D01*
X113753605Y-120764048D01*
X113768455Y-120767002D01*
X112032426Y-122503032D01*
X112032426Y-122300000D01*
X112013111Y-122197350D01*
X111952445Y-122103073D01*
X111859880Y-122039825D01*
X111771413Y-122021910D01*
X111748303Y-121905728D01*
X111666579Y-121783421D01*
X109366579Y-119483421D01*
X109244272Y-119401697D01*
X109182426Y-119389395D01*
X109182426Y-119085750D01*
X109615000Y-119085750D01*
X109615000Y-119226310D01*
X109711673Y-119459699D01*
X109890302Y-119638327D01*
X110123691Y-119735000D01*
X110314250Y-119735000D01*
X110473000Y-119576250D01*
X110473000Y-118927000D01*
X109773750Y-118927000D01*
X109615000Y-119085750D01*
X109182426Y-119085750D01*
X109182426Y-118975000D01*
X109163111Y-118872350D01*
X109102445Y-118778073D01*
X109009880Y-118714825D01*
X108900000Y-118692574D01*
X108865584Y-118692574D01*
X109181159Y-118377000D01*
X109615000Y-118377000D01*
X109615000Y-118514250D01*
X109615000Y-118514250D01*
G37*
X109615000Y-118514250D02*
X109773750Y-118673000D01*
X110473000Y-118673000D01*
X110473000Y-118653000D01*
X110727000Y-118653000D01*
X110727000Y-118673000D01*
X110747000Y-118673000D01*
X110747000Y-118927000D01*
X110727000Y-118927000D01*
X110727000Y-119576250D01*
X110885750Y-119735000D01*
X111076309Y-119735000D01*
X111309698Y-119638327D01*
X111488327Y-119459699D01*
X111520335Y-119382426D01*
X112150000Y-119382426D01*
X112252650Y-119363111D01*
X112346927Y-119302445D01*
X112410175Y-119209880D01*
X112416833Y-119177000D01*
X112543862Y-119177000D01*
X112833431Y-119466569D01*
X112955738Y-119548293D01*
X113100010Y-119576990D01*
X113377218Y-119576990D01*
X113306036Y-119683521D01*
X113243084Y-120000000D01*
X113306036Y-120316479D01*
X113485307Y-120584777D01*
X113753605Y-120764048D01*
X113768455Y-120767002D01*
X112032426Y-122503032D01*
X112032426Y-122300000D01*
X112013111Y-122197350D01*
X111952445Y-122103073D01*
X111859880Y-122039825D01*
X111771413Y-122021910D01*
X111748303Y-121905728D01*
X111666579Y-121783421D01*
X109366579Y-119483421D01*
X109244272Y-119401697D01*
X109182426Y-119389395D01*
X109182426Y-119085750D01*
X109615000Y-119085750D01*
X109615000Y-119226310D01*
X109711673Y-119459699D01*
X109890302Y-119638327D01*
X110123691Y-119735000D01*
X110314250Y-119735000D01*
X110473000Y-119576250D01*
X110473000Y-118927000D01*
X109773750Y-118927000D01*
X109615000Y-119085750D01*
X109182426Y-119085750D01*
X109182426Y-118975000D01*
X109163111Y-118872350D01*
X109102445Y-118778073D01*
X109009880Y-118714825D01*
X108900000Y-118692574D01*
X108865584Y-118692574D01*
X109181159Y-118377000D01*
X109615000Y-118377000D01*
X109615000Y-118514250D01*
M02*
