M48
;DRILL file {KiCad 4.0.4-stable} date 01/29/17 20:31:21
;FORMAT={-:-/ absolute / inch / decimal}
FMAT,2
INCH,TZ
T1C0.012
T2C0.016
T3C0.020
T4C0.022
T5C0.098
%
G90
G05
M72
T1
X4.0276Y-4.7165
X4.0315Y-4.3425
X4.0748Y-4.9843
X4.1693Y-4.9843
X4.189Y-5.0945
X4.2362Y-5.0669
X4.2717Y-5.6693
X4.2835Y-5.1614
X4.3622Y-4.7323
X4.3996Y-4.4882
X4.4094Y-4.5669
X4.4173Y-4.7874
X4.4252Y-5.1811
X4.4331Y-4.8819
X4.4331Y-4.9331
X4.7244Y-5.5984
X4.748Y-5.4803
X4.7638Y-5.5925
X4.7756Y-5.372
X4.7913Y-5.248
X4.9134Y-5.5669
X4.937Y-5.5906
X4.9508Y-5.6516
X5.2126Y-5.0472
X5.2181Y-5.1866
X5.2205Y-4.8425
X5.2323Y-5.1181
X5.2362Y-5.252
X5.2429Y-4.8126
X5.2441Y-4.4094
X5.315Y-4.7953
X5.378Y-5.2598
X5.3937Y-5.2992
X5.4094Y-5.4331
X5.4252Y-5.3543
X5.4252Y-5.3937
X5.4488Y-4.4724
X5.6102Y-4.7165
X5.6142Y-4.3386
T2
X5.2638Y-5.0217
T3
X4.0315Y-4.874
X4.0709Y-5.3228
X4.2205Y-5.315
X4.4016Y-5.6378
T5
X4.8219Y-3.8189
T3
X4.0172Y-5.2363G85X4.0428Y-5.2363
G05
X4.0172Y-5.5118G85X4.0428Y-5.5118
G05
T4
X4.1363Y-5.2697G85X4.1363Y-5.2815
G05
X4.1363Y-5.4666G85X4.1363Y-5.4784
G05
T0
M30
