G04 #@! TF.FileFunction,Legend,Bot*
%FSLAX46Y46*%
G04 Gerber Fmt 4.6, Leading zero omitted, Abs format (unit mm)*
G04 Created by KiCad (PCBNEW 4.0.4-stable) date 02/01/17 13:50:24*
%MOMM*%
%LPD*%
G01*
G04 APERTURE LIST*
%ADD10C,0.100000*%
%ADD11C,0.250000*%
%ADD12C,0.300000*%
%ADD13C,0.150000*%
%ADD14C,0.203200*%
%ADD15C,0.127000*%
%ADD16C,0.152400*%
%ADD17C,0.170000*%
%ADD18C,0.119380*%
%ADD19C,0.125000*%
G04 APERTURE END LIST*
D10*
X138650000Y-141600000D02*
X139300000Y-139550000D01*
D11*
X139461904Y-141950000D02*
X139557142Y-141902381D01*
X139699999Y-141902381D01*
X139842857Y-141950000D01*
X139938095Y-142045238D01*
X139985714Y-142140476D01*
X140033333Y-142330952D01*
X140033333Y-142473810D01*
X139985714Y-142664286D01*
X139938095Y-142759524D01*
X139842857Y-142854762D01*
X139699999Y-142902381D01*
X139604761Y-142902381D01*
X139461904Y-142854762D01*
X139414285Y-142807143D01*
X139414285Y-142473810D01*
X139604761Y-142473810D01*
X138985714Y-142902381D02*
X138985714Y-141902381D01*
X138414285Y-142902381D01*
X138414285Y-141902381D01*
X137938095Y-142902381D02*
X137938095Y-141902381D01*
X137700000Y-141902381D01*
X137557142Y-141950000D01*
X137461904Y-142045238D01*
X137414285Y-142140476D01*
X137366666Y-142330952D01*
X137366666Y-142473810D01*
X137414285Y-142664286D01*
X137461904Y-142759524D01*
X137557142Y-142854762D01*
X137700000Y-142902381D01*
X137938095Y-142902381D01*
D10*
X139250000Y-128900000D02*
X139600000Y-131350000D01*
D11*
X140976190Y-127402381D02*
X140357142Y-127402381D01*
X140690476Y-127783333D01*
X140547618Y-127783333D01*
X140452380Y-127830952D01*
X140404761Y-127878571D01*
X140357142Y-127973810D01*
X140357142Y-128211905D01*
X140404761Y-128307143D01*
X140452380Y-128354762D01*
X140547618Y-128402381D01*
X140833333Y-128402381D01*
X140928571Y-128354762D01*
X140976190Y-128307143D01*
X139928571Y-128307143D02*
X139880952Y-128354762D01*
X139928571Y-128402381D01*
X139976190Y-128354762D01*
X139928571Y-128307143D01*
X139928571Y-128402381D01*
X139547619Y-127402381D02*
X138928571Y-127402381D01*
X139261905Y-127783333D01*
X139119047Y-127783333D01*
X139023809Y-127830952D01*
X138976190Y-127878571D01*
X138928571Y-127973810D01*
X138928571Y-128211905D01*
X138976190Y-128307143D01*
X139023809Y-128354762D01*
X139119047Y-128402381D01*
X139404762Y-128402381D01*
X139500000Y-128354762D01*
X139547619Y-128307143D01*
X138642857Y-127402381D02*
X138309524Y-128402381D01*
X137976190Y-127402381D01*
D10*
X137225000Y-139250000D02*
X138400000Y-138075000D01*
X136475000Y-137525000D02*
X138375000Y-137025000D01*
X136575000Y-135900000D02*
X138600000Y-136050000D01*
X136600000Y-134300000D02*
X138425000Y-135025000D01*
X136150000Y-132825000D02*
X138400000Y-133950000D01*
X136375000Y-131025000D02*
X138500000Y-132925000D01*
D11*
X135259523Y-130360714D02*
X135259523Y-131027381D01*
X135497619Y-129979762D02*
X135735714Y-130694048D01*
X135116666Y-130694048D01*
X135211904Y-131777381D02*
X135688095Y-131777381D01*
X135735714Y-132253571D01*
X135688095Y-132205952D01*
X135592857Y-132158333D01*
X135354761Y-132158333D01*
X135259523Y-132205952D01*
X135211904Y-132253571D01*
X135164285Y-132348810D01*
X135164285Y-132586905D01*
X135211904Y-132682143D01*
X135259523Y-132729762D01*
X135354761Y-132777381D01*
X135592857Y-132777381D01*
X135688095Y-132729762D01*
X135735714Y-132682143D01*
X135640476Y-134527381D02*
X136211905Y-134527381D01*
X135926191Y-134527381D02*
X135926191Y-133527381D01*
X136021429Y-133670238D01*
X136116667Y-133765476D01*
X136211905Y-133813095D01*
X134783333Y-133860714D02*
X134783333Y-134527381D01*
X135021429Y-133479762D02*
X135259524Y-134194048D01*
X134640476Y-134194048D01*
X135640476Y-136277381D02*
X136211905Y-136277381D01*
X135926191Y-136277381D02*
X135926191Y-135277381D01*
X136021429Y-135420238D01*
X136116667Y-135515476D01*
X136211905Y-135563095D01*
X135259524Y-135372619D02*
X135211905Y-135325000D01*
X135116667Y-135277381D01*
X134878571Y-135277381D01*
X134783333Y-135325000D01*
X134735714Y-135372619D01*
X134688095Y-135467857D01*
X134688095Y-135563095D01*
X134735714Y-135705952D01*
X135307143Y-136277381D01*
X134688095Y-136277381D01*
X135640476Y-138027381D02*
X136211905Y-138027381D01*
X135926191Y-138027381D02*
X135926191Y-137027381D01*
X136021429Y-137170238D01*
X136116667Y-137265476D01*
X136211905Y-137313095D01*
X135307143Y-137027381D02*
X134688095Y-137027381D01*
X135021429Y-137408333D01*
X134878571Y-137408333D01*
X134783333Y-137455952D01*
X134735714Y-137503571D01*
X134688095Y-137598810D01*
X134688095Y-137836905D01*
X134735714Y-137932143D01*
X134783333Y-137979762D01*
X134878571Y-138027381D01*
X135164286Y-138027381D01*
X135259524Y-137979762D01*
X135307143Y-137932143D01*
X136688095Y-139491667D02*
X136211904Y-139491667D01*
X136783333Y-139777381D02*
X136450000Y-138777381D01*
X136116666Y-139777381D01*
X135783333Y-139777381D02*
X135783333Y-138777381D01*
X135545238Y-138777381D01*
X135402380Y-138825000D01*
X135307142Y-138920238D01*
X135259523Y-139015476D01*
X135211904Y-139205952D01*
X135211904Y-139348810D01*
X135259523Y-139539286D01*
X135307142Y-139634524D01*
X135402380Y-139729762D01*
X135545238Y-139777381D01*
X135783333Y-139777381D01*
X134211904Y-139682143D02*
X134259523Y-139729762D01*
X134402380Y-139777381D01*
X134497618Y-139777381D01*
X134640476Y-139729762D01*
X134735714Y-139634524D01*
X134783333Y-139539286D01*
X134830952Y-139348810D01*
X134830952Y-139205952D01*
X134783333Y-139015476D01*
X134735714Y-138920238D01*
X134640476Y-138825000D01*
X134497618Y-138777381D01*
X134402380Y-138777381D01*
X134259523Y-138825000D01*
X134211904Y-138872619D01*
D12*
X108278571Y-102864286D02*
X107878571Y-102864286D01*
X107707142Y-103492857D02*
X108278571Y-103492857D01*
X108278571Y-102292857D01*
X107707142Y-102292857D01*
X107250000Y-103435714D02*
X107078571Y-103492857D01*
X106792857Y-103492857D01*
X106678571Y-103435714D01*
X106621428Y-103378571D01*
X106564285Y-103264286D01*
X106564285Y-103150000D01*
X106621428Y-103035714D01*
X106678571Y-102978571D01*
X106792857Y-102921429D01*
X107021428Y-102864286D01*
X107135714Y-102807143D01*
X107192857Y-102750000D01*
X107250000Y-102635714D01*
X107250000Y-102521429D01*
X107192857Y-102407143D01*
X107135714Y-102350000D01*
X107021428Y-102292857D01*
X106735714Y-102292857D01*
X106564285Y-102350000D01*
X106050000Y-103492857D02*
X106050000Y-102292857D01*
X105592857Y-102292857D01*
X105478571Y-102350000D01*
X105421428Y-102407143D01*
X105364285Y-102521429D01*
X105364285Y-102692857D01*
X105421428Y-102807143D01*
X105478571Y-102864286D01*
X105592857Y-102921429D01*
X106050000Y-102921429D01*
X111478571Y-104964286D02*
X111078571Y-104964286D01*
X110907142Y-105592857D02*
X111478571Y-105592857D01*
X111478571Y-104392857D01*
X110907142Y-104392857D01*
X110507142Y-104792857D02*
X110221428Y-105592857D01*
X109935714Y-104792857D01*
X109021428Y-105535714D02*
X109135714Y-105592857D01*
X109364285Y-105592857D01*
X109478571Y-105535714D01*
X109535714Y-105421429D01*
X109535714Y-104964286D01*
X109478571Y-104850000D01*
X109364285Y-104792857D01*
X109135714Y-104792857D01*
X109021428Y-104850000D01*
X108964285Y-104964286D01*
X108964285Y-105078571D01*
X109535714Y-105192857D01*
X108450000Y-105592857D02*
X108450000Y-104792857D01*
X108450000Y-105021429D02*
X108392857Y-104907143D01*
X108335714Y-104850000D01*
X108221428Y-104792857D01*
X108107143Y-104792857D01*
X107821428Y-104792857D02*
X107535714Y-105592857D01*
X107250000Y-104792857D02*
X107535714Y-105592857D01*
X107650000Y-105878571D01*
X107707143Y-105935714D01*
X107821428Y-105992857D01*
X106907142Y-104792857D02*
X106678571Y-105592857D01*
X106450000Y-105021429D01*
X106221428Y-105592857D01*
X105992857Y-104792857D01*
X105535714Y-105592857D02*
X105535714Y-104392857D01*
X105021428Y-105592857D02*
X105021428Y-104964286D01*
X105078571Y-104850000D01*
X105192857Y-104792857D01*
X105364285Y-104792857D01*
X105478571Y-104850000D01*
X105535714Y-104907143D01*
X103992857Y-105535714D02*
X104107143Y-105592857D01*
X104335714Y-105592857D01*
X104450000Y-105535714D01*
X104507143Y-105421429D01*
X104507143Y-104964286D01*
X104450000Y-104850000D01*
X104335714Y-104792857D01*
X104107143Y-104792857D01*
X103992857Y-104850000D01*
X103935714Y-104964286D01*
X103935714Y-105078571D01*
X104507143Y-105192857D01*
X103421429Y-105592857D02*
X103421429Y-104792857D01*
X103421429Y-105021429D02*
X103364286Y-104907143D01*
X103307143Y-104850000D01*
X103192857Y-104792857D01*
X103078572Y-104792857D01*
X102221429Y-105535714D02*
X102335715Y-105592857D01*
X102564286Y-105592857D01*
X102678572Y-105535714D01*
X102735715Y-105421429D01*
X102735715Y-104964286D01*
X102678572Y-104850000D01*
X102564286Y-104792857D01*
X102335715Y-104792857D01*
X102221429Y-104850000D01*
X102164286Y-104964286D01*
X102164286Y-105078571D01*
X102735715Y-105192857D01*
X143721428Y-106642857D02*
X143721428Y-105442857D01*
X142635713Y-106642857D02*
X142635713Y-105442857D01*
X142635713Y-106585714D02*
X142749999Y-106642857D01*
X142978570Y-106642857D01*
X143092856Y-106585714D01*
X143149999Y-106528571D01*
X143207142Y-106414286D01*
X143207142Y-106071429D01*
X143149999Y-105957143D01*
X143092856Y-105900000D01*
X142978570Y-105842857D01*
X142749999Y-105842857D01*
X142635713Y-105900000D01*
X141892856Y-106642857D02*
X142007142Y-106585714D01*
X142064285Y-106471429D01*
X142064285Y-105442857D01*
X140978571Y-106585714D02*
X141092857Y-106642857D01*
X141321428Y-106642857D01*
X141435714Y-106585714D01*
X141492857Y-106471429D01*
X141492857Y-106014286D01*
X141435714Y-105900000D01*
X141321428Y-105842857D01*
X141092857Y-105842857D01*
X140978571Y-105900000D01*
X140921428Y-106014286D01*
X140921428Y-106128571D01*
X141492857Y-106242857D01*
X140407143Y-106642857D02*
X140407143Y-105442857D01*
X140407143Y-106014286D02*
X139721428Y-106014286D01*
X139721428Y-106642857D02*
X139721428Y-105442857D01*
X138635714Y-106642857D02*
X138635714Y-106014286D01*
X138692857Y-105900000D01*
X138807143Y-105842857D01*
X139035714Y-105842857D01*
X139150000Y-105900000D01*
X138635714Y-106585714D02*
X138750000Y-106642857D01*
X139035714Y-106642857D01*
X139150000Y-106585714D01*
X139207143Y-106471429D01*
X139207143Y-106357143D01*
X139150000Y-106242857D01*
X139035714Y-106185714D01*
X138750000Y-106185714D01*
X138635714Y-106128571D01*
X138064286Y-105842857D02*
X138064286Y-106642857D01*
X138064286Y-105957143D02*
X138007143Y-105900000D01*
X137892857Y-105842857D01*
X137721429Y-105842857D01*
X137607143Y-105900000D01*
X137550000Y-106014286D01*
X137550000Y-106642857D01*
X136464286Y-106642857D02*
X136464286Y-105442857D01*
X136464286Y-106585714D02*
X136578572Y-106642857D01*
X136807143Y-106642857D01*
X136921429Y-106585714D01*
X136978572Y-106528571D01*
X137035715Y-106414286D01*
X137035715Y-106071429D01*
X136978572Y-105957143D01*
X136921429Y-105900000D01*
X136807143Y-105842857D01*
X136578572Y-105842857D01*
X136464286Y-105900000D01*
X135950001Y-106585714D02*
X135835715Y-106642857D01*
X135607143Y-106642857D01*
X135492858Y-106585714D01*
X135435715Y-106471429D01*
X135435715Y-106414286D01*
X135492858Y-106300000D01*
X135607143Y-106242857D01*
X135778572Y-106242857D01*
X135892858Y-106185714D01*
X135950001Y-106071429D01*
X135950001Y-106014286D01*
X135892858Y-105900000D01*
X135778572Y-105842857D01*
X135607143Y-105842857D01*
X135492858Y-105900000D01*
X134921429Y-106642857D02*
X134921429Y-105442857D01*
X134635714Y-105442857D01*
X134464286Y-105500000D01*
X134350000Y-105614286D01*
X134292857Y-105728571D01*
X134235714Y-105957143D01*
X134235714Y-106128571D01*
X134292857Y-106357143D01*
X134350000Y-106471429D01*
X134464286Y-106585714D01*
X134635714Y-106642857D01*
X134921429Y-106642857D01*
X133264286Y-106585714D02*
X133378572Y-106642857D01*
X133607143Y-106642857D01*
X133721429Y-106585714D01*
X133778572Y-106471429D01*
X133778572Y-106014286D01*
X133721429Y-105900000D01*
X133607143Y-105842857D01*
X133378572Y-105842857D01*
X133264286Y-105900000D01*
X133207143Y-106014286D01*
X133207143Y-106128571D01*
X133778572Y-106242857D01*
X132807143Y-105842857D02*
X132521429Y-106642857D01*
X132235715Y-105842857D01*
X131778572Y-106528571D02*
X131721429Y-106585714D01*
X131778572Y-106642857D01*
X131835715Y-106585714D01*
X131778572Y-106528571D01*
X131778572Y-106642857D01*
D13*
X108075000Y-128450000D02*
X108075000Y-127950000D01*
X109125000Y-127950000D02*
X109125000Y-128450000D01*
X135675000Y-127250000D02*
X135675000Y-126750000D01*
X136725000Y-126750000D02*
X136725000Y-127250000D01*
X111050000Y-124725000D02*
X110550000Y-124725000D01*
X110550000Y-123675000D02*
X111050000Y-123675000D01*
X110950000Y-118275000D02*
X111450000Y-118275000D01*
X111450000Y-119325000D02*
X110950000Y-119325000D01*
X109150000Y-129675000D02*
X109650000Y-129675000D01*
X109650000Y-130725000D02*
X109150000Y-130725000D01*
X136725000Y-124550000D02*
X136725000Y-125050000D01*
X135675000Y-125050000D02*
X135675000Y-124550000D01*
X111050000Y-123125000D02*
X110550000Y-123125000D01*
X110550000Y-122075000D02*
X111050000Y-122075000D01*
D14*
X134616000Y-120054000D02*
X132584000Y-120054000D01*
X132584000Y-119546000D02*
X134616000Y-119546000D01*
X134616000Y-120054000D02*
G75*
G02X133600000Y-121070000I-1016000J0D01*
G01*
X133600000Y-121070000D02*
G75*
G02X132584000Y-120054000I0J1016000D01*
G01*
X132584000Y-119546000D02*
G75*
G02X133600000Y-118530000I1016000J0D01*
G01*
X133600000Y-118530000D02*
G75*
G02X134616000Y-119546000I0J-1016000D01*
G01*
D13*
X110025000Y-142250000D02*
X110025000Y-142750000D01*
X108975000Y-142750000D02*
X108975000Y-142250000D01*
X105250000Y-129925000D02*
X104750000Y-129925000D01*
X104750000Y-128875000D02*
X105250000Y-128875000D01*
X112925000Y-137950000D02*
X112925000Y-138450000D01*
X111875000Y-138450000D02*
X111875000Y-137950000D01*
X111875000Y-136250000D02*
X111875000Y-135750000D01*
X112925000Y-135750000D02*
X112925000Y-136250000D01*
X124975000Y-142700000D02*
X124975000Y-143200000D01*
X123925000Y-143200000D02*
X123925000Y-142700000D01*
X115350000Y-140875000D02*
X115850000Y-140875000D01*
X115850000Y-141925000D02*
X115350000Y-141925000D01*
D15*
X110700380Y-128499720D02*
X109699620Y-128499720D01*
X109699620Y-127900280D02*
X110700380Y-127900280D01*
X110299060Y-128200000D02*
X110100940Y-128200000D01*
X109999340Y-128100940D02*
X110400660Y-128100940D01*
X110400660Y-128100940D02*
X110200000Y-128299060D01*
X110200000Y-128299060D02*
X109999340Y-128100940D01*
X109699620Y-127399900D02*
X109699620Y-129000100D01*
X109699620Y-129000100D02*
X110700380Y-129000100D01*
X110700380Y-129000100D02*
X110700380Y-127399900D01*
X110700380Y-127399900D02*
X109699620Y-127399900D01*
X127450980Y-137900380D02*
X127450980Y-136899620D01*
X128050420Y-136899620D02*
X128050420Y-137900380D01*
X127750700Y-137499060D02*
X127750700Y-137300940D01*
X127849760Y-137199340D02*
X127849760Y-137600660D01*
X127849760Y-137600660D02*
X127651640Y-137400000D01*
X127651640Y-137400000D02*
X127849760Y-137199340D01*
X128550800Y-136899620D02*
X126950600Y-136899620D01*
X126950600Y-136899620D02*
X126950600Y-137900380D01*
X126950600Y-137900380D02*
X128550800Y-137900380D01*
X128550800Y-137900380D02*
X128550800Y-136899620D01*
X127500280Y-135300380D02*
X127500280Y-134299620D01*
X128099720Y-134299620D02*
X128099720Y-135300380D01*
X127800000Y-134899060D02*
X127800000Y-134700940D01*
X127899060Y-134599340D02*
X127899060Y-135000660D01*
X127899060Y-135000660D02*
X127700940Y-134800000D01*
X127700940Y-134800000D02*
X127899060Y-134599340D01*
X128600100Y-134299620D02*
X126999900Y-134299620D01*
X126999900Y-134299620D02*
X126999900Y-135300380D01*
X126999900Y-135300380D02*
X128600100Y-135300380D01*
X128600100Y-135300380D02*
X128600100Y-134299620D01*
X112143000Y-139687200D02*
X112143000Y-141312800D01*
X109857000Y-141312800D02*
X109857000Y-139687200D01*
X109399800Y-141312800D02*
X109399800Y-139687200D01*
X109399800Y-139687200D02*
X112600200Y-139687200D01*
X112600200Y-139687200D02*
X112600200Y-141312800D01*
X112600200Y-141312800D02*
X109399800Y-141312800D01*
D13*
X116400000Y-144075000D02*
X117600000Y-144075000D01*
X117600000Y-142325000D02*
X116400000Y-142325000D01*
X99682540Y-140850900D02*
X99682540Y-132150900D01*
X106087540Y-140850900D02*
X106087540Y-132150900D01*
X106087540Y-132150900D02*
X99682540Y-132150900D01*
X100912540Y-132150900D02*
X100912540Y-140850900D01*
X99682540Y-140850900D02*
X106087540Y-140850900D01*
X118250000Y-132725000D02*
X117750000Y-132725000D01*
X117750000Y-131675000D02*
X118250000Y-131675000D01*
X120275000Y-132050000D02*
X120275000Y-131550000D01*
X121325000Y-131550000D02*
X121325000Y-132050000D01*
X113950000Y-137275000D02*
X114450000Y-137275000D01*
X114450000Y-138325000D02*
X113950000Y-138325000D01*
X113950000Y-135875000D02*
X114450000Y-135875000D01*
X114450000Y-136925000D02*
X113950000Y-136925000D01*
X130150000Y-136875000D02*
X130650000Y-136875000D01*
X130650000Y-137925000D02*
X130150000Y-137925000D01*
X130150000Y-134275000D02*
X130650000Y-134275000D01*
X130650000Y-135325000D02*
X130150000Y-135325000D01*
X105600000Y-128300000D02*
G75*
G03X105600000Y-128300000I-100000J0D01*
G01*
X106050000Y-128050000D02*
X105550000Y-128050000D01*
X106050000Y-125150000D02*
X106050000Y-128050000D01*
X105550000Y-125150000D02*
X106050000Y-125150000D01*
X105550000Y-128050000D02*
X105550000Y-125150000D01*
X123647500Y-136000000D02*
X123647500Y-140000000D01*
X118352500Y-134725000D02*
X118352500Y-140000000D01*
D16*
X130516000Y-124859000D02*
X130516000Y-125621000D01*
X130516000Y-125621000D02*
X114514000Y-125621000D01*
X114514000Y-125621000D02*
X114514000Y-124859000D01*
D13*
X135800000Y-112400000D02*
X135800000Y-117800000D01*
X141800000Y-112000000D02*
X136200000Y-112000000D01*
X142200000Y-117800000D02*
X142200000Y-112400000D01*
X136200000Y-118200000D02*
X141800000Y-118200000D01*
X141800000Y-112000000D02*
X142200000Y-112400000D01*
X141800000Y-118200000D02*
X142200000Y-117800000D01*
X135800000Y-117800000D02*
X136200000Y-118200000D01*
X135800000Y-112400000D02*
X136200000Y-112000000D01*
X140750000Y-115000000D02*
G75*
G03X140750000Y-115000000I-1750000J0D01*
G01*
X139000000Y-112000000D02*
X139000000Y-112200000D01*
X142000000Y-115000000D02*
X142200000Y-115000000D01*
X139000000Y-118000000D02*
X139000000Y-118200000D01*
X136000000Y-115000000D02*
X135800000Y-115000000D01*
X109200000Y-117600000D02*
X109200000Y-112200000D01*
X103200000Y-118000000D02*
X108800000Y-118000000D01*
X102800000Y-112200000D02*
X102800000Y-117600000D01*
X108800000Y-111800000D02*
X103200000Y-111800000D01*
X103200000Y-118000000D02*
X102800000Y-117600000D01*
X103200000Y-111800000D02*
X102800000Y-112200000D01*
X109200000Y-112200000D02*
X108800000Y-111800000D01*
X109200000Y-117600000D02*
X108800000Y-118000000D01*
X107750000Y-115000000D02*
G75*
G03X107750000Y-115000000I-1750000J0D01*
G01*
X106000000Y-118000000D02*
X106000000Y-117800000D01*
X103000000Y-115000000D02*
X102800000Y-115000000D01*
X106000000Y-112000000D02*
X106000000Y-111800000D01*
X109000000Y-115000000D02*
X109200000Y-115000000D01*
D15*
X133200380Y-141999720D02*
X132199620Y-141999720D01*
X132199620Y-141400280D02*
X133200380Y-141400280D01*
X132799060Y-141700000D02*
X132600940Y-141700000D01*
X132499340Y-141600940D02*
X132900660Y-141600940D01*
X132900660Y-141600940D02*
X132700000Y-141799060D01*
X132700000Y-141799060D02*
X132499340Y-141600940D01*
X132199620Y-140899900D02*
X132199620Y-142500100D01*
X132199620Y-142500100D02*
X133200380Y-142500100D01*
X133200380Y-142500100D02*
X133200380Y-140899900D01*
X133200380Y-140899900D02*
X132199620Y-140899900D01*
D13*
X132175000Y-139250000D02*
X132175000Y-138750000D01*
X133225000Y-138750000D02*
X133225000Y-139250000D01*
D15*
X105445900Y-122999900D02*
X105445900Y-124600100D01*
X105372900Y-124600100D02*
X105372900Y-122999900D01*
X105299900Y-122999900D02*
X105299900Y-124600100D01*
X103945800Y-122999900D02*
X107654200Y-122999900D01*
X107654200Y-122999900D02*
X107654200Y-124600100D01*
X107654200Y-124600100D02*
X103945800Y-124600100D01*
X103945800Y-124600100D02*
X103945800Y-122999900D01*
D13*
X134450000Y-124750000D02*
X134450000Y-125750000D01*
X132750000Y-125750000D02*
X132750000Y-124750000D01*
X121300000Y-142550000D02*
X122300000Y-142550000D01*
X122300000Y-144250000D02*
X121300000Y-144250000D01*
X139562500Y-131000000D02*
G75*
G03X139562500Y-131000000I-250000J0D01*
G01*
X144137500Y-131600000D02*
X144137500Y-139400000D01*
X142237500Y-130500000D02*
X139887500Y-130500000D01*
X139887500Y-130500000D02*
X139887500Y-131400000D01*
X139887500Y-131000000D02*
X141087500Y-131000000D01*
X141087500Y-131000000D02*
X141087500Y-131000000D01*
X141087500Y-131000000D02*
X139887500Y-131000000D01*
X139887500Y-131000000D02*
X139887500Y-131000000D01*
X140387500Y-131000000D02*
X140387500Y-131000000D01*
X140387500Y-131000000D02*
X140387500Y-130500000D01*
X140387500Y-130500000D02*
X140387500Y-130500000D01*
X140387500Y-130500000D02*
X140387500Y-131000000D01*
X141087500Y-131000000D02*
X141087500Y-131000000D01*
X141087500Y-131000000D02*
X141087500Y-130500000D01*
X141087500Y-130500000D02*
X141087500Y-130500000D01*
X141087500Y-130500000D02*
X141087500Y-131000000D01*
X142237500Y-140500000D02*
X139887500Y-140500000D01*
X139887500Y-140500000D02*
X139887500Y-139600000D01*
X139887500Y-140000000D02*
X141087500Y-140000000D01*
X141087500Y-140000000D02*
X141087500Y-140000000D01*
X141087500Y-140000000D02*
X139887500Y-140000000D01*
X139887500Y-140000000D02*
X139887500Y-140000000D01*
X140387500Y-140000000D02*
X140387500Y-140000000D01*
X140387500Y-140000000D02*
X140387500Y-140500000D01*
X140387500Y-140500000D02*
X140387500Y-140500000D01*
X140387500Y-140500000D02*
X140387500Y-140000000D01*
X141087500Y-140000000D02*
X141087500Y-140000000D01*
X141087500Y-140000000D02*
X141087500Y-140500000D01*
X141087500Y-140500000D02*
X141087500Y-140500000D01*
X141087500Y-140500000D02*
X141087500Y-140000000D01*
D10*
G36*
X141492500Y-102006729D02*
X141452050Y-101912344D01*
X141347499Y-101758968D01*
X141204043Y-101577913D01*
X141046877Y-101400493D01*
X140901199Y-101258021D01*
X140867337Y-101229792D01*
X140483085Y-100990497D01*
X140044700Y-100824655D01*
X139589631Y-100741298D01*
X139155323Y-100749460D01*
X138999866Y-100779347D01*
X138526063Y-100960933D01*
X138087104Y-101252868D01*
X137828047Y-101499546D01*
X137666899Y-101687649D01*
X137541677Y-101855679D01*
X137477605Y-101969551D01*
X137475807Y-101975563D01*
X137466453Y-102062021D01*
X137526660Y-102067976D01*
X137598441Y-102043246D01*
X137758284Y-102006763D01*
X137973481Y-101985898D01*
X138053504Y-101984000D01*
X138362650Y-102029171D01*
X138617919Y-102174931D01*
X138785089Y-102350157D01*
X138875733Y-102448405D01*
X138944793Y-102452333D01*
X139018285Y-102394682D01*
X139223586Y-102285232D01*
X139482222Y-102251465D01*
X139743627Y-102296035D01*
X139862686Y-102350354D01*
X140080141Y-102478656D01*
X140283584Y-102262967D01*
X140465605Y-102101087D01*
X140655706Y-102013109D01*
X140893924Y-101986999D01*
X141148896Y-102002861D01*
X141337840Y-102017121D01*
X141462642Y-102016493D01*
X141492500Y-102006729D01*
X141492500Y-102006729D01*
X141492500Y-102006729D01*
G37*
X141492500Y-102006729D02*
X141452050Y-101912344D01*
X141347499Y-101758968D01*
X141204043Y-101577913D01*
X141046877Y-101400493D01*
X140901199Y-101258021D01*
X140867337Y-101229792D01*
X140483085Y-100990497D01*
X140044700Y-100824655D01*
X139589631Y-100741298D01*
X139155323Y-100749460D01*
X138999866Y-100779347D01*
X138526063Y-100960933D01*
X138087104Y-101252868D01*
X137828047Y-101499546D01*
X137666899Y-101687649D01*
X137541677Y-101855679D01*
X137477605Y-101969551D01*
X137475807Y-101975563D01*
X137466453Y-102062021D01*
X137526660Y-102067976D01*
X137598441Y-102043246D01*
X137758284Y-102006763D01*
X137973481Y-101985898D01*
X138053504Y-101984000D01*
X138362650Y-102029171D01*
X138617919Y-102174931D01*
X138785089Y-102350157D01*
X138875733Y-102448405D01*
X138944793Y-102452333D01*
X139018285Y-102394682D01*
X139223586Y-102285232D01*
X139482222Y-102251465D01*
X139743627Y-102296035D01*
X139862686Y-102350354D01*
X140080141Y-102478656D01*
X140283584Y-102262967D01*
X140465605Y-102101087D01*
X140655706Y-102013109D01*
X140893924Y-101986999D01*
X141148896Y-102002861D01*
X141337840Y-102017121D01*
X141462642Y-102016493D01*
X141492500Y-102006729D01*
X141492500Y-102006729D01*
G36*
X135743612Y-102864454D02*
X135676870Y-102633163D01*
X135528678Y-102440613D01*
X135321793Y-102304760D01*
X135078974Y-102243562D01*
X134822981Y-102274975D01*
X134704989Y-102326615D01*
X134523304Y-102493670D01*
X134411930Y-102729491D01*
X134380774Y-102991130D01*
X134439742Y-103235638D01*
X134479604Y-103303734D01*
X134686745Y-103506430D01*
X134930243Y-103602695D01*
X135183764Y-103596548D01*
X135420978Y-103492009D01*
X135615551Y-103293096D01*
X135706143Y-103116530D01*
X135743612Y-102864454D01*
X135743612Y-102864454D01*
X135743612Y-102864454D01*
G37*
X135743612Y-102864454D02*
X135676870Y-102633163D01*
X135528678Y-102440613D01*
X135321793Y-102304760D01*
X135078974Y-102243562D01*
X134822981Y-102274975D01*
X134704989Y-102326615D01*
X134523304Y-102493670D01*
X134411930Y-102729491D01*
X134380774Y-102991130D01*
X134439742Y-103235638D01*
X134479604Y-103303734D01*
X134686745Y-103506430D01*
X134930243Y-103602695D01*
X135183764Y-103596548D01*
X135420978Y-103492009D01*
X135615551Y-103293096D01*
X135706143Y-103116530D01*
X135743612Y-102864454D01*
X135743612Y-102864454D01*
G36*
X138697848Y-102976940D02*
X138660284Y-102700422D01*
X138592755Y-102554834D01*
X138409264Y-102357132D01*
X138167669Y-102252158D01*
X137901749Y-102244970D01*
X137645285Y-102340626D01*
X137562531Y-102400578D01*
X137391581Y-102612647D01*
X137324458Y-102850762D01*
X137348354Y-103091140D01*
X137450461Y-103310000D01*
X137617972Y-103483558D01*
X137838080Y-103588032D01*
X138097976Y-103599642D01*
X138196228Y-103577286D01*
X138455573Y-103441795D01*
X138626195Y-103232872D01*
X138697848Y-102976940D01*
X138697848Y-102976940D01*
X138697848Y-102976940D01*
G37*
X138697848Y-102976940D02*
X138660284Y-102700422D01*
X138592755Y-102554834D01*
X138409264Y-102357132D01*
X138167669Y-102252158D01*
X137901749Y-102244970D01*
X137645285Y-102340626D01*
X137562531Y-102400578D01*
X137391581Y-102612647D01*
X137324458Y-102850762D01*
X137348354Y-103091140D01*
X137450461Y-103310000D01*
X137617972Y-103483558D01*
X137838080Y-103588032D01*
X138097976Y-103599642D01*
X138196228Y-103577286D01*
X138455573Y-103441795D01*
X138626195Y-103232872D01*
X138697848Y-102976940D01*
X138697848Y-102976940D01*
G36*
X141683000Y-102939425D02*
X141635437Y-102727467D01*
X141515190Y-102507283D01*
X141355918Y-102340073D01*
X141351733Y-102337105D01*
X141159754Y-102263204D01*
X140915903Y-102246347D01*
X140682902Y-102288831D01*
X140630182Y-102310679D01*
X140449083Y-102463525D01*
X140332583Y-102693572D01*
X140299907Y-102959406D01*
X140304890Y-103011511D01*
X140386280Y-103283521D01*
X140554509Y-103469784D01*
X140795202Y-103579363D01*
X140991218Y-103616756D01*
X141162640Y-103583063D01*
X141248029Y-103546039D01*
X141457858Y-103395317D01*
X141613004Y-103187545D01*
X141681999Y-102966607D01*
X141683000Y-102939425D01*
X141683000Y-102939425D01*
X141683000Y-102939425D01*
G37*
X141683000Y-102939425D02*
X141635437Y-102727467D01*
X141515190Y-102507283D01*
X141355918Y-102340073D01*
X141351733Y-102337105D01*
X141159754Y-102263204D01*
X140915903Y-102246347D01*
X140682902Y-102288831D01*
X140630182Y-102310679D01*
X140449083Y-102463525D01*
X140332583Y-102693572D01*
X140299907Y-102959406D01*
X140304890Y-103011511D01*
X140386280Y-103283521D01*
X140554509Y-103469784D01*
X140795202Y-103579363D01*
X140991218Y-103616756D01*
X141162640Y-103583063D01*
X141248029Y-103546039D01*
X141457858Y-103395317D01*
X141613004Y-103187545D01*
X141681999Y-102966607D01*
X141683000Y-102939425D01*
X141683000Y-102939425D01*
G36*
X138634078Y-103705366D02*
X138414328Y-103797183D01*
X138202774Y-103860911D01*
X137993451Y-103888717D01*
X137986164Y-103888763D01*
X137760608Y-103843156D01*
X137516590Y-103727385D01*
X137312553Y-103572352D01*
X137250625Y-103499839D01*
X137188740Y-103426649D01*
X137124304Y-103424809D01*
X137012209Y-103497260D01*
X136985190Y-103517161D01*
X136740839Y-103627620D01*
X136461200Y-103648846D01*
X136197700Y-103580424D01*
X136103441Y-103524282D01*
X135930262Y-103396246D01*
X135700251Y-103607035D01*
X135405112Y-103803863D01*
X135086742Y-103876180D01*
X134748317Y-103823315D01*
X134721481Y-103814021D01*
X134457826Y-103719211D01*
X134521571Y-103902071D01*
X134636275Y-104112174D01*
X134831375Y-104353347D01*
X135076193Y-104595076D01*
X135340055Y-104806849D01*
X135574929Y-104949817D01*
X135773319Y-105038827D01*
X135952124Y-105092284D01*
X136156738Y-105118813D01*
X136432555Y-105127040D01*
X136508701Y-105127250D01*
X136800177Y-105122674D01*
X137012459Y-105102282D01*
X137193217Y-105056086D01*
X137390123Y-104974093D01*
X137506160Y-104918209D01*
X137955342Y-104629984D01*
X138316505Y-104253542D01*
X138513082Y-103940058D01*
X138634078Y-103705366D01*
X138634078Y-103705366D01*
X138634078Y-103705366D01*
G37*
X138634078Y-103705366D02*
X138414328Y-103797183D01*
X138202774Y-103860911D01*
X137993451Y-103888717D01*
X137986164Y-103888763D01*
X137760608Y-103843156D01*
X137516590Y-103727385D01*
X137312553Y-103572352D01*
X137250625Y-103499839D01*
X137188740Y-103426649D01*
X137124304Y-103424809D01*
X137012209Y-103497260D01*
X136985190Y-103517161D01*
X136740839Y-103627620D01*
X136461200Y-103648846D01*
X136197700Y-103580424D01*
X136103441Y-103524282D01*
X135930262Y-103396246D01*
X135700251Y-103607035D01*
X135405112Y-103803863D01*
X135086742Y-103876180D01*
X134748317Y-103823315D01*
X134721481Y-103814021D01*
X134457826Y-103719211D01*
X134521571Y-103902071D01*
X134636275Y-104112174D01*
X134831375Y-104353347D01*
X135076193Y-104595076D01*
X135340055Y-104806849D01*
X135574929Y-104949817D01*
X135773319Y-105038827D01*
X135952124Y-105092284D01*
X136156738Y-105118813D01*
X136432555Y-105127040D01*
X136508701Y-105127250D01*
X136800177Y-105122674D01*
X137012459Y-105102282D01*
X137193217Y-105056086D01*
X137390123Y-104974093D01*
X137506160Y-104918209D01*
X137955342Y-104629984D01*
X138316505Y-104253542D01*
X138513082Y-103940058D01*
X138634078Y-103705366D01*
X138634078Y-103705366D01*
G36*
X138950007Y-124714819D02*
X138950403Y-124791526D01*
X138951801Y-124860278D01*
X138952164Y-124871275D01*
X138957444Y-125020192D01*
X139085347Y-125044162D01*
X139184620Y-125062838D01*
X139272923Y-125079594D01*
X139349120Y-125094210D01*
X139412073Y-125106464D01*
X139460647Y-125116135D01*
X139493706Y-125123002D01*
X139510112Y-125126843D01*
X139510491Y-125126957D01*
X139524188Y-125136696D01*
X139539335Y-125158785D01*
X139556728Y-125194751D01*
X139577165Y-125246123D01*
X139587936Y-125275715D01*
X139604603Y-125319496D01*
X139625784Y-125370926D01*
X139647893Y-125421418D01*
X139656790Y-125440694D01*
X139680597Y-125492782D01*
X139696115Y-125532508D01*
X139703540Y-125563548D01*
X139703071Y-125589574D01*
X139694906Y-125614261D01*
X139679242Y-125641283D01*
X139668435Y-125657138D01*
X139605237Y-125748034D01*
X139550378Y-125828016D01*
X139504339Y-125896363D01*
X139467599Y-125952353D01*
X139440637Y-125995267D01*
X139423932Y-126024383D01*
X139422849Y-126026497D01*
X139398785Y-126074245D01*
X139595135Y-126273432D01*
X139644526Y-126323156D01*
X139690485Y-126368701D01*
X139731309Y-126408436D01*
X139765293Y-126440728D01*
X139790735Y-126463946D01*
X139805931Y-126476459D01*
X139808806Y-126478116D01*
X139817944Y-126479299D01*
X139829912Y-126476908D01*
X139846426Y-126469927D01*
X139869200Y-126457343D01*
X139899949Y-126438141D01*
X139940390Y-126411307D01*
X139992235Y-126375827D01*
X140052357Y-126334065D01*
X140101611Y-126300096D01*
X140149163Y-126268000D01*
X140191770Y-126239914D01*
X140226189Y-126217975D01*
X140249177Y-126204318D01*
X140249777Y-126203994D01*
X140297518Y-126178322D01*
X140335955Y-126199615D01*
X140372703Y-126219527D01*
X140411401Y-126239761D01*
X140448658Y-126258637D01*
X140481082Y-126274473D01*
X140505281Y-126285590D01*
X140517863Y-126290306D01*
X140518854Y-126290237D01*
X140525003Y-126278466D01*
X140537136Y-126251763D01*
X140554470Y-126212028D01*
X140576221Y-126161163D01*
X140601605Y-126101069D01*
X140629837Y-126033646D01*
X140660134Y-125960795D01*
X140691711Y-125884417D01*
X140723786Y-125806413D01*
X140755572Y-125728684D01*
X140786288Y-125653130D01*
X140815147Y-125581653D01*
X140841368Y-125516152D01*
X140864165Y-125458530D01*
X140882754Y-125410687D01*
X140894788Y-125378786D01*
X140921906Y-125305238D01*
X140858076Y-125261624D01*
X140778840Y-125200584D01*
X140708103Y-125132363D01*
X140648370Y-125059892D01*
X140602145Y-124986102D01*
X140579141Y-124935168D01*
X140569063Y-124902337D01*
X140558981Y-124859806D01*
X140550836Y-124815915D01*
X140549802Y-124809046D01*
X140543759Y-124705467D01*
X140555013Y-124603165D01*
X140582763Y-124504410D01*
X140626205Y-124411471D01*
X140684536Y-124326616D01*
X140742003Y-124265505D01*
X140821073Y-124203807D01*
X140909336Y-124155401D01*
X141003765Y-124121264D01*
X141101333Y-124102377D01*
X141199015Y-124099718D01*
X141241296Y-124103948D01*
X141349132Y-124127497D01*
X141447497Y-124165898D01*
X141535467Y-124218412D01*
X141612117Y-124284298D01*
X141676523Y-124362816D01*
X141727762Y-124453227D01*
X141751722Y-124512646D01*
X141773011Y-124594773D01*
X141783811Y-124684841D01*
X141783708Y-124775704D01*
X141772292Y-124860216D01*
X141771874Y-124862112D01*
X141741567Y-124957160D01*
X141694798Y-125046161D01*
X141632694Y-125127520D01*
X141556379Y-125199643D01*
X141508613Y-125234893D01*
X141474349Y-125258844D01*
X141445344Y-125280685D01*
X141425246Y-125297577D01*
X141418283Y-125305171D01*
X141415759Y-125309012D01*
X141413825Y-125312720D01*
X141412991Y-125317660D01*
X141413768Y-125325200D01*
X141416665Y-125336704D01*
X141422192Y-125353539D01*
X141430861Y-125377071D01*
X141443181Y-125408665D01*
X141459663Y-125449688D01*
X141480816Y-125501506D01*
X141507151Y-125565484D01*
X141539179Y-125642989D01*
X141577409Y-125735386D01*
X141593651Y-125774643D01*
X141635748Y-125876298D01*
X141671580Y-125962556D01*
X141701749Y-126034809D01*
X141726861Y-126094453D01*
X141747518Y-126142882D01*
X141764325Y-126181489D01*
X141777885Y-126211670D01*
X141788802Y-126234818D01*
X141797680Y-126252328D01*
X141805122Y-126265594D01*
X141808877Y-126271673D01*
X141822187Y-126292452D01*
X141924916Y-126237655D01*
X141964597Y-126216957D01*
X141999089Y-126199840D01*
X142024956Y-126187946D01*
X142038760Y-126182921D01*
X142039449Y-126182857D01*
X142050903Y-126187711D01*
X142074832Y-126201195D01*
X142108738Y-126221693D01*
X142150124Y-126247588D01*
X142196493Y-126277264D01*
X142245346Y-126309104D01*
X142294186Y-126341492D01*
X142340516Y-126372811D01*
X142381839Y-126401446D01*
X142415655Y-126425779D01*
X142421370Y-126430041D01*
X142455544Y-126454031D01*
X142485341Y-126471806D01*
X142506785Y-126481095D01*
X142512084Y-126481926D01*
X142523171Y-126477514D01*
X142542228Y-126463969D01*
X142570123Y-126440520D01*
X142607723Y-126406402D01*
X142655894Y-126360844D01*
X142715502Y-126303081D01*
X142730696Y-126288208D01*
X142780863Y-126238511D01*
X142826205Y-126192599D01*
X142865170Y-126152118D01*
X142896206Y-126118716D01*
X142917762Y-126094041D01*
X142928287Y-126079739D01*
X142929074Y-126077586D01*
X142928323Y-126050355D01*
X142920025Y-126027408D01*
X142903733Y-126003285D01*
X142890047Y-125984468D01*
X142868302Y-125953695D01*
X142840484Y-125913854D01*
X142808581Y-125867834D01*
X142774577Y-125818526D01*
X142740460Y-125768817D01*
X142708215Y-125721598D01*
X142679830Y-125679757D01*
X142657290Y-125646184D01*
X142642582Y-125623768D01*
X142640089Y-125619805D01*
X142620123Y-125587430D01*
X142691798Y-125405281D01*
X142714503Y-125348198D01*
X142736539Y-125293918D01*
X142756521Y-125245773D01*
X142773061Y-125207093D01*
X142784773Y-125181211D01*
X142786698Y-125177299D01*
X142794462Y-125162039D01*
X142801917Y-125149758D01*
X142811138Y-125139734D01*
X142824197Y-125131246D01*
X142843168Y-125123573D01*
X142870126Y-125115995D01*
X142907144Y-125107789D01*
X142956295Y-125098236D01*
X143019654Y-125086613D01*
X143077678Y-125076117D01*
X143138702Y-125064902D01*
X143196464Y-125053973D01*
X143247608Y-125043988D01*
X143288778Y-125035606D01*
X143316616Y-125029488D01*
X143322607Y-125027998D01*
X143367964Y-125015999D01*
X143370353Y-124716172D01*
X143372741Y-124416345D01*
X143279638Y-124397213D01*
X143240352Y-124389357D01*
X143188020Y-124379206D01*
X143127455Y-124367676D01*
X143063468Y-124355684D01*
X143005107Y-124344920D01*
X142948891Y-124334476D01*
X142897900Y-124324683D01*
X142855160Y-124316149D01*
X142823694Y-124309479D01*
X142806528Y-124305281D01*
X142805205Y-124304841D01*
X142798493Y-124300832D01*
X142791007Y-124292644D01*
X142781950Y-124278624D01*
X142770522Y-124257124D01*
X142755926Y-124226492D01*
X142737362Y-124185077D01*
X142714031Y-124131229D01*
X142685136Y-124063298D01*
X142663364Y-124011694D01*
X142644773Y-123966540D01*
X142629043Y-123926434D01*
X142617436Y-123894737D01*
X142611210Y-123874814D01*
X142610500Y-123870587D01*
X142615432Y-123857486D01*
X142628894Y-123833012D01*
X142648878Y-123800562D01*
X142673380Y-123763535D01*
X142675606Y-123760286D01*
X142742469Y-123662566D01*
X142798818Y-123579306D01*
X142844800Y-123510283D01*
X142880558Y-123455275D01*
X142906237Y-123414059D01*
X142921981Y-123386411D01*
X142927936Y-123372110D01*
X142928000Y-123371311D01*
X142921935Y-123360857D01*
X142905023Y-123339559D01*
X142879182Y-123309464D01*
X142846332Y-123272617D01*
X142808394Y-123231065D01*
X142767287Y-123186853D01*
X142724931Y-123142027D01*
X142683245Y-123098634D01*
X142644151Y-123058718D01*
X142609568Y-123024326D01*
X142581415Y-122997505D01*
X142561613Y-122980299D01*
X142559699Y-122978836D01*
X142534971Y-122963404D01*
X142512726Y-122954388D01*
X142506145Y-122953429D01*
X142490327Y-122958711D01*
X142464988Y-122972797D01*
X142434683Y-122993044D01*
X142423134Y-123001561D01*
X142389143Y-123026242D01*
X142345653Y-123056288D01*
X142298660Y-123087622D01*
X142260533Y-123112162D01*
X142216530Y-123140550D01*
X142172162Y-123170271D01*
X142132907Y-123197593D01*
X142106651Y-123216917D01*
X142067691Y-123246112D01*
X142039056Y-123265017D01*
X142017422Y-123275299D01*
X141999466Y-123278620D01*
X141985797Y-123277435D01*
X141970221Y-123272534D01*
X141940163Y-123261172D01*
X141897734Y-123244222D01*
X141845046Y-123222558D01*
X141784211Y-123197053D01*
X141717341Y-123168580D01*
X141646547Y-123138012D01*
X141607518Y-123120982D01*
X141579716Y-123108803D01*
X141528967Y-122826673D01*
X141514714Y-122749318D01*
X141501307Y-122680167D01*
X141489148Y-122621106D01*
X141478643Y-122574020D01*
X141470198Y-122540795D01*
X141464217Y-122523316D01*
X141463578Y-122522200D01*
X141448939Y-122499858D01*
X141164508Y-122499858D01*
X141081763Y-122500003D01*
X141015475Y-122500487D01*
X140963958Y-122501378D01*
X140925530Y-122502746D01*
X140898504Y-122504660D01*
X140881196Y-122507190D01*
X140871923Y-122510406D01*
X140869989Y-122512014D01*
X140863065Y-122527675D01*
X140854037Y-122559722D01*
X140843250Y-122606568D01*
X140831046Y-122666622D01*
X140817772Y-122738296D01*
X140805383Y-122810283D01*
X140795860Y-122865389D01*
X140784919Y-122925546D01*
X140774136Y-122982231D01*
X140767564Y-123015086D01*
X140760555Y-123049996D01*
X140754427Y-123076011D01*
X140746706Y-123095490D01*
X140734918Y-123110792D01*
X140716589Y-123124277D01*
X140689246Y-123138304D01*
X140650414Y-123155231D01*
X140597620Y-123177419D01*
X140597116Y-123177632D01*
X140548961Y-123197994D01*
X140497699Y-123219689D01*
X140450995Y-123239473D01*
X140428821Y-123248876D01*
X140392722Y-123263073D01*
X140360288Y-123273852D01*
X140337056Y-123279436D01*
X140332490Y-123279834D01*
X140312320Y-123273912D01*
X140280382Y-123256536D01*
X140238219Y-123228581D01*
X140223633Y-123218136D01*
X140168887Y-123178984D01*
X140109614Y-123137704D01*
X140049144Y-123096520D01*
X139990806Y-123057657D01*
X139937929Y-123023338D01*
X139893843Y-122995787D01*
X139868185Y-122980698D01*
X139815548Y-122951160D01*
X139791390Y-122972705D01*
X139757525Y-123003508D01*
X139717443Y-123040932D01*
X139673196Y-123082965D01*
X139626835Y-123127591D01*
X139580411Y-123172795D01*
X139535975Y-123216565D01*
X139495581Y-123256885D01*
X139461278Y-123291741D01*
X139435118Y-123319118D01*
X139419153Y-123337003D01*
X139415773Y-123341528D01*
X139407462Y-123357204D01*
X139403913Y-123372418D01*
X139406158Y-123389668D01*
X139415233Y-123411452D01*
X139432172Y-123440269D01*
X139458009Y-123478616D01*
X139492857Y-123527708D01*
X139547569Y-123604076D01*
X139592553Y-123667200D01*
X139628778Y-123718492D01*
X139657211Y-123759363D01*
X139678819Y-123791226D01*
X139694569Y-123815491D01*
X139705429Y-123833571D01*
X139712366Y-123846878D01*
X139713828Y-123850150D01*
X139720172Y-123867548D01*
X139721153Y-123882700D01*
X139715842Y-123901350D01*
X139703311Y-123929242D01*
X139699909Y-123936329D01*
X139686161Y-123966378D01*
X139668090Y-124008037D01*
X139647951Y-124056011D01*
X139627998Y-124105001D01*
X139626202Y-124109495D01*
X139598498Y-124176857D01*
X139575232Y-124228459D01*
X139555516Y-124265881D01*
X139538460Y-124290706D01*
X139523175Y-124304517D01*
X139514540Y-124308161D01*
X139497160Y-124311889D01*
X139465198Y-124318279D01*
X139421914Y-124326713D01*
X139370570Y-124336574D01*
X139314427Y-124347243D01*
X139256745Y-124358104D01*
X139200786Y-124368539D01*
X139149812Y-124377931D01*
X139107084Y-124385662D01*
X139081714Y-124390118D01*
X139043239Y-124397301D01*
X139009103Y-124404694D01*
X138985237Y-124410984D01*
X138981079Y-124412415D01*
X138957552Y-124421472D01*
X138952218Y-124571915D01*
X138950613Y-124638750D01*
X138950007Y-124714819D01*
X138950007Y-124714819D01*
X138950007Y-124714819D01*
G37*
X138950007Y-124714819D02*
X138950403Y-124791526D01*
X138951801Y-124860278D01*
X138952164Y-124871275D01*
X138957444Y-125020192D01*
X139085347Y-125044162D01*
X139184620Y-125062838D01*
X139272923Y-125079594D01*
X139349120Y-125094210D01*
X139412073Y-125106464D01*
X139460647Y-125116135D01*
X139493706Y-125123002D01*
X139510112Y-125126843D01*
X139510491Y-125126957D01*
X139524188Y-125136696D01*
X139539335Y-125158785D01*
X139556728Y-125194751D01*
X139577165Y-125246123D01*
X139587936Y-125275715D01*
X139604603Y-125319496D01*
X139625784Y-125370926D01*
X139647893Y-125421418D01*
X139656790Y-125440694D01*
X139680597Y-125492782D01*
X139696115Y-125532508D01*
X139703540Y-125563548D01*
X139703071Y-125589574D01*
X139694906Y-125614261D01*
X139679242Y-125641283D01*
X139668435Y-125657138D01*
X139605237Y-125748034D01*
X139550378Y-125828016D01*
X139504339Y-125896363D01*
X139467599Y-125952353D01*
X139440637Y-125995267D01*
X139423932Y-126024383D01*
X139422849Y-126026497D01*
X139398785Y-126074245D01*
X139595135Y-126273432D01*
X139644526Y-126323156D01*
X139690485Y-126368701D01*
X139731309Y-126408436D01*
X139765293Y-126440728D01*
X139790735Y-126463946D01*
X139805931Y-126476459D01*
X139808806Y-126478116D01*
X139817944Y-126479299D01*
X139829912Y-126476908D01*
X139846426Y-126469927D01*
X139869200Y-126457343D01*
X139899949Y-126438141D01*
X139940390Y-126411307D01*
X139992235Y-126375827D01*
X140052357Y-126334065D01*
X140101611Y-126300096D01*
X140149163Y-126268000D01*
X140191770Y-126239914D01*
X140226189Y-126217975D01*
X140249177Y-126204318D01*
X140249777Y-126203994D01*
X140297518Y-126178322D01*
X140335955Y-126199615D01*
X140372703Y-126219527D01*
X140411401Y-126239761D01*
X140448658Y-126258637D01*
X140481082Y-126274473D01*
X140505281Y-126285590D01*
X140517863Y-126290306D01*
X140518854Y-126290237D01*
X140525003Y-126278466D01*
X140537136Y-126251763D01*
X140554470Y-126212028D01*
X140576221Y-126161163D01*
X140601605Y-126101069D01*
X140629837Y-126033646D01*
X140660134Y-125960795D01*
X140691711Y-125884417D01*
X140723786Y-125806413D01*
X140755572Y-125728684D01*
X140786288Y-125653130D01*
X140815147Y-125581653D01*
X140841368Y-125516152D01*
X140864165Y-125458530D01*
X140882754Y-125410687D01*
X140894788Y-125378786D01*
X140921906Y-125305238D01*
X140858076Y-125261624D01*
X140778840Y-125200584D01*
X140708103Y-125132363D01*
X140648370Y-125059892D01*
X140602145Y-124986102D01*
X140579141Y-124935168D01*
X140569063Y-124902337D01*
X140558981Y-124859806D01*
X140550836Y-124815915D01*
X140549802Y-124809046D01*
X140543759Y-124705467D01*
X140555013Y-124603165D01*
X140582763Y-124504410D01*
X140626205Y-124411471D01*
X140684536Y-124326616D01*
X140742003Y-124265505D01*
X140821073Y-124203807D01*
X140909336Y-124155401D01*
X141003765Y-124121264D01*
X141101333Y-124102377D01*
X141199015Y-124099718D01*
X141241296Y-124103948D01*
X141349132Y-124127497D01*
X141447497Y-124165898D01*
X141535467Y-124218412D01*
X141612117Y-124284298D01*
X141676523Y-124362816D01*
X141727762Y-124453227D01*
X141751722Y-124512646D01*
X141773011Y-124594773D01*
X141783811Y-124684841D01*
X141783708Y-124775704D01*
X141772292Y-124860216D01*
X141771874Y-124862112D01*
X141741567Y-124957160D01*
X141694798Y-125046161D01*
X141632694Y-125127520D01*
X141556379Y-125199643D01*
X141508613Y-125234893D01*
X141474349Y-125258844D01*
X141445344Y-125280685D01*
X141425246Y-125297577D01*
X141418283Y-125305171D01*
X141415759Y-125309012D01*
X141413825Y-125312720D01*
X141412991Y-125317660D01*
X141413768Y-125325200D01*
X141416665Y-125336704D01*
X141422192Y-125353539D01*
X141430861Y-125377071D01*
X141443181Y-125408665D01*
X141459663Y-125449688D01*
X141480816Y-125501506D01*
X141507151Y-125565484D01*
X141539179Y-125642989D01*
X141577409Y-125735386D01*
X141593651Y-125774643D01*
X141635748Y-125876298D01*
X141671580Y-125962556D01*
X141701749Y-126034809D01*
X141726861Y-126094453D01*
X141747518Y-126142882D01*
X141764325Y-126181489D01*
X141777885Y-126211670D01*
X141788802Y-126234818D01*
X141797680Y-126252328D01*
X141805122Y-126265594D01*
X141808877Y-126271673D01*
X141822187Y-126292452D01*
X141924916Y-126237655D01*
X141964597Y-126216957D01*
X141999089Y-126199840D01*
X142024956Y-126187946D01*
X142038760Y-126182921D01*
X142039449Y-126182857D01*
X142050903Y-126187711D01*
X142074832Y-126201195D01*
X142108738Y-126221693D01*
X142150124Y-126247588D01*
X142196493Y-126277264D01*
X142245346Y-126309104D01*
X142294186Y-126341492D01*
X142340516Y-126372811D01*
X142381839Y-126401446D01*
X142415655Y-126425779D01*
X142421370Y-126430041D01*
X142455544Y-126454031D01*
X142485341Y-126471806D01*
X142506785Y-126481095D01*
X142512084Y-126481926D01*
X142523171Y-126477514D01*
X142542228Y-126463969D01*
X142570123Y-126440520D01*
X142607723Y-126406402D01*
X142655894Y-126360844D01*
X142715502Y-126303081D01*
X142730696Y-126288208D01*
X142780863Y-126238511D01*
X142826205Y-126192599D01*
X142865170Y-126152118D01*
X142896206Y-126118716D01*
X142917762Y-126094041D01*
X142928287Y-126079739D01*
X142929074Y-126077586D01*
X142928323Y-126050355D01*
X142920025Y-126027408D01*
X142903733Y-126003285D01*
X142890047Y-125984468D01*
X142868302Y-125953695D01*
X142840484Y-125913854D01*
X142808581Y-125867834D01*
X142774577Y-125818526D01*
X142740460Y-125768817D01*
X142708215Y-125721598D01*
X142679830Y-125679757D01*
X142657290Y-125646184D01*
X142642582Y-125623768D01*
X142640089Y-125619805D01*
X142620123Y-125587430D01*
X142691798Y-125405281D01*
X142714503Y-125348198D01*
X142736539Y-125293918D01*
X142756521Y-125245773D01*
X142773061Y-125207093D01*
X142784773Y-125181211D01*
X142786698Y-125177299D01*
X142794462Y-125162039D01*
X142801917Y-125149758D01*
X142811138Y-125139734D01*
X142824197Y-125131246D01*
X142843168Y-125123573D01*
X142870126Y-125115995D01*
X142907144Y-125107789D01*
X142956295Y-125098236D01*
X143019654Y-125086613D01*
X143077678Y-125076117D01*
X143138702Y-125064902D01*
X143196464Y-125053973D01*
X143247608Y-125043988D01*
X143288778Y-125035606D01*
X143316616Y-125029488D01*
X143322607Y-125027998D01*
X143367964Y-125015999D01*
X143370353Y-124716172D01*
X143372741Y-124416345D01*
X143279638Y-124397213D01*
X143240352Y-124389357D01*
X143188020Y-124379206D01*
X143127455Y-124367676D01*
X143063468Y-124355684D01*
X143005107Y-124344920D01*
X142948891Y-124334476D01*
X142897900Y-124324683D01*
X142855160Y-124316149D01*
X142823694Y-124309479D01*
X142806528Y-124305281D01*
X142805205Y-124304841D01*
X142798493Y-124300832D01*
X142791007Y-124292644D01*
X142781950Y-124278624D01*
X142770522Y-124257124D01*
X142755926Y-124226492D01*
X142737362Y-124185077D01*
X142714031Y-124131229D01*
X142685136Y-124063298D01*
X142663364Y-124011694D01*
X142644773Y-123966540D01*
X142629043Y-123926434D01*
X142617436Y-123894737D01*
X142611210Y-123874814D01*
X142610500Y-123870587D01*
X142615432Y-123857486D01*
X142628894Y-123833012D01*
X142648878Y-123800562D01*
X142673380Y-123763535D01*
X142675606Y-123760286D01*
X142742469Y-123662566D01*
X142798818Y-123579306D01*
X142844800Y-123510283D01*
X142880558Y-123455275D01*
X142906237Y-123414059D01*
X142921981Y-123386411D01*
X142927936Y-123372110D01*
X142928000Y-123371311D01*
X142921935Y-123360857D01*
X142905023Y-123339559D01*
X142879182Y-123309464D01*
X142846332Y-123272617D01*
X142808394Y-123231065D01*
X142767287Y-123186853D01*
X142724931Y-123142027D01*
X142683245Y-123098634D01*
X142644151Y-123058718D01*
X142609568Y-123024326D01*
X142581415Y-122997505D01*
X142561613Y-122980299D01*
X142559699Y-122978836D01*
X142534971Y-122963404D01*
X142512726Y-122954388D01*
X142506145Y-122953429D01*
X142490327Y-122958711D01*
X142464988Y-122972797D01*
X142434683Y-122993044D01*
X142423134Y-123001561D01*
X142389143Y-123026242D01*
X142345653Y-123056288D01*
X142298660Y-123087622D01*
X142260533Y-123112162D01*
X142216530Y-123140550D01*
X142172162Y-123170271D01*
X142132907Y-123197593D01*
X142106651Y-123216917D01*
X142067691Y-123246112D01*
X142039056Y-123265017D01*
X142017422Y-123275299D01*
X141999466Y-123278620D01*
X141985797Y-123277435D01*
X141970221Y-123272534D01*
X141940163Y-123261172D01*
X141897734Y-123244222D01*
X141845046Y-123222558D01*
X141784211Y-123197053D01*
X141717341Y-123168580D01*
X141646547Y-123138012D01*
X141607518Y-123120982D01*
X141579716Y-123108803D01*
X141528967Y-122826673D01*
X141514714Y-122749318D01*
X141501307Y-122680167D01*
X141489148Y-122621106D01*
X141478643Y-122574020D01*
X141470198Y-122540795D01*
X141464217Y-122523316D01*
X141463578Y-122522200D01*
X141448939Y-122499858D01*
X141164508Y-122499858D01*
X141081763Y-122500003D01*
X141015475Y-122500487D01*
X140963958Y-122501378D01*
X140925530Y-122502746D01*
X140898504Y-122504660D01*
X140881196Y-122507190D01*
X140871923Y-122510406D01*
X140869989Y-122512014D01*
X140863065Y-122527675D01*
X140854037Y-122559722D01*
X140843250Y-122606568D01*
X140831046Y-122666622D01*
X140817772Y-122738296D01*
X140805383Y-122810283D01*
X140795860Y-122865389D01*
X140784919Y-122925546D01*
X140774136Y-122982231D01*
X140767564Y-123015086D01*
X140760555Y-123049996D01*
X140754427Y-123076011D01*
X140746706Y-123095490D01*
X140734918Y-123110792D01*
X140716589Y-123124277D01*
X140689246Y-123138304D01*
X140650414Y-123155231D01*
X140597620Y-123177419D01*
X140597116Y-123177632D01*
X140548961Y-123197994D01*
X140497699Y-123219689D01*
X140450995Y-123239473D01*
X140428821Y-123248876D01*
X140392722Y-123263073D01*
X140360288Y-123273852D01*
X140337056Y-123279436D01*
X140332490Y-123279834D01*
X140312320Y-123273912D01*
X140280382Y-123256536D01*
X140238219Y-123228581D01*
X140223633Y-123218136D01*
X140168887Y-123178984D01*
X140109614Y-123137704D01*
X140049144Y-123096520D01*
X139990806Y-123057657D01*
X139937929Y-123023338D01*
X139893843Y-122995787D01*
X139868185Y-122980698D01*
X139815548Y-122951160D01*
X139791390Y-122972705D01*
X139757525Y-123003508D01*
X139717443Y-123040932D01*
X139673196Y-123082965D01*
X139626835Y-123127591D01*
X139580411Y-123172795D01*
X139535975Y-123216565D01*
X139495581Y-123256885D01*
X139461278Y-123291741D01*
X139435118Y-123319118D01*
X139419153Y-123337003D01*
X139415773Y-123341528D01*
X139407462Y-123357204D01*
X139403913Y-123372418D01*
X139406158Y-123389668D01*
X139415233Y-123411452D01*
X139432172Y-123440269D01*
X139458009Y-123478616D01*
X139492857Y-123527708D01*
X139547569Y-123604076D01*
X139592553Y-123667200D01*
X139628778Y-123718492D01*
X139657211Y-123759363D01*
X139678819Y-123791226D01*
X139694569Y-123815491D01*
X139705429Y-123833571D01*
X139712366Y-123846878D01*
X139713828Y-123850150D01*
X139720172Y-123867548D01*
X139721153Y-123882700D01*
X139715842Y-123901350D01*
X139703311Y-123929242D01*
X139699909Y-123936329D01*
X139686161Y-123966378D01*
X139668090Y-124008037D01*
X139647951Y-124056011D01*
X139627998Y-124105001D01*
X139626202Y-124109495D01*
X139598498Y-124176857D01*
X139575232Y-124228459D01*
X139555516Y-124265881D01*
X139538460Y-124290706D01*
X139523175Y-124304517D01*
X139514540Y-124308161D01*
X139497160Y-124311889D01*
X139465198Y-124318279D01*
X139421914Y-124326713D01*
X139370570Y-124336574D01*
X139314427Y-124347243D01*
X139256745Y-124358104D01*
X139200786Y-124368539D01*
X139149812Y-124377931D01*
X139107084Y-124385662D01*
X139081714Y-124390118D01*
X139043239Y-124397301D01*
X139009103Y-124404694D01*
X138985237Y-124410984D01*
X138981079Y-124412415D01*
X138957552Y-124421472D01*
X138952218Y-124571915D01*
X138950613Y-124638750D01*
X138950007Y-124714819D01*
X138950007Y-124714819D01*
D13*
X108814286Y-126500000D02*
X108842857Y-126471429D01*
X108871429Y-126385715D01*
X108871429Y-126328572D01*
X108842857Y-126242857D01*
X108785714Y-126185715D01*
X108728571Y-126157143D01*
X108614286Y-126128572D01*
X108528571Y-126128572D01*
X108414286Y-126157143D01*
X108357143Y-126185715D01*
X108300000Y-126242857D01*
X108271429Y-126328572D01*
X108271429Y-126385715D01*
X108300000Y-126471429D01*
X108328571Y-126500000D01*
X108271429Y-126700000D02*
X108271429Y-127071429D01*
X108500000Y-126871429D01*
X108500000Y-126957143D01*
X108528571Y-127014286D01*
X108557143Y-127042857D01*
X108614286Y-127071429D01*
X108757143Y-127071429D01*
X108814286Y-127042857D01*
X108842857Y-127014286D01*
X108871429Y-126957143D01*
X108871429Y-126785715D01*
X108842857Y-126728572D01*
X108814286Y-126700000D01*
X136471429Y-128500000D02*
X136185714Y-128300000D01*
X136471429Y-128157143D02*
X135871429Y-128157143D01*
X135871429Y-128385715D01*
X135900000Y-128442857D01*
X135928571Y-128471429D01*
X135985714Y-128500000D01*
X136071429Y-128500000D01*
X136128571Y-128471429D01*
X136157143Y-128442857D01*
X136185714Y-128385715D01*
X136185714Y-128157143D01*
X136471429Y-129071429D02*
X136471429Y-128728572D01*
X136471429Y-128900000D02*
X135871429Y-128900000D01*
X135957143Y-128842857D01*
X136014286Y-128785715D01*
X136042857Y-128728572D01*
X109300000Y-124471429D02*
X109500000Y-124185714D01*
X109642857Y-124471429D02*
X109642857Y-123871429D01*
X109414285Y-123871429D01*
X109357143Y-123900000D01*
X109328571Y-123928571D01*
X109300000Y-123985714D01*
X109300000Y-124071429D01*
X109328571Y-124128571D01*
X109357143Y-124157143D01*
X109414285Y-124185714D01*
X109642857Y-124185714D01*
X109071428Y-123928571D02*
X109042857Y-123900000D01*
X108985714Y-123871429D01*
X108842857Y-123871429D01*
X108785714Y-123900000D01*
X108757143Y-123928571D01*
X108728571Y-123985714D01*
X108728571Y-124042857D01*
X108757143Y-124128571D01*
X109100000Y-124471429D01*
X108728571Y-124471429D01*
X109550000Y-118971429D02*
X109750000Y-118685714D01*
X109892857Y-118971429D02*
X109892857Y-118371429D01*
X109664285Y-118371429D01*
X109607143Y-118400000D01*
X109578571Y-118428571D01*
X109550000Y-118485714D01*
X109550000Y-118571429D01*
X109578571Y-118628571D01*
X109607143Y-118657143D01*
X109664285Y-118685714D01*
X109892857Y-118685714D01*
X109350000Y-118371429D02*
X108978571Y-118371429D01*
X109178571Y-118600000D01*
X109092857Y-118600000D01*
X109035714Y-118628571D01*
X109007143Y-118657143D01*
X108978571Y-118714286D01*
X108978571Y-118857143D01*
X109007143Y-118914286D01*
X109035714Y-118942857D01*
X109092857Y-118971429D01*
X109264285Y-118971429D01*
X109321428Y-118942857D01*
X109350000Y-118914286D01*
X107900000Y-130471429D02*
X108100000Y-130185714D01*
X108242857Y-130471429D02*
X108242857Y-129871429D01*
X108014285Y-129871429D01*
X107957143Y-129900000D01*
X107928571Y-129928571D01*
X107900000Y-129985714D01*
X107900000Y-130071429D01*
X107928571Y-130128571D01*
X107957143Y-130157143D01*
X108014285Y-130185714D01*
X108242857Y-130185714D01*
X107385714Y-130071429D02*
X107385714Y-130471429D01*
X107528571Y-129842857D02*
X107671428Y-130271429D01*
X107300000Y-130271429D01*
X137721429Y-124700000D02*
X137435714Y-124500000D01*
X137721429Y-124357143D02*
X137121429Y-124357143D01*
X137121429Y-124585715D01*
X137150000Y-124642857D01*
X137178571Y-124671429D01*
X137235714Y-124700000D01*
X137321429Y-124700000D01*
X137378571Y-124671429D01*
X137407143Y-124642857D01*
X137435714Y-124585715D01*
X137435714Y-124357143D01*
X137121429Y-125242857D02*
X137121429Y-124957143D01*
X137407143Y-124928572D01*
X137378571Y-124957143D01*
X137350000Y-125014286D01*
X137350000Y-125157143D01*
X137378571Y-125214286D01*
X137407143Y-125242857D01*
X137464286Y-125271429D01*
X137607143Y-125271429D01*
X137664286Y-125242857D01*
X137692857Y-125214286D01*
X137721429Y-125157143D01*
X137721429Y-125014286D01*
X137692857Y-124957143D01*
X137664286Y-124928572D01*
X109225000Y-122871429D02*
X109425000Y-122585714D01*
X109567857Y-122871429D02*
X109567857Y-122271429D01*
X109339285Y-122271429D01*
X109282143Y-122300000D01*
X109253571Y-122328571D01*
X109225000Y-122385714D01*
X109225000Y-122471429D01*
X109253571Y-122528571D01*
X109282143Y-122557143D01*
X109339285Y-122585714D01*
X109567857Y-122585714D01*
X108710714Y-122271429D02*
X108825000Y-122271429D01*
X108882143Y-122300000D01*
X108910714Y-122328571D01*
X108967857Y-122414286D01*
X108996428Y-122528571D01*
X108996428Y-122757143D01*
X108967857Y-122814286D01*
X108939285Y-122842857D01*
X108882143Y-122871429D01*
X108767857Y-122871429D01*
X108710714Y-122842857D01*
X108682143Y-122814286D01*
X108653571Y-122757143D01*
X108653571Y-122614286D01*
X108682143Y-122557143D01*
X108710714Y-122528571D01*
X108767857Y-122500000D01*
X108882143Y-122500000D01*
X108939285Y-122528571D01*
X108967857Y-122557143D01*
X108996428Y-122614286D01*
D16*
X133182714Y-116565001D02*
X133727000Y-116565001D01*
X133835857Y-116528715D01*
X133908429Y-116456144D01*
X133944714Y-116347287D01*
X133944714Y-116274715D01*
X133944714Y-116927858D02*
X133182714Y-116927858D01*
X133182714Y-117218143D01*
X133219000Y-117290715D01*
X133255286Y-117327000D01*
X133327857Y-117363286D01*
X133436714Y-117363286D01*
X133509286Y-117327000D01*
X133545571Y-117290715D01*
X133581857Y-117218143D01*
X133581857Y-116927858D01*
X133944714Y-118089000D02*
X133944714Y-117653572D01*
X133944714Y-117871286D02*
X133182714Y-117871286D01*
X133291571Y-117798715D01*
X133364143Y-117726143D01*
X133400429Y-117653572D01*
D13*
X109500000Y-144214286D02*
X109528571Y-144242857D01*
X109614285Y-144271429D01*
X109671428Y-144271429D01*
X109757143Y-144242857D01*
X109814285Y-144185714D01*
X109842857Y-144128571D01*
X109871428Y-144014286D01*
X109871428Y-143928571D01*
X109842857Y-143814286D01*
X109814285Y-143757143D01*
X109757143Y-143700000D01*
X109671428Y-143671429D01*
X109614285Y-143671429D01*
X109528571Y-143700000D01*
X109500000Y-143728571D01*
X108928571Y-144271429D02*
X109271428Y-144271429D01*
X109100000Y-144271429D02*
X109100000Y-143671429D01*
X109157143Y-143757143D01*
X109214285Y-143814286D01*
X109271428Y-143842857D01*
X103500000Y-129614286D02*
X103528571Y-129642857D01*
X103614285Y-129671429D01*
X103671428Y-129671429D01*
X103757143Y-129642857D01*
X103814285Y-129585714D01*
X103842857Y-129528571D01*
X103871428Y-129414286D01*
X103871428Y-129328571D01*
X103842857Y-129214286D01*
X103814285Y-129157143D01*
X103757143Y-129100000D01*
X103671428Y-129071429D01*
X103614285Y-129071429D01*
X103528571Y-129100000D01*
X103500000Y-129128571D01*
X103271428Y-129128571D02*
X103242857Y-129100000D01*
X103185714Y-129071429D01*
X103042857Y-129071429D01*
X102985714Y-129100000D01*
X102957143Y-129128571D01*
X102928571Y-129185714D01*
X102928571Y-129242857D01*
X102957143Y-129328571D01*
X103300000Y-129671429D01*
X102928571Y-129671429D01*
X111300000Y-139014286D02*
X111328571Y-139042857D01*
X111414285Y-139071429D01*
X111471428Y-139071429D01*
X111557143Y-139042857D01*
X111614285Y-138985714D01*
X111642857Y-138928571D01*
X111671428Y-138814286D01*
X111671428Y-138728571D01*
X111642857Y-138614286D01*
X111614285Y-138557143D01*
X111557143Y-138500000D01*
X111471428Y-138471429D01*
X111414285Y-138471429D01*
X111328571Y-138500000D01*
X111300000Y-138528571D01*
X110785714Y-138671429D02*
X110785714Y-139071429D01*
X110928571Y-138442857D02*
X111071428Y-138871429D01*
X110700000Y-138871429D01*
X112500000Y-134814286D02*
X112528571Y-134842857D01*
X112614285Y-134871429D01*
X112671428Y-134871429D01*
X112757143Y-134842857D01*
X112814285Y-134785714D01*
X112842857Y-134728571D01*
X112871428Y-134614286D01*
X112871428Y-134528571D01*
X112842857Y-134414286D01*
X112814285Y-134357143D01*
X112757143Y-134300000D01*
X112671428Y-134271429D01*
X112614285Y-134271429D01*
X112528571Y-134300000D01*
X112500000Y-134328571D01*
X111957143Y-134271429D02*
X112242857Y-134271429D01*
X112271428Y-134557143D01*
X112242857Y-134528571D01*
X112185714Y-134500000D01*
X112042857Y-134500000D01*
X111985714Y-134528571D01*
X111957143Y-134557143D01*
X111928571Y-134614286D01*
X111928571Y-134757143D01*
X111957143Y-134814286D01*
X111985714Y-134842857D01*
X112042857Y-134871429D01*
X112185714Y-134871429D01*
X112242857Y-134842857D01*
X112271428Y-134814286D01*
X126150000Y-142964286D02*
X126178571Y-142992857D01*
X126264285Y-143021429D01*
X126321428Y-143021429D01*
X126407143Y-142992857D01*
X126464285Y-142935714D01*
X126492857Y-142878571D01*
X126521428Y-142764286D01*
X126521428Y-142678571D01*
X126492857Y-142564286D01*
X126464285Y-142507143D01*
X126407143Y-142450000D01*
X126321428Y-142421429D01*
X126264285Y-142421429D01*
X126178571Y-142450000D01*
X126150000Y-142478571D01*
X125950000Y-142421429D02*
X125550000Y-142421429D01*
X125807143Y-143021429D01*
X115900000Y-140614286D02*
X115928571Y-140642857D01*
X116014285Y-140671429D01*
X116071428Y-140671429D01*
X116157143Y-140642857D01*
X116214285Y-140585714D01*
X116242857Y-140528571D01*
X116271428Y-140414286D01*
X116271428Y-140328571D01*
X116242857Y-140214286D01*
X116214285Y-140157143D01*
X116157143Y-140100000D01*
X116071428Y-140071429D01*
X116014285Y-140071429D01*
X115928571Y-140100000D01*
X115900000Y-140128571D01*
X115557143Y-140328571D02*
X115614285Y-140300000D01*
X115642857Y-140271429D01*
X115671428Y-140214286D01*
X115671428Y-140185714D01*
X115642857Y-140128571D01*
X115614285Y-140100000D01*
X115557143Y-140071429D01*
X115442857Y-140071429D01*
X115385714Y-140100000D01*
X115357143Y-140128571D01*
X115328571Y-140185714D01*
X115328571Y-140214286D01*
X115357143Y-140271429D01*
X115385714Y-140300000D01*
X115442857Y-140328571D01*
X115557143Y-140328571D01*
X115614285Y-140357143D01*
X115642857Y-140385714D01*
X115671428Y-140442857D01*
X115671428Y-140557143D01*
X115642857Y-140614286D01*
X115614285Y-140642857D01*
X115557143Y-140671429D01*
X115442857Y-140671429D01*
X115385714Y-140642857D01*
X115357143Y-140614286D01*
X115328571Y-140557143D01*
X115328571Y-140442857D01*
X115357143Y-140385714D01*
X115385714Y-140357143D01*
X115442857Y-140328571D01*
D17*
X112007143Y-127200001D02*
X111107143Y-127200001D01*
X111107143Y-127542858D01*
X111150000Y-127628572D01*
X111192857Y-127671429D01*
X111278571Y-127714286D01*
X111407143Y-127714286D01*
X111492857Y-127671429D01*
X111535714Y-127628572D01*
X111578571Y-127542858D01*
X111578571Y-127200001D01*
X111107143Y-128014286D02*
X112007143Y-128228572D01*
X111364286Y-128400001D01*
X112007143Y-128571429D01*
X111107143Y-128785715D01*
X112007143Y-129642857D02*
X111578571Y-129342857D01*
X112007143Y-129128572D02*
X111107143Y-129128572D01*
X111107143Y-129471429D01*
X111150000Y-129557143D01*
X111192857Y-129600000D01*
X111278571Y-129642857D01*
X111407143Y-129642857D01*
X111492857Y-129600000D01*
X111535714Y-129557143D01*
X111578571Y-129471429D01*
X111578571Y-129128572D01*
D13*
X128714286Y-136671429D02*
X128914286Y-136385714D01*
X129057143Y-136671429D02*
X129057143Y-136071429D01*
X128828571Y-136071429D01*
X128771429Y-136100000D01*
X128742857Y-136128571D01*
X128714286Y-136185714D01*
X128714286Y-136271429D01*
X128742857Y-136328571D01*
X128771429Y-136357143D01*
X128828571Y-136385714D01*
X129057143Y-136385714D01*
X128514286Y-136071429D02*
X128114286Y-136671429D01*
X128114286Y-136071429D02*
X128514286Y-136671429D01*
X127600000Y-136671429D02*
X127885714Y-136671429D01*
X127885714Y-136071429D01*
X127400000Y-136357143D02*
X127200000Y-136357143D01*
X127114286Y-136671429D02*
X127400000Y-136671429D01*
X127400000Y-136071429D01*
X127114286Y-136071429D01*
X126857143Y-136671429D02*
X126857143Y-136071429D01*
X126714286Y-136071429D01*
X126628571Y-136100000D01*
X126571429Y-136157143D01*
X126542857Y-136214286D01*
X126514286Y-136328571D01*
X126514286Y-136414286D01*
X126542857Y-136528571D01*
X126571429Y-136585714D01*
X126628571Y-136642857D01*
X126714286Y-136671429D01*
X126857143Y-136671429D01*
X129271428Y-133471429D02*
X128928571Y-133471429D01*
X129100000Y-134071429D02*
X129100000Y-133471429D01*
X128785714Y-133471429D02*
X128385714Y-134071429D01*
X128385714Y-133471429D02*
X128785714Y-134071429D01*
X127871428Y-134071429D02*
X128157142Y-134071429D01*
X128157142Y-133471429D01*
X127671428Y-133757143D02*
X127471428Y-133757143D01*
X127385714Y-134071429D02*
X127671428Y-134071429D01*
X127671428Y-133471429D01*
X127385714Y-133471429D01*
X127128571Y-134071429D02*
X127128571Y-133471429D01*
X126985714Y-133471429D01*
X126899999Y-133500000D01*
X126842857Y-133557143D01*
X126814285Y-133614286D01*
X126785714Y-133728571D01*
X126785714Y-133814286D01*
X126814285Y-133928571D01*
X126842857Y-133985714D01*
X126899999Y-134042857D01*
X126985714Y-134071429D01*
X127128571Y-134071429D01*
D18*
X108366793Y-140564259D02*
X108533586Y-140564259D01*
X108533586Y-140826362D02*
X108533586Y-140325982D01*
X108295310Y-140325982D01*
X107842585Y-140826362D02*
X108128517Y-140826362D01*
X107985551Y-140826362D02*
X107985551Y-140325982D01*
X108033206Y-140397465D01*
X108080861Y-140445120D01*
X108128517Y-140468948D01*
D13*
X114100000Y-143671429D02*
X114385714Y-143671429D01*
X114385714Y-143071429D01*
X113585714Y-143671429D02*
X113928571Y-143671429D01*
X113757143Y-143671429D02*
X113757143Y-143071429D01*
X113814286Y-143157143D01*
X113871428Y-143214286D01*
X113928571Y-143242857D01*
X107402381Y-135761905D02*
X106402381Y-135761905D01*
X106402381Y-136142858D01*
X106450000Y-136238096D01*
X106497619Y-136285715D01*
X106592857Y-136333334D01*
X106735714Y-136333334D01*
X106830952Y-136285715D01*
X106878571Y-136238096D01*
X106926190Y-136142858D01*
X106926190Y-135761905D01*
X107402381Y-137285715D02*
X107402381Y-136714286D01*
X107402381Y-137000000D02*
X106402381Y-137000000D01*
X106545238Y-136904762D01*
X106640476Y-136809524D01*
X106688095Y-136714286D01*
X116500000Y-132671429D02*
X116700000Y-132385714D01*
X116842857Y-132671429D02*
X116842857Y-132071429D01*
X116614285Y-132071429D01*
X116557143Y-132100000D01*
X116528571Y-132128571D01*
X116500000Y-132185714D01*
X116500000Y-132271429D01*
X116528571Y-132328571D01*
X116557143Y-132357143D01*
X116614285Y-132385714D01*
X116842857Y-132385714D01*
X116300000Y-132071429D02*
X115900000Y-132071429D01*
X116157143Y-132671429D01*
X120700000Y-130671429D02*
X120900000Y-130385714D01*
X121042857Y-130671429D02*
X121042857Y-130071429D01*
X120814285Y-130071429D01*
X120757143Y-130100000D01*
X120728571Y-130128571D01*
X120700000Y-130185714D01*
X120700000Y-130271429D01*
X120728571Y-130328571D01*
X120757143Y-130357143D01*
X120814285Y-130385714D01*
X121042857Y-130385714D01*
X120357143Y-130328571D02*
X120414285Y-130300000D01*
X120442857Y-130271429D01*
X120471428Y-130214286D01*
X120471428Y-130185714D01*
X120442857Y-130128571D01*
X120414285Y-130100000D01*
X120357143Y-130071429D01*
X120242857Y-130071429D01*
X120185714Y-130100000D01*
X120157143Y-130128571D01*
X120128571Y-130185714D01*
X120128571Y-130214286D01*
X120157143Y-130271429D01*
X120185714Y-130300000D01*
X120242857Y-130328571D01*
X120357143Y-130328571D01*
X120414285Y-130357143D01*
X120442857Y-130385714D01*
X120471428Y-130442857D01*
X120471428Y-130557143D01*
X120442857Y-130614286D01*
X120414285Y-130642857D01*
X120357143Y-130671429D01*
X120242857Y-130671429D01*
X120185714Y-130642857D01*
X120157143Y-130614286D01*
X120128571Y-130557143D01*
X120128571Y-130442857D01*
X120157143Y-130385714D01*
X120185714Y-130357143D01*
X120242857Y-130328571D01*
X115900000Y-138271429D02*
X116100000Y-137985714D01*
X116242857Y-138271429D02*
X116242857Y-137671429D01*
X116014285Y-137671429D01*
X115957143Y-137700000D01*
X115928571Y-137728571D01*
X115900000Y-137785714D01*
X115900000Y-137871429D01*
X115928571Y-137928571D01*
X115957143Y-137957143D01*
X116014285Y-137985714D01*
X116242857Y-137985714D01*
X115614285Y-138271429D02*
X115500000Y-138271429D01*
X115442857Y-138242857D01*
X115414285Y-138214286D01*
X115357143Y-138128571D01*
X115328571Y-138014286D01*
X115328571Y-137785714D01*
X115357143Y-137728571D01*
X115385714Y-137700000D01*
X115442857Y-137671429D01*
X115557143Y-137671429D01*
X115614285Y-137700000D01*
X115642857Y-137728571D01*
X115671428Y-137785714D01*
X115671428Y-137928571D01*
X115642857Y-137985714D01*
X115614285Y-138014286D01*
X115557143Y-138042857D01*
X115442857Y-138042857D01*
X115385714Y-138014286D01*
X115357143Y-137985714D01*
X115328571Y-137928571D01*
X116385715Y-136671429D02*
X116585715Y-136385714D01*
X116728572Y-136671429D02*
X116728572Y-136071429D01*
X116500000Y-136071429D01*
X116442858Y-136100000D01*
X116414286Y-136128571D01*
X116385715Y-136185714D01*
X116385715Y-136271429D01*
X116414286Y-136328571D01*
X116442858Y-136357143D01*
X116500000Y-136385714D01*
X116728572Y-136385714D01*
X115814286Y-136671429D02*
X116157143Y-136671429D01*
X115985715Y-136671429D02*
X115985715Y-136071429D01*
X116042858Y-136157143D01*
X116100000Y-136214286D01*
X116157143Y-136242857D01*
X115442857Y-136071429D02*
X115385714Y-136071429D01*
X115328571Y-136100000D01*
X115300000Y-136128571D01*
X115271429Y-136185714D01*
X115242857Y-136300000D01*
X115242857Y-136442857D01*
X115271429Y-136557143D01*
X115300000Y-136614286D01*
X115328571Y-136642857D01*
X115385714Y-136671429D01*
X115442857Y-136671429D01*
X115500000Y-136642857D01*
X115528571Y-136614286D01*
X115557143Y-136557143D01*
X115585714Y-136442857D01*
X115585714Y-136300000D01*
X115557143Y-136185714D01*
X115528571Y-136128571D01*
X115500000Y-136100000D01*
X115442857Y-136071429D01*
X130785715Y-136421429D02*
X130985715Y-136135714D01*
X131128572Y-136421429D02*
X131128572Y-135821429D01*
X130900000Y-135821429D01*
X130842858Y-135850000D01*
X130814286Y-135878571D01*
X130785715Y-135935714D01*
X130785715Y-136021429D01*
X130814286Y-136078571D01*
X130842858Y-136107143D01*
X130900000Y-136135714D01*
X131128572Y-136135714D01*
X130214286Y-136421429D02*
X130557143Y-136421429D01*
X130385715Y-136421429D02*
X130385715Y-135821429D01*
X130442858Y-135907143D01*
X130500000Y-135964286D01*
X130557143Y-135992857D01*
X129642857Y-136421429D02*
X129985714Y-136421429D01*
X129814286Y-136421429D02*
X129814286Y-135821429D01*
X129871429Y-135907143D01*
X129928571Y-135964286D01*
X129985714Y-135992857D01*
X130785715Y-133821429D02*
X130985715Y-133535714D01*
X131128572Y-133821429D02*
X131128572Y-133221429D01*
X130900000Y-133221429D01*
X130842858Y-133250000D01*
X130814286Y-133278571D01*
X130785715Y-133335714D01*
X130785715Y-133421429D01*
X130814286Y-133478571D01*
X130842858Y-133507143D01*
X130900000Y-133535714D01*
X131128572Y-133535714D01*
X130214286Y-133821429D02*
X130557143Y-133821429D01*
X130385715Y-133821429D02*
X130385715Y-133221429D01*
X130442858Y-133307143D01*
X130500000Y-133364286D01*
X130557143Y-133392857D01*
X129985714Y-133278571D02*
X129957143Y-133250000D01*
X129900000Y-133221429D01*
X129757143Y-133221429D01*
X129700000Y-133250000D01*
X129671429Y-133278571D01*
X129642857Y-133335714D01*
X129642857Y-133392857D01*
X129671429Y-133478571D01*
X130014286Y-133821429D01*
X129642857Y-133821429D01*
X102652381Y-125838095D02*
X103461905Y-125838095D01*
X103557143Y-125885714D01*
X103604762Y-125933333D01*
X103652381Y-126028571D01*
X103652381Y-126219048D01*
X103604762Y-126314286D01*
X103557143Y-126361905D01*
X103461905Y-126409524D01*
X102652381Y-126409524D01*
X103652381Y-127409524D02*
X103652381Y-126838095D01*
X103652381Y-127123809D02*
X102652381Y-127123809D01*
X102795238Y-127028571D01*
X102890476Y-126933333D01*
X102938095Y-126838095D01*
X123161905Y-137052381D02*
X123161905Y-137861905D01*
X123114286Y-137957143D01*
X123066667Y-138004762D01*
X122971429Y-138052381D01*
X122780952Y-138052381D01*
X122685714Y-138004762D01*
X122638095Y-137957143D01*
X122590476Y-137861905D01*
X122590476Y-137052381D01*
X122209524Y-137052381D02*
X121590476Y-137052381D01*
X121923810Y-137433333D01*
X121780952Y-137433333D01*
X121685714Y-137480952D01*
X121638095Y-137528571D01*
X121590476Y-137623810D01*
X121590476Y-137861905D01*
X121638095Y-137957143D01*
X121685714Y-138004762D01*
X121780952Y-138052381D01*
X122066667Y-138052381D01*
X122161905Y-138004762D01*
X122209524Y-137957143D01*
X132261905Y-107452381D02*
X132261905Y-108261905D01*
X132214286Y-108357143D01*
X132166667Y-108404762D01*
X132071429Y-108452381D01*
X131880952Y-108452381D01*
X131785714Y-108404762D01*
X131738095Y-108357143D01*
X131690476Y-108261905D01*
X131690476Y-107452381D01*
X131261905Y-107547619D02*
X131214286Y-107500000D01*
X131119048Y-107452381D01*
X130880952Y-107452381D01*
X130785714Y-107500000D01*
X130738095Y-107547619D01*
X130690476Y-107642857D01*
X130690476Y-107738095D01*
X130738095Y-107880952D01*
X131309524Y-108452381D01*
X130690476Y-108452381D01*
D19*
X140452381Y-108852381D02*
X140785715Y-108376190D01*
X141023810Y-108852381D02*
X141023810Y-107852381D01*
X140642857Y-107852381D01*
X140547619Y-107900000D01*
X140500000Y-107947619D01*
X140452381Y-108042857D01*
X140452381Y-108185714D01*
X140500000Y-108280952D01*
X140547619Y-108328571D01*
X140642857Y-108376190D01*
X141023810Y-108376190D01*
X140023810Y-108328571D02*
X139690476Y-108328571D01*
X139547619Y-108852381D02*
X140023810Y-108852381D01*
X140023810Y-107852381D01*
X139547619Y-107852381D01*
X139166667Y-108804762D02*
X139023810Y-108852381D01*
X138785714Y-108852381D01*
X138690476Y-108804762D01*
X138642857Y-108757143D01*
X138595238Y-108661905D01*
X138595238Y-108566667D01*
X138642857Y-108471429D01*
X138690476Y-108423810D01*
X138785714Y-108376190D01*
X138976191Y-108328571D01*
X139071429Y-108280952D01*
X139119048Y-108233333D01*
X139166667Y-108138095D01*
X139166667Y-108042857D01*
X139119048Y-107947619D01*
X139071429Y-107900000D01*
X138976191Y-107852381D01*
X138738095Y-107852381D01*
X138595238Y-107900000D01*
X138166667Y-108328571D02*
X137833333Y-108328571D01*
X137690476Y-108852381D02*
X138166667Y-108852381D01*
X138166667Y-107852381D01*
X137690476Y-107852381D01*
X137404762Y-107852381D02*
X136833333Y-107852381D01*
X137119048Y-108852381D02*
X137119048Y-107852381D01*
X107476190Y-107900000D02*
X107571428Y-107852381D01*
X107714285Y-107852381D01*
X107857143Y-107900000D01*
X107952381Y-107995238D01*
X108000000Y-108090476D01*
X108047619Y-108280952D01*
X108047619Y-108423810D01*
X108000000Y-108614286D01*
X107952381Y-108709524D01*
X107857143Y-108804762D01*
X107714285Y-108852381D01*
X107619047Y-108852381D01*
X107476190Y-108804762D01*
X107428571Y-108757143D01*
X107428571Y-108423810D01*
X107619047Y-108423810D01*
X107000000Y-108852381D02*
X107000000Y-107852381D01*
X106619047Y-107852381D01*
X106523809Y-107900000D01*
X106476190Y-107947619D01*
X106428571Y-108042857D01*
X106428571Y-108185714D01*
X106476190Y-108280952D01*
X106523809Y-108328571D01*
X106619047Y-108376190D01*
X107000000Y-108376190D01*
X106000000Y-108852381D02*
X106000000Y-107852381D01*
X105333334Y-107852381D02*
X105142857Y-107852381D01*
X105047619Y-107900000D01*
X104952381Y-107995238D01*
X104904762Y-108185714D01*
X104904762Y-108519048D01*
X104952381Y-108709524D01*
X105047619Y-108804762D01*
X105142857Y-108852381D01*
X105333334Y-108852381D01*
X105428572Y-108804762D01*
X105523810Y-108709524D01*
X105571429Y-108519048D01*
X105571429Y-108185714D01*
X105523810Y-107995238D01*
X105428572Y-107900000D01*
X105333334Y-107852381D01*
X104285715Y-107852381D02*
X104190476Y-107852381D01*
X104095238Y-107900000D01*
X104047619Y-107947619D01*
X104000000Y-108042857D01*
X103952381Y-108233333D01*
X103952381Y-108471429D01*
X104000000Y-108661905D01*
X104047619Y-108757143D01*
X104095238Y-108804762D01*
X104190476Y-108852381D01*
X104285715Y-108852381D01*
X104380953Y-108804762D01*
X104428572Y-108757143D01*
X104476191Y-108661905D01*
X104523810Y-108471429D01*
X104523810Y-108233333D01*
X104476191Y-108042857D01*
X104428572Y-107947619D01*
X104380953Y-107900000D01*
X104285715Y-107852381D01*
X132069047Y-142926190D02*
X132069047Y-142426190D01*
X131950000Y-142426190D01*
X131878571Y-142450000D01*
X131830952Y-142497619D01*
X131807143Y-142545238D01*
X131783333Y-142640476D01*
X131783333Y-142711905D01*
X131807143Y-142807143D01*
X131830952Y-142854762D01*
X131878571Y-142902381D01*
X131950000Y-142926190D01*
X132069047Y-142926190D01*
X131330952Y-142426190D02*
X131569047Y-142426190D01*
X131592857Y-142664286D01*
X131569047Y-142640476D01*
X131521428Y-142616667D01*
X131402381Y-142616667D01*
X131354762Y-142640476D01*
X131330952Y-142664286D01*
X131307143Y-142711905D01*
X131307143Y-142830952D01*
X131330952Y-142878571D01*
X131354762Y-142902381D01*
X131402381Y-142926190D01*
X131521428Y-142926190D01*
X131569047Y-142902381D01*
X131592857Y-142878571D01*
D13*
X133971429Y-141585714D02*
X133971429Y-141242857D01*
X133971429Y-141414285D02*
X133371429Y-141414285D01*
X133457143Y-141357142D01*
X133514286Y-141300000D01*
X133542857Y-141242857D01*
X133371429Y-141785714D02*
X133371429Y-142157143D01*
X133600000Y-141957143D01*
X133600000Y-142042857D01*
X133628571Y-142100000D01*
X133657143Y-142128571D01*
X133714286Y-142157143D01*
X133857143Y-142157143D01*
X133914286Y-142128571D01*
X133942857Y-142100000D01*
X133971429Y-142042857D01*
X133971429Y-141871429D01*
X133942857Y-141814286D01*
X133914286Y-141785714D01*
X132971429Y-136514285D02*
X132685714Y-136314285D01*
X132971429Y-136171428D02*
X132371429Y-136171428D01*
X132371429Y-136400000D01*
X132400000Y-136457142D01*
X132428571Y-136485714D01*
X132485714Y-136514285D01*
X132571429Y-136514285D01*
X132628571Y-136485714D01*
X132657143Y-136457142D01*
X132685714Y-136400000D01*
X132685714Y-136171428D01*
X132971429Y-137085714D02*
X132971429Y-136742857D01*
X132971429Y-136914285D02*
X132371429Y-136914285D01*
X132457143Y-136857142D01*
X132514286Y-136800000D01*
X132542857Y-136742857D01*
X132371429Y-137285714D02*
X132371429Y-137657143D01*
X132600000Y-137457143D01*
X132600000Y-137542857D01*
X132628571Y-137600000D01*
X132657143Y-137628571D01*
X132714286Y-137657143D01*
X132857143Y-137657143D01*
X132914286Y-137628571D01*
X132942857Y-137600000D01*
X132971429Y-137542857D01*
X132971429Y-137371429D01*
X132942857Y-137314286D01*
X132914286Y-137285714D01*
D19*
X106869047Y-122726190D02*
X106869047Y-122226190D01*
X106750000Y-122226190D01*
X106678571Y-122250000D01*
X106630952Y-122297619D01*
X106607143Y-122345238D01*
X106583333Y-122440476D01*
X106583333Y-122511905D01*
X106607143Y-122607143D01*
X106630952Y-122654762D01*
X106678571Y-122702381D01*
X106750000Y-122726190D01*
X106869047Y-122726190D01*
X106392857Y-122273810D02*
X106369047Y-122250000D01*
X106321428Y-122226190D01*
X106202381Y-122226190D01*
X106154762Y-122250000D01*
X106130952Y-122273810D01*
X106107143Y-122321429D01*
X106107143Y-122369048D01*
X106130952Y-122440476D01*
X106416666Y-122726190D01*
X106107143Y-122726190D01*
D13*
X135314286Y-125150000D02*
X135342857Y-125121429D01*
X135371429Y-125035715D01*
X135371429Y-124978572D01*
X135342857Y-124892857D01*
X135285714Y-124835715D01*
X135228571Y-124807143D01*
X135114286Y-124778572D01*
X135028571Y-124778572D01*
X134914286Y-124807143D01*
X134857143Y-124835715D01*
X134800000Y-124892857D01*
X134771429Y-124978572D01*
X134771429Y-125035715D01*
X134800000Y-125121429D01*
X134828571Y-125150000D01*
X134771429Y-125664286D02*
X134771429Y-125550000D01*
X134800000Y-125492857D01*
X134828571Y-125464286D01*
X134914286Y-125407143D01*
X135028571Y-125378572D01*
X135257143Y-125378572D01*
X135314286Y-125407143D01*
X135342857Y-125435715D01*
X135371429Y-125492857D01*
X135371429Y-125607143D01*
X135342857Y-125664286D01*
X135314286Y-125692857D01*
X135257143Y-125721429D01*
X135114286Y-125721429D01*
X135057143Y-125692857D01*
X135028571Y-125664286D01*
X135000000Y-125607143D01*
X135000000Y-125492857D01*
X135028571Y-125435715D01*
X135057143Y-125407143D01*
X135114286Y-125378572D01*
X119850000Y-144564286D02*
X119878571Y-144592857D01*
X119964285Y-144621429D01*
X120021428Y-144621429D01*
X120107143Y-144592857D01*
X120164285Y-144535714D01*
X120192857Y-144478571D01*
X120221428Y-144364286D01*
X120221428Y-144278571D01*
X120192857Y-144164286D01*
X120164285Y-144107143D01*
X120107143Y-144050000D01*
X120021428Y-144021429D01*
X119964285Y-144021429D01*
X119878571Y-144050000D01*
X119850000Y-144078571D01*
X119564285Y-144621429D02*
X119450000Y-144621429D01*
X119392857Y-144592857D01*
X119364285Y-144564286D01*
X119307143Y-144478571D01*
X119278571Y-144364286D01*
X119278571Y-144135714D01*
X119307143Y-144078571D01*
X119335714Y-144050000D01*
X119392857Y-144021429D01*
X119507143Y-144021429D01*
X119564285Y-144050000D01*
X119592857Y-144078571D01*
X119621428Y-144135714D01*
X119621428Y-144278571D01*
X119592857Y-144335714D01*
X119564285Y-144364286D01*
X119507143Y-144392857D01*
X119392857Y-144392857D01*
X119335714Y-144364286D01*
X119307143Y-144335714D01*
X119278571Y-144278571D01*
X143302381Y-132011905D02*
X142302381Y-132011905D01*
X142302381Y-132392858D01*
X142350000Y-132488096D01*
X142397619Y-132535715D01*
X142492857Y-132583334D01*
X142635714Y-132583334D01*
X142730952Y-132535715D01*
X142778571Y-132488096D01*
X142826190Y-132392858D01*
X142826190Y-132011905D01*
X142302381Y-132916667D02*
X142302381Y-133535715D01*
X142683333Y-133202381D01*
X142683333Y-133345239D01*
X142730952Y-133440477D01*
X142778571Y-133488096D01*
X142873810Y-133535715D01*
X143111905Y-133535715D01*
X143207143Y-133488096D01*
X143254762Y-133440477D01*
X143302381Y-133345239D01*
X143302381Y-133059524D01*
X143254762Y-132964286D01*
X143207143Y-132916667D01*
M02*
